G04 --- HEADER BEGIN --- *
G04 #@! TF.GenerationSoftware,LibrePCB,LibrePCB,0.1.7*
G04 #@! TF.CreationDate,2023-11-18T14:18:11*
G04 #@! TF.ProjectId,CRi-CRi_Display,14a54b12-152a-4fb2-828b-3daff0557bc7,v1*
G04 #@! TF.Part,Single*
G04 #@! TF.SameCoordinates*
G04 #@! TF.FileFunction,Copper,L1,Top*
G04 #@! TF.FilePolarity,Positive*
%FSLAX66Y66*%
%MOMM*%
G01*
G75*
G04 --- HEADER END --- *
G04 --- APERTURE LIST BEGIN --- *
G04 #@! TA.AperFunction,ComponentPad*
%ADD10O,1.587X2.19*%
%ADD11R,1.587X2.19*%
%ADD12O,2.19X1.587*%
%ADD13R,2.19X1.587*%
%ADD14O,1.3X2.5*%
G04 #@! TA.AperFunction,ViaPad*
%ADD15C,0.9*%
G04 #@! TA.AperFunction,Conductor*
%ADD16C,0.5*%
%ADD17C,0.01*%
G04 #@! TD*
G04 --- APERTURE LIST END --- *
G04 --- BOARD BEGIN --- *
D10*
G04 #@! TO.N,N17*
G04 #@! TO.C,J6*
G04 #@! TO.P,J6,2,2*
X5715000Y33020000D03*
D11*
G04 #@! TO.N,GND*
G04 #@! TO.P,J6,1,1*
X3175000Y33020000D03*
D10*
G04 #@! TO.N,N11*
G04 #@! TO.C,J5*
G04 #@! TO.P,J5,2,2*
X5715000Y25400000D03*
D11*
G04 #@! TO.N,GND*
G04 #@! TO.P,J5,1,1*
X3175000Y25400000D03*
D10*
G04 #@! TO.N,N16*
G04 #@! TO.C,J4*
G04 #@! TO.P,J4,2,2*
X5715000Y29210000D03*
D11*
G04 #@! TO.N,GND*
G04 #@! TO.P,J4,1,1*
X3175000Y29210000D03*
D12*
G04 #@! TO.N,N15*
G04 #@! TO.C,J1*
G04 #@! TO.P,J1,14,14*
X76200000Y8255000D03*
D13*
G04 #@! TO.N,N1*
G04 #@! TO.P,J1,1,1*
X73660000Y23495000D03*
D12*
G04 #@! TO.N,N10*
G04 #@! TO.P,J1,12,12*
X76200000Y10795000D03*
G04 #@! TO.N,N2*
G04 #@! TO.P,J1,3,3*
X73660000Y20955000D03*
G04 #@! TO.N,N7*
G04 #@! TO.P,J1,8,8*
X76200000Y15875000D03*
G04 #@! TO.N,N13*
G04 #@! TO.P,J1,10,10*
X76200000Y13335000D03*
G04 #@! TO.N,N14*
G04 #@! TO.P,J1,15,15*
X73660000Y5715000D03*
G04 #@! TO.N,N12*
G04 #@! TO.P,J1,13,13*
X73660000Y8255000D03*
G04 #@! TO.N,N3*
G04 #@! TO.P,J1,2,2*
X76200000Y23495000D03*
G04 #@! TO.N,GND*
G04 #@! TO.P,J1,16,16*
X76200000Y5715000D03*
G04 #@! TO.N,N9*
G04 #@! TO.P,J1,11,11*
X73660000Y10795000D03*
G04 #@! TO.N,N8*
G04 #@! TO.P,J1,9,9*
X73660000Y13335000D03*
G04 #@! TO.N,N4*
G04 #@! TO.P,J1,5,5*
X73660000Y18415000D03*
G04 #@! TO.N,GND*
G04 #@! TO.P,J1,4,4*
X76200000Y20955000D03*
G04 #@! TO.N,N6*
G04 #@! TO.P,J1,6,6*
X76200000Y18415000D03*
G04 #@! TO.N,N5*
G04 #@! TO.P,J1,7,7*
X73660000Y15875000D03*
D10*
G04 #@! TO.N,VCC*
G04 #@! TO.C,J2*
G04 #@! TO.P,J2,2,2*
X62865000Y33655000D03*
D11*
G04 #@! TO.N,GND*
G04 #@! TO.P,J2,1,1*
X65405000Y33655000D03*
D10*
G04 #@! TO.N,VCC*
G04 #@! TO.C,J3*
G04 #@! TO.P,J3,2,2*
X76835000Y33655000D03*
D11*
G04 #@! TO.N,GND*
G04 #@! TO.P,J3,1,1*
X74295000Y33655000D03*
D14*
G04 #@! TO.N,N/C*
G04 #@! TO.C,MCU1*
G04 #@! TO.P,MCU1,SD0,GPIO7*
X19685000Y5080000D03*
G04 #@! TO.P,MCU1,G0,GPIO0*
X24765000Y5080000D03*
G04 #@! TO.N,N9*
G04 #@! TO.P,MCU1,G17,GPIO17*
X37465000Y5080000D03*
G04 #@! TO.N,N/C*
G04 #@! TO.P,MCU1,G34,GPIO34*
X50165000Y30480000D03*
G04 #@! TO.N,VCC*
G04 #@! TO.P,MCU1,5V,5V*
X14605000Y30480000D03*
G04 #@! TO.N,N/C*
G04 #@! TO.P,MCU1,CLK,GPIO6*
X17145000Y5080000D03*
G04 #@! TO.N,N4*
G04 #@! TO.P,MCU1,G23,GPIO23*
X57785000Y5080000D03*
G04 #@! TO.N,N2*
G04 #@! TO.P,MCU1,G26,GPIO26*
X37465000Y30480000D03*
G04 #@! TO.N,N/C*
G04 #@! TO.P,MCU1,G2,GPIO2*
X29845000Y5080000D03*
G04 #@! TO.N,N13*
G04 #@! TO.P,MCU1,G16,GPIO16*
X34925000Y5080000D03*
G04 #@! TO.N,GND*
G04 #@! TO.P,MCU1,GND1,GND*
X17145000Y30480000D03*
G04 #@! TO.N,N3*
G04 #@! TO.P,MCU1,G25,GPIO25*
X40005000Y30480000D03*
G04 #@! TO.N,N1*
G04 #@! TO.P,MCU1,G27,GPIO27*
X34925000Y30480000D03*
G04 #@! TO.N,N/C*
G04 #@! TO.P,MCU1,EN,EN*
X57785000Y30480000D03*
G04 #@! TO.N,N8*
G04 #@! TO.P,MCU1,G12,GPIO12*
X29845000Y30480000D03*
G04 #@! TO.N,N/C*
G04 #@! TO.P,MCU1,RXD,GPIO3*
X50165000Y5080000D03*
G04 #@! TO.N,N14*
G04 #@! TO.P,MCU1,G33,GPIO33*
X42545000Y30480000D03*
G04 #@! TO.N,N/C*
G04 #@! TO.P,MCU1,G14,GPIO14*
X32385000Y30480000D03*
G04 #@! TO.P,MCU1,SD1,GPIO8*
X22225000Y5080000D03*
G04 #@! TO.N,N15*
G04 #@! TO.P,MCU1,G32,GPIO32*
X45085000Y30480000D03*
G04 #@! TO.N,N10*
G04 #@! TO.P,MCU1,G18,GPIO18*
X42545000Y5080000D03*
G04 #@! TO.N,N17*
G04 #@! TO.P,MCU1,G13,GPIO13*
X27305000Y30480000D03*
G04 #@! TO.N,N/C*
G04 #@! TO.P,MCU1,G35,GPIO35*
X47625000Y30480000D03*
G04 #@! TO.P,MCU1,G4,GPIO4*
X32385000Y5080000D03*
G04 #@! TO.P,MCU1,G19,GPIO19*
X45085000Y5080000D03*
G04 #@! TO.N,N16*
G04 #@! TO.P,MCU1,SM,GPIO39*
X52705000Y30480000D03*
G04 #@! TO.N,N5*
G04 #@! TO.P,MCU1,G22,GPIO22*
X55245000Y5080000D03*
G04 #@! TO.N,N6*
G04 #@! TO.P,MCU1,G21,GPIO21*
X47625000Y5080000D03*
G04 #@! TO.N,N/C*
G04 #@! TO.P,MCU1,3V3,3V3*
X14605000Y5080000D03*
G04 #@! TO.P,MCU1,CMD,GPIO11*
X19685000Y30480000D03*
G04 #@! TO.P,MCU1,SD2,GPIO9*
X24765000Y30480000D03*
G04 #@! TO.N,N11*
G04 #@! TO.P,MCU1,SP,GPIO36*
X55245000Y30480000D03*
G04 #@! TO.N,N12*
G04 #@! TO.P,MCU1,G15,GPIO15*
X27305000Y5080000D03*
G04 #@! TO.N,N7*
G04 #@! TO.P,MCU1,G5,GPIO5*
X40005000Y5080000D03*
G04 #@! TO.N,N/C*
G04 #@! TO.P,MCU1,TXD,GPIO1*
X52705000Y5080000D03*
G04 #@! TO.P,MCU1,SD3,GPIO10*
X22225000Y30480000D03*
D15*
G04 #@! TD.C*
G04 #@! TD.P*
G04 #@! TO.N,N9*
X52070000Y11430000D03*
X65405000Y10160000D03*
D16*
X65405000Y10160000D02*
X53340000Y10160000D01*
X52070000Y11430000D02*
X53340000Y10160000D01*
D15*
G04 #@! TO.N,N1*
X37465000Y25400000D03*
X56515000Y25400000D03*
D16*
X56515000Y25400000D02*
X37465000Y25400000D01*
D15*
G04 #@! TO.N,N12*
X69850000Y4445000D03*
X70485000Y8255000D03*
D16*
X70485000Y8255000D02*
X69850000Y7620000D01*
X69850000Y4445000D02*
X69850000Y7620000D01*
D15*
G04 #@! TO.N,N8*
X40640000Y19685000D03*
X57785000Y17780000D03*
D16*
X57785000Y17780000D02*
X42545000Y17780000D01*
X40640000Y19685000D02*
X42545000Y17780000D01*
D15*
G04 #@! TO.N,N5*
X55880000Y13335000D03*
X67945000Y15875000D03*
D16*
X60960000Y18415000D02*
X65405000Y18415000D01*
X60960000Y18415000D02*
X55880000Y13335000D01*
X67945000Y15875000D02*
X65405000Y18415000D01*
D15*
G04 #@! TO.N,N13*
X34925000Y3175000D03*
X78740000Y13335000D03*
D16*
X80645000Y2540000D02*
X79375000Y1270000D01*
X80645000Y12700000D02*
X80645000Y2540000D01*
X80010000Y13335000D02*
X80645000Y12700000D01*
X79375000Y1270000D02*
X36830000Y1270000D01*
X36830000Y1270000D02*
X34925000Y3175000D01*
X78740000Y13335000D02*
X80010000Y13335000D01*
D15*
G04 #@! TO.N,N7*
X78740000Y15875000D03*
X41275000Y8890000D03*
D16*
X69850000Y28575000D02*
X71755000Y30480000D01*
X80010000Y15875000D02*
X80645000Y16510000D01*
X76200000Y30480000D02*
X71755000Y30480000D01*
X41275000Y8890000D02*
X66040000Y8890000D01*
X80645000Y26035000D02*
X76200000Y30480000D01*
X69850000Y12700000D02*
X69850000Y28575000D01*
X80645000Y16510000D02*
X80645000Y26035000D01*
X66040000Y8890000D02*
X69850000Y12700000D01*
X78740000Y15875000D02*
X80010000Y15875000D01*
D15*
G04 #@! TO.N,N14*
X46990000Y23495000D03*
X52070000Y21590000D03*
D16*
X52070000Y21590000D02*
X50800000Y22860000D01*
X47625000Y22860000D02*
X50800000Y22860000D01*
X46990000Y23495000D02*
X47625000Y22860000D01*
G04 #@! TO.N,VCC*
X62865000Y33655000D02*
X62865000Y33655000D01*
D15*
G04 #@! TO.N,N2*
X56515000Y19685000D03*
X43815000Y21590000D03*
D16*
X43815000Y21590000D02*
X45720000Y19685000D01*
X45720000Y19685000D02*
X56515000Y19685000D01*
D15*
G04 #@! TO.N,N10*
X42545000Y3175000D03*
X78740000Y10795000D03*
D16*
X78740000Y3810000D02*
X77470000Y2540000D01*
X78740000Y10795000D02*
X78740000Y3810000D01*
X43180000Y2540000D02*
X42545000Y3175000D01*
X77470000Y2540000D02*
X43180000Y2540000D01*
D15*
G04 #@! TO.N,N6*
X47625000Y7620000D03*
X78740000Y18415000D03*
D16*
X72390000Y29210000D02*
X75565000Y29210000D01*
X71120000Y12065000D02*
X71120000Y27940000D01*
X75565000Y29210000D02*
X79375000Y25400000D01*
X79375000Y25400000D02*
X79375000Y19050000D01*
X66675000Y7620000D02*
X71120000Y12065000D01*
X78740000Y18415000D02*
X79375000Y19050000D01*
X71120000Y27940000D02*
X72390000Y29210000D01*
X47625000Y7620000D02*
X66675000Y7620000D01*
D15*
G04 #@! TO.N,N3*
X58420000Y26670000D03*
X41910000Y26670000D03*
D16*
X58420000Y26670000D02*
X41910000Y26670000D01*
D15*
G04 #@! TO.N,N4*
X57785000Y11430000D03*
X62230000Y15875000D03*
D16*
X62230000Y15875000D02*
X57785000Y11430000D01*
D17*
G04 #@! TA.AperFunction,Conductor*
G04 #@! TO.N,GND*
G36*
X81586660Y319750D02*
X81656204Y375099D01*
X81694899Y455117D01*
X81700000Y500000D01*
X81700000Y35500000D01*
X81680250Y35586660D01*
X81624901Y35656204D01*
X81544883Y35694899D01*
X81500000Y35700000D01*
X500000Y35700000D01*
X413340Y35680250D01*
X343796Y35624901D01*
X305101Y35544883D01*
X300000Y35500000D01*
X300000Y500000D01*
X319750Y413340D01*
X375099Y343796D01*
X455117Y305101D01*
X500000Y300000D01*
X5623351Y300000D01*
X5623351Y24009665D01*
X5605019Y24011363D01*
X5424832Y24045046D01*
X5407135Y24050082D01*
X5236208Y24116298D01*
X5219722Y24124507D01*
X5063885Y24220997D01*
X5049178Y24232104D01*
X4913737Y24355576D01*
X4901315Y24369202D01*
X4790860Y24515468D01*
X4781169Y24531119D01*
X4699460Y24695211D01*
X4692813Y24712371D01*
X4642648Y24888681D01*
X4639266Y24906771D01*
X4621927Y25093895D01*
X4621500Y25103127D01*
X4621500Y25696873D01*
X4621927Y25706105D01*
X4639266Y25893229D01*
X4642648Y25911319D01*
X4692813Y26087629D01*
X4699460Y26104789D01*
X4781169Y26268881D01*
X4790860Y26284532D01*
X4901315Y26430798D01*
X4913737Y26444424D01*
X5049178Y26567896D01*
X5063885Y26579003D01*
X5219722Y26675493D01*
X5236208Y26683702D01*
X5407135Y26749918D01*
X5424832Y26754954D01*
X5605019Y26788637D01*
X5623351Y26790335D01*
X5623351Y26790335D01*
X5623351Y27819665D01*
X5605019Y27821363D01*
X5424832Y27855046D01*
X5407135Y27860082D01*
X5236208Y27926298D01*
X5219722Y27934507D01*
X5063885Y28030997D01*
X5049178Y28042104D01*
X4913737Y28165576D01*
X4901315Y28179202D01*
X4790860Y28325468D01*
X4781169Y28341119D01*
X4699460Y28505211D01*
X4692813Y28522371D01*
X4642648Y28698681D01*
X4639266Y28716771D01*
X4621927Y28903895D01*
X4621500Y28913127D01*
X4621500Y29506873D01*
X4621927Y29516105D01*
X4639266Y29703229D01*
X4642648Y29721319D01*
X4692813Y29897629D01*
X4699460Y29914789D01*
X4781169Y30078881D01*
X4790860Y30094532D01*
X4901315Y30240798D01*
X4913737Y30254424D01*
X5049178Y30377896D01*
X5063885Y30389003D01*
X5219722Y30485493D01*
X5236208Y30493702D01*
X5407135Y30559918D01*
X5424832Y30564954D01*
X5605019Y30598637D01*
X5623351Y30600335D01*
X5623351Y30600335D01*
X5623351Y31629665D01*
X5605019Y31631363D01*
X5424832Y31665046D01*
X5407135Y31670082D01*
X5236208Y31736298D01*
X5219722Y31744507D01*
X5063885Y31840997D01*
X5049178Y31852104D01*
X4913737Y31975576D01*
X4901315Y31989202D01*
X4790860Y32135468D01*
X4781169Y32151119D01*
X4699460Y32315211D01*
X4692813Y32332371D01*
X4642648Y32508681D01*
X4639266Y32526771D01*
X4621927Y32713895D01*
X4621500Y32723127D01*
X4621500Y33316873D01*
X4621927Y33326105D01*
X4639266Y33513229D01*
X4642648Y33531319D01*
X4692813Y33707629D01*
X4699460Y33724789D01*
X4781169Y33888881D01*
X4790860Y33904532D01*
X4901315Y34050798D01*
X4913737Y34064424D01*
X5049178Y34187896D01*
X5063885Y34199003D01*
X5219722Y34295493D01*
X5236208Y34303702D01*
X5407135Y34369918D01*
X5424832Y34374954D01*
X5605019Y34408637D01*
X5623351Y34410335D01*
X5806649Y34410335D01*
X5824981Y34408637D01*
X6005168Y34374954D01*
X6022865Y34369918D01*
X6193792Y34303702D01*
X6210278Y34295493D01*
X6366115Y34199003D01*
X6380822Y34187896D01*
X6516263Y34064424D01*
X6528685Y34050798D01*
X6639140Y33904532D01*
X6648831Y33888881D01*
X6730540Y33724789D01*
X6737187Y33707629D01*
X6787352Y33531319D01*
X6790734Y33513229D01*
X6808073Y33326105D01*
X6808500Y33316873D01*
X6808500Y32723127D01*
X6808073Y32713895D01*
X6790734Y32526771D01*
X6787352Y32508681D01*
X6737187Y32332371D01*
X6730540Y32315211D01*
X6648831Y32151119D01*
X6639140Y32135468D01*
X6528685Y31989202D01*
X6516263Y31975576D01*
X6380822Y31852104D01*
X6366115Y31840997D01*
X6210278Y31744507D01*
X6193792Y31736298D01*
X6022865Y31670082D01*
X6005168Y31665046D01*
X5824981Y31631363D01*
X5806649Y31629665D01*
X5623351Y31629665D01*
X5623351Y30600335D01*
X5806649Y30600335D01*
X5824981Y30598637D01*
X6005168Y30564954D01*
X6022865Y30559918D01*
X6193792Y30493702D01*
X6210278Y30485493D01*
X6366115Y30389003D01*
X6380822Y30377896D01*
X6516263Y30254424D01*
X6528685Y30240798D01*
X6639140Y30094532D01*
X6648831Y30078881D01*
X6730540Y29914789D01*
X6737187Y29897629D01*
X6787352Y29721319D01*
X6790734Y29703229D01*
X6808073Y29516105D01*
X6808500Y29506873D01*
X6808500Y28913127D01*
X6808073Y28903895D01*
X6790734Y28716771D01*
X6787352Y28698681D01*
X6737187Y28522371D01*
X6730540Y28505211D01*
X6648831Y28341119D01*
X6639140Y28325468D01*
X6528685Y28179202D01*
X6516263Y28165576D01*
X6380822Y28042104D01*
X6366115Y28030997D01*
X6210278Y27934507D01*
X6193792Y27926298D01*
X6022865Y27860082D01*
X6005168Y27855046D01*
X5824981Y27821363D01*
X5806649Y27819665D01*
X5623351Y27819665D01*
X5623351Y26790335D01*
X5806649Y26790335D01*
X5824981Y26788637D01*
X6005168Y26754954D01*
X6022865Y26749918D01*
X6193792Y26683702D01*
X6210278Y26675493D01*
X6366115Y26579003D01*
X6380822Y26567896D01*
X6516263Y26444424D01*
X6528685Y26430798D01*
X6639140Y26284532D01*
X6648831Y26268881D01*
X6730540Y26104789D01*
X6737187Y26087629D01*
X6787352Y25911319D01*
X6790734Y25893229D01*
X6808073Y25706105D01*
X6808500Y25696873D01*
X6808500Y25103127D01*
X6808073Y25093895D01*
X6790734Y24906771D01*
X6787352Y24888681D01*
X6737187Y24712371D01*
X6730540Y24695211D01*
X6648831Y24531119D01*
X6639140Y24515468D01*
X6528685Y24369202D01*
X6516263Y24355576D01*
X6380822Y24232104D01*
X6366115Y24220997D01*
X6210278Y24124507D01*
X6193792Y24116298D01*
X6022865Y24050082D01*
X6005168Y24045046D01*
X5824981Y24011363D01*
X5806649Y24009665D01*
X5623351Y24009665D01*
X5623351Y300000D01*
X14595222Y300000D01*
X14595222Y3530963D01*
X14429442Y3547291D01*
X14410262Y3551106D01*
X14250852Y3599462D01*
X14232788Y3606945D01*
X14085872Y3685473D01*
X14069614Y3696336D01*
X13940839Y3802020D01*
X13927020Y3815839D01*
X13821336Y3944614D01*
X13810473Y3960872D01*
X13731945Y4107788D01*
X13724462Y4125852D01*
X13676106Y4285262D01*
X13672291Y4304442D01*
X13655481Y4475117D01*
X13655000Y4484907D01*
X13655000Y5675093D01*
X13655481Y5684883D01*
X13672291Y5855558D01*
X13676106Y5874738D01*
X13724462Y6034148D01*
X13731945Y6052212D01*
X13810473Y6199128D01*
X13821336Y6215386D01*
X13927020Y6344161D01*
X13940839Y6357980D01*
X14069614Y6463664D01*
X14085872Y6474527D01*
X14232788Y6553055D01*
X14250852Y6560538D01*
X14410262Y6608894D01*
X14429442Y6612709D01*
X14595222Y6629037D01*
X14595222Y6629037D01*
X14595222Y28930963D01*
X14429442Y28947291D01*
X14410262Y28951106D01*
X14250852Y28999462D01*
X14232788Y29006945D01*
X14085872Y29085473D01*
X14069614Y29096336D01*
X13940839Y29202020D01*
X13927020Y29215839D01*
X13821336Y29344614D01*
X13810473Y29360872D01*
X13731945Y29507788D01*
X13724462Y29525852D01*
X13676106Y29685262D01*
X13672291Y29704442D01*
X13655481Y29875117D01*
X13655000Y29884907D01*
X13655000Y31075093D01*
X13655481Y31084883D01*
X13672291Y31255558D01*
X13676106Y31274738D01*
X13724462Y31434148D01*
X13731945Y31452212D01*
X13810473Y31599128D01*
X13821336Y31615386D01*
X13927020Y31744161D01*
X13940839Y31757980D01*
X14069614Y31863664D01*
X14085872Y31874527D01*
X14232788Y31953055D01*
X14250852Y31960538D01*
X14410262Y32008894D01*
X14429442Y32012709D01*
X14595222Y32029037D01*
X14614778Y32029037D01*
X14780558Y32012709D01*
X14799738Y32008894D01*
X14959148Y31960538D01*
X14977212Y31953055D01*
X15124128Y31874527D01*
X15140386Y31863664D01*
X15269161Y31757980D01*
X15282980Y31744161D01*
X15388664Y31615386D01*
X15399527Y31599128D01*
X15478055Y31452212D01*
X15485538Y31434148D01*
X15533894Y31274738D01*
X15537709Y31255558D01*
X15554519Y31084883D01*
X15555000Y31075093D01*
X15555000Y29884907D01*
X15554519Y29875117D01*
X15537709Y29704442D01*
X15533894Y29685262D01*
X15485538Y29525852D01*
X15478055Y29507788D01*
X15399527Y29360872D01*
X15388664Y29344614D01*
X15282980Y29215839D01*
X15269161Y29202020D01*
X15140386Y29096336D01*
X15124128Y29085473D01*
X14977212Y29006945D01*
X14959148Y28999462D01*
X14799738Y28951106D01*
X14780558Y28947291D01*
X14614778Y28930963D01*
X14595222Y28930963D01*
X14595222Y6629037D01*
X14614778Y6629037D01*
X14780558Y6612709D01*
X14799738Y6608894D01*
X14959148Y6560538D01*
X14977212Y6553055D01*
X15124128Y6474527D01*
X15140386Y6463664D01*
X15269161Y6357980D01*
X15282980Y6344161D01*
X15388664Y6215386D01*
X15399527Y6199128D01*
X15478055Y6052212D01*
X15485538Y6034148D01*
X15533894Y5874738D01*
X15537709Y5855558D01*
X15554519Y5684883D01*
X15555000Y5675093D01*
X15555000Y4484907D01*
X15554519Y4475117D01*
X15537709Y4304442D01*
X15533894Y4285262D01*
X15485538Y4125852D01*
X15478055Y4107788D01*
X15399527Y3960872D01*
X15388664Y3944614D01*
X15282980Y3815839D01*
X15269161Y3802020D01*
X15140386Y3696336D01*
X15124128Y3685473D01*
X14977212Y3606945D01*
X14959148Y3599462D01*
X14799738Y3551106D01*
X14780558Y3547291D01*
X14614778Y3530963D01*
X14595222Y3530963D01*
X14595222Y300000D01*
X17135222Y300000D01*
X17135222Y3530963D01*
X16969442Y3547291D01*
X16950262Y3551106D01*
X16790852Y3599462D01*
X16772788Y3606945D01*
X16625872Y3685473D01*
X16609614Y3696336D01*
X16480839Y3802020D01*
X16467020Y3815839D01*
X16361336Y3944614D01*
X16350473Y3960872D01*
X16271945Y4107788D01*
X16264462Y4125852D01*
X16216106Y4285262D01*
X16212291Y4304442D01*
X16195481Y4475117D01*
X16195000Y4484907D01*
X16195000Y5675093D01*
X16195481Y5684883D01*
X16212291Y5855558D01*
X16216106Y5874738D01*
X16264462Y6034148D01*
X16271945Y6052212D01*
X16350473Y6199128D01*
X16361336Y6215386D01*
X16467020Y6344161D01*
X16480839Y6357980D01*
X16609614Y6463664D01*
X16625872Y6474527D01*
X16772788Y6553055D01*
X16790852Y6560538D01*
X16950262Y6608894D01*
X16969442Y6612709D01*
X17135222Y6629037D01*
X17154778Y6629037D01*
X17320558Y6612709D01*
X17339738Y6608894D01*
X17499148Y6560538D01*
X17517212Y6553055D01*
X17664128Y6474527D01*
X17680386Y6463664D01*
X17809161Y6357980D01*
X17822980Y6344161D01*
X17928664Y6215386D01*
X17939527Y6199128D01*
X18018055Y6052212D01*
X18025538Y6034148D01*
X18073894Y5874738D01*
X18077709Y5855558D01*
X18094519Y5684883D01*
X18095000Y5675093D01*
X18095000Y4484907D01*
X18094519Y4475117D01*
X18077709Y4304442D01*
X18073894Y4285262D01*
X18025538Y4125852D01*
X18018055Y4107788D01*
X17939527Y3960872D01*
X17928664Y3944614D01*
X17822980Y3815839D01*
X17809161Y3802020D01*
X17680386Y3696336D01*
X17664128Y3685473D01*
X17517212Y3606945D01*
X17499148Y3599462D01*
X17339738Y3551106D01*
X17320558Y3547291D01*
X17154778Y3530963D01*
X17135222Y3530963D01*
X17135222Y300000D01*
X19675222Y300000D01*
X19675222Y3530963D01*
X19509442Y3547291D01*
X19490262Y3551106D01*
X19330852Y3599462D01*
X19312788Y3606945D01*
X19165872Y3685473D01*
X19149614Y3696336D01*
X19020839Y3802020D01*
X19007020Y3815839D01*
X18901336Y3944614D01*
X18890473Y3960872D01*
X18811945Y4107788D01*
X18804462Y4125852D01*
X18756106Y4285262D01*
X18752291Y4304442D01*
X18735481Y4475117D01*
X18735000Y4484907D01*
X18735000Y5675093D01*
X18735481Y5684883D01*
X18752291Y5855558D01*
X18756106Y5874738D01*
X18804462Y6034148D01*
X18811945Y6052212D01*
X18890473Y6199128D01*
X18901336Y6215386D01*
X19007020Y6344161D01*
X19020839Y6357980D01*
X19149614Y6463664D01*
X19165872Y6474527D01*
X19312788Y6553055D01*
X19330852Y6560538D01*
X19490262Y6608894D01*
X19509442Y6612709D01*
X19675222Y6629037D01*
X19675222Y6629037D01*
X19675222Y28930963D01*
X19509442Y28947291D01*
X19490262Y28951106D01*
X19330852Y28999462D01*
X19312788Y29006945D01*
X19165872Y29085473D01*
X19149614Y29096336D01*
X19020839Y29202020D01*
X19007020Y29215839D01*
X18901336Y29344614D01*
X18890473Y29360872D01*
X18811945Y29507788D01*
X18804462Y29525852D01*
X18756106Y29685262D01*
X18752291Y29704442D01*
X18735481Y29875117D01*
X18735000Y29884907D01*
X18735000Y31075093D01*
X18735481Y31084883D01*
X18752291Y31255558D01*
X18756106Y31274738D01*
X18804462Y31434148D01*
X18811945Y31452212D01*
X18890473Y31599128D01*
X18901336Y31615386D01*
X19007020Y31744161D01*
X19020839Y31757980D01*
X19149614Y31863664D01*
X19165872Y31874527D01*
X19312788Y31953055D01*
X19330852Y31960538D01*
X19490262Y32008894D01*
X19509442Y32012709D01*
X19675222Y32029037D01*
X19694778Y32029037D01*
X19860558Y32012709D01*
X19879738Y32008894D01*
X20039148Y31960538D01*
X20057212Y31953055D01*
X20204128Y31874527D01*
X20220386Y31863664D01*
X20349161Y31757980D01*
X20362980Y31744161D01*
X20468664Y31615386D01*
X20479527Y31599128D01*
X20558055Y31452212D01*
X20565538Y31434148D01*
X20613894Y31274738D01*
X20617709Y31255558D01*
X20634519Y31084883D01*
X20635000Y31075093D01*
X20635000Y29884907D01*
X20634519Y29875117D01*
X20617709Y29704442D01*
X20613894Y29685262D01*
X20565538Y29525852D01*
X20558055Y29507788D01*
X20479527Y29360872D01*
X20468664Y29344614D01*
X20362980Y29215839D01*
X20349161Y29202020D01*
X20220386Y29096336D01*
X20204128Y29085473D01*
X20057212Y29006945D01*
X20039148Y28999462D01*
X19879738Y28951106D01*
X19860558Y28947291D01*
X19694778Y28930963D01*
X19675222Y28930963D01*
X19675222Y6629037D01*
X19694778Y6629037D01*
X19860558Y6612709D01*
X19879738Y6608894D01*
X20039148Y6560538D01*
X20057212Y6553055D01*
X20204128Y6474527D01*
X20220386Y6463664D01*
X20349161Y6357980D01*
X20362980Y6344161D01*
X20468664Y6215386D01*
X20479527Y6199128D01*
X20558055Y6052212D01*
X20565538Y6034148D01*
X20613894Y5874738D01*
X20617709Y5855558D01*
X20634519Y5684883D01*
X20635000Y5675093D01*
X20635000Y4484907D01*
X20634519Y4475117D01*
X20617709Y4304442D01*
X20613894Y4285262D01*
X20565538Y4125852D01*
X20558055Y4107788D01*
X20479527Y3960872D01*
X20468664Y3944614D01*
X20362980Y3815839D01*
X20349161Y3802020D01*
X20220386Y3696336D01*
X20204128Y3685473D01*
X20057212Y3606945D01*
X20039148Y3599462D01*
X19879738Y3551106D01*
X19860558Y3547291D01*
X19694778Y3530963D01*
X19675222Y3530963D01*
X19675222Y300000D01*
X22215222Y300000D01*
X22215222Y3530963D01*
X22049442Y3547291D01*
X22030262Y3551106D01*
X21870852Y3599462D01*
X21852788Y3606945D01*
X21705872Y3685473D01*
X21689614Y3696336D01*
X21560839Y3802020D01*
X21547020Y3815839D01*
X21441336Y3944614D01*
X21430473Y3960872D01*
X21351945Y4107788D01*
X21344462Y4125852D01*
X21296106Y4285262D01*
X21292291Y4304442D01*
X21275481Y4475117D01*
X21275000Y4484907D01*
X21275000Y5675093D01*
X21275481Y5684883D01*
X21292291Y5855558D01*
X21296106Y5874738D01*
X21344462Y6034148D01*
X21351945Y6052212D01*
X21430473Y6199128D01*
X21441336Y6215386D01*
X21547020Y6344161D01*
X21560839Y6357980D01*
X21689614Y6463664D01*
X21705872Y6474527D01*
X21852788Y6553055D01*
X21870852Y6560538D01*
X22030262Y6608894D01*
X22049442Y6612709D01*
X22215222Y6629037D01*
X22215222Y6629037D01*
X22215222Y28930963D01*
X22049442Y28947291D01*
X22030262Y28951106D01*
X21870852Y28999462D01*
X21852788Y29006945D01*
X21705872Y29085473D01*
X21689614Y29096336D01*
X21560839Y29202020D01*
X21547020Y29215839D01*
X21441336Y29344614D01*
X21430473Y29360872D01*
X21351945Y29507788D01*
X21344462Y29525852D01*
X21296106Y29685262D01*
X21292291Y29704442D01*
X21275481Y29875117D01*
X21275000Y29884907D01*
X21275000Y31075093D01*
X21275481Y31084883D01*
X21292291Y31255558D01*
X21296106Y31274738D01*
X21344462Y31434148D01*
X21351945Y31452212D01*
X21430473Y31599128D01*
X21441336Y31615386D01*
X21547020Y31744161D01*
X21560839Y31757980D01*
X21689614Y31863664D01*
X21705872Y31874527D01*
X21852788Y31953055D01*
X21870852Y31960538D01*
X22030262Y32008894D01*
X22049442Y32012709D01*
X22215222Y32029037D01*
X22234778Y32029037D01*
X22400558Y32012709D01*
X22419738Y32008894D01*
X22579148Y31960538D01*
X22597212Y31953055D01*
X22744128Y31874527D01*
X22760386Y31863664D01*
X22889161Y31757980D01*
X22902980Y31744161D01*
X23008664Y31615386D01*
X23019527Y31599128D01*
X23098055Y31452212D01*
X23105538Y31434148D01*
X23153894Y31274738D01*
X23157709Y31255558D01*
X23174519Y31084883D01*
X23175000Y31075093D01*
X23175000Y29884907D01*
X23174519Y29875117D01*
X23157709Y29704442D01*
X23153894Y29685262D01*
X23105538Y29525852D01*
X23098055Y29507788D01*
X23019527Y29360872D01*
X23008664Y29344614D01*
X22902980Y29215839D01*
X22889161Y29202020D01*
X22760386Y29096336D01*
X22744128Y29085473D01*
X22597212Y29006945D01*
X22579148Y28999462D01*
X22419738Y28951106D01*
X22400558Y28947291D01*
X22234778Y28930963D01*
X22215222Y28930963D01*
X22215222Y6629037D01*
X22234778Y6629037D01*
X22400558Y6612709D01*
X22419738Y6608894D01*
X22579148Y6560538D01*
X22597212Y6553055D01*
X22744128Y6474527D01*
X22760386Y6463664D01*
X22889161Y6357980D01*
X22902980Y6344161D01*
X23008664Y6215386D01*
X23019527Y6199128D01*
X23098055Y6052212D01*
X23105538Y6034148D01*
X23153894Y5874738D01*
X23157709Y5855558D01*
X23174519Y5684883D01*
X23175000Y5675093D01*
X23175000Y4484907D01*
X23174519Y4475117D01*
X23157709Y4304442D01*
X23153894Y4285262D01*
X23105538Y4125852D01*
X23098055Y4107788D01*
X23019527Y3960872D01*
X23008664Y3944614D01*
X22902980Y3815839D01*
X22889161Y3802020D01*
X22760386Y3696336D01*
X22744128Y3685473D01*
X22597212Y3606945D01*
X22579148Y3599462D01*
X22419738Y3551106D01*
X22400558Y3547291D01*
X22234778Y3530963D01*
X22215222Y3530963D01*
X22215222Y300000D01*
X24755222Y300000D01*
X24755222Y3530963D01*
X24589442Y3547291D01*
X24570262Y3551106D01*
X24410852Y3599462D01*
X24392788Y3606945D01*
X24245872Y3685473D01*
X24229614Y3696336D01*
X24100839Y3802020D01*
X24087020Y3815839D01*
X23981336Y3944614D01*
X23970473Y3960872D01*
X23891945Y4107788D01*
X23884462Y4125852D01*
X23836106Y4285262D01*
X23832291Y4304442D01*
X23815481Y4475117D01*
X23815000Y4484907D01*
X23815000Y5675093D01*
X23815481Y5684883D01*
X23832291Y5855558D01*
X23836106Y5874738D01*
X23884462Y6034148D01*
X23891945Y6052212D01*
X23970473Y6199128D01*
X23981336Y6215386D01*
X24087020Y6344161D01*
X24100839Y6357980D01*
X24229614Y6463664D01*
X24245872Y6474527D01*
X24392788Y6553055D01*
X24410852Y6560538D01*
X24570262Y6608894D01*
X24589442Y6612709D01*
X24755222Y6629037D01*
X24755222Y6629037D01*
X24755222Y28930963D01*
X24589442Y28947291D01*
X24570262Y28951106D01*
X24410852Y28999462D01*
X24392788Y29006945D01*
X24245872Y29085473D01*
X24229614Y29096336D01*
X24100839Y29202020D01*
X24087020Y29215839D01*
X23981336Y29344614D01*
X23970473Y29360872D01*
X23891945Y29507788D01*
X23884462Y29525852D01*
X23836106Y29685262D01*
X23832291Y29704442D01*
X23815481Y29875117D01*
X23815000Y29884907D01*
X23815000Y31075093D01*
X23815481Y31084883D01*
X23832291Y31255558D01*
X23836106Y31274738D01*
X23884462Y31434148D01*
X23891945Y31452212D01*
X23970473Y31599128D01*
X23981336Y31615386D01*
X24087020Y31744161D01*
X24100839Y31757980D01*
X24229614Y31863664D01*
X24245872Y31874527D01*
X24392788Y31953055D01*
X24410852Y31960538D01*
X24570262Y32008894D01*
X24589442Y32012709D01*
X24755222Y32029037D01*
X24774778Y32029037D01*
X24940558Y32012709D01*
X24959738Y32008894D01*
X25119148Y31960538D01*
X25137212Y31953055D01*
X25284128Y31874527D01*
X25300386Y31863664D01*
X25429161Y31757980D01*
X25442980Y31744161D01*
X25548664Y31615386D01*
X25559527Y31599128D01*
X25638055Y31452212D01*
X25645538Y31434148D01*
X25693894Y31274738D01*
X25697709Y31255558D01*
X25714519Y31084883D01*
X25715000Y31075093D01*
X25715000Y29884907D01*
X25714519Y29875117D01*
X25697709Y29704442D01*
X25693894Y29685262D01*
X25645538Y29525852D01*
X25638055Y29507788D01*
X25559527Y29360872D01*
X25548664Y29344614D01*
X25442980Y29215839D01*
X25429161Y29202020D01*
X25300386Y29096336D01*
X25284128Y29085473D01*
X25137212Y29006945D01*
X25119148Y28999462D01*
X24959738Y28951106D01*
X24940558Y28947291D01*
X24774778Y28930963D01*
X24755222Y28930963D01*
X24755222Y6629037D01*
X24774778Y6629037D01*
X24940558Y6612709D01*
X24959738Y6608894D01*
X25119148Y6560538D01*
X25137212Y6553055D01*
X25284128Y6474527D01*
X25300386Y6463664D01*
X25429161Y6357980D01*
X25442980Y6344161D01*
X25548664Y6215386D01*
X25559527Y6199128D01*
X25638055Y6052212D01*
X25645538Y6034148D01*
X25693894Y5874738D01*
X25697709Y5855558D01*
X25714519Y5684883D01*
X25715000Y5675093D01*
X25715000Y4484907D01*
X25714519Y4475117D01*
X25697709Y4304442D01*
X25693894Y4285262D01*
X25645538Y4125852D01*
X25638055Y4107788D01*
X25559527Y3960872D01*
X25548664Y3944614D01*
X25442980Y3815839D01*
X25429161Y3802020D01*
X25300386Y3696336D01*
X25284128Y3685473D01*
X25137212Y3606945D01*
X25119148Y3599462D01*
X24959738Y3551106D01*
X24940558Y3547291D01*
X24774778Y3530963D01*
X24755222Y3530963D01*
X24755222Y300000D01*
X27295222Y300000D01*
X27295222Y3530963D01*
X27129442Y3547291D01*
X27110262Y3551106D01*
X26950852Y3599462D01*
X26932788Y3606945D01*
X26785872Y3685473D01*
X26769614Y3696336D01*
X26640839Y3802020D01*
X26627020Y3815839D01*
X26521336Y3944614D01*
X26510473Y3960872D01*
X26431945Y4107788D01*
X26424462Y4125852D01*
X26376106Y4285262D01*
X26372291Y4304442D01*
X26355481Y4475117D01*
X26355000Y4484907D01*
X26355000Y5675093D01*
X26355481Y5684883D01*
X26372291Y5855558D01*
X26376106Y5874738D01*
X26424462Y6034148D01*
X26431945Y6052212D01*
X26510473Y6199128D01*
X26521336Y6215386D01*
X26627020Y6344161D01*
X26640839Y6357980D01*
X26769614Y6463664D01*
X26785872Y6474527D01*
X26932788Y6553055D01*
X26950852Y6560538D01*
X27110262Y6608894D01*
X27129442Y6612709D01*
X27295222Y6629037D01*
X27295222Y6629037D01*
X27295222Y28930963D01*
X27129442Y28947291D01*
X27110262Y28951106D01*
X26950852Y28999462D01*
X26932788Y29006945D01*
X26785872Y29085473D01*
X26769614Y29096336D01*
X26640839Y29202020D01*
X26627020Y29215839D01*
X26521336Y29344614D01*
X26510473Y29360872D01*
X26431945Y29507788D01*
X26424462Y29525852D01*
X26376106Y29685262D01*
X26372291Y29704442D01*
X26355481Y29875117D01*
X26355000Y29884907D01*
X26355000Y31075093D01*
X26355481Y31084883D01*
X26372291Y31255558D01*
X26376106Y31274738D01*
X26424462Y31434148D01*
X26431945Y31452212D01*
X26510473Y31599128D01*
X26521336Y31615386D01*
X26627020Y31744161D01*
X26640839Y31757980D01*
X26769614Y31863664D01*
X26785872Y31874527D01*
X26932788Y31953055D01*
X26950852Y31960538D01*
X27110262Y32008894D01*
X27129442Y32012709D01*
X27295222Y32029037D01*
X27314778Y32029037D01*
X27480558Y32012709D01*
X27499738Y32008894D01*
X27659148Y31960538D01*
X27677212Y31953055D01*
X27824128Y31874527D01*
X27840386Y31863664D01*
X27969161Y31757980D01*
X27982980Y31744161D01*
X28088664Y31615386D01*
X28099527Y31599128D01*
X28178055Y31452212D01*
X28185538Y31434148D01*
X28233894Y31274738D01*
X28237709Y31255558D01*
X28254519Y31084883D01*
X28255000Y31075093D01*
X28255000Y29884907D01*
X28254519Y29875117D01*
X28237709Y29704442D01*
X28233894Y29685262D01*
X28185538Y29525852D01*
X28178055Y29507788D01*
X28099527Y29360872D01*
X28088664Y29344614D01*
X27982980Y29215839D01*
X27969161Y29202020D01*
X27840386Y29096336D01*
X27824128Y29085473D01*
X27677212Y29006945D01*
X27659148Y28999462D01*
X27499738Y28951106D01*
X27480558Y28947291D01*
X27314778Y28930963D01*
X27295222Y28930963D01*
X27295222Y6629037D01*
X27314778Y6629037D01*
X27480558Y6612709D01*
X27499738Y6608894D01*
X27659148Y6560538D01*
X27677212Y6553055D01*
X27824128Y6474527D01*
X27840386Y6463664D01*
X27969161Y6357980D01*
X27982980Y6344161D01*
X28088664Y6215386D01*
X28099527Y6199128D01*
X28178055Y6052212D01*
X28185538Y6034148D01*
X28233894Y5874738D01*
X28237709Y5855558D01*
X28254519Y5684883D01*
X28255000Y5675093D01*
X28255000Y4484907D01*
X28254519Y4475117D01*
X28237709Y4304442D01*
X28233894Y4285262D01*
X28185538Y4125852D01*
X28178055Y4107788D01*
X28099527Y3960872D01*
X28088664Y3944614D01*
X27982980Y3815839D01*
X27969161Y3802020D01*
X27840386Y3696336D01*
X27824128Y3685473D01*
X27677212Y3606945D01*
X27659148Y3599462D01*
X27499738Y3551106D01*
X27480558Y3547291D01*
X27314778Y3530963D01*
X27295222Y3530963D01*
X27295222Y300000D01*
X29835222Y300000D01*
X29835222Y3530963D01*
X29669442Y3547291D01*
X29650262Y3551106D01*
X29490852Y3599462D01*
X29472788Y3606945D01*
X29325872Y3685473D01*
X29309614Y3696336D01*
X29180839Y3802020D01*
X29167020Y3815839D01*
X29061336Y3944614D01*
X29050473Y3960872D01*
X28971945Y4107788D01*
X28964462Y4125852D01*
X28916106Y4285262D01*
X28912291Y4304442D01*
X28895481Y4475117D01*
X28895000Y4484907D01*
X28895000Y5675093D01*
X28895481Y5684883D01*
X28912291Y5855558D01*
X28916106Y5874738D01*
X28964462Y6034148D01*
X28971945Y6052212D01*
X29050473Y6199128D01*
X29061336Y6215386D01*
X29167020Y6344161D01*
X29180839Y6357980D01*
X29309614Y6463664D01*
X29325872Y6474527D01*
X29472788Y6553055D01*
X29490852Y6560538D01*
X29650262Y6608894D01*
X29669442Y6612709D01*
X29835222Y6629037D01*
X29835222Y6629037D01*
X29835222Y28930963D01*
X29669442Y28947291D01*
X29650262Y28951106D01*
X29490852Y28999462D01*
X29472788Y29006945D01*
X29325872Y29085473D01*
X29309614Y29096336D01*
X29180839Y29202020D01*
X29167020Y29215839D01*
X29061336Y29344614D01*
X29050473Y29360872D01*
X28971945Y29507788D01*
X28964462Y29525852D01*
X28916106Y29685262D01*
X28912291Y29704442D01*
X28895481Y29875117D01*
X28895000Y29884907D01*
X28895000Y31075093D01*
X28895481Y31084883D01*
X28912291Y31255558D01*
X28916106Y31274738D01*
X28964462Y31434148D01*
X28971945Y31452212D01*
X29050473Y31599128D01*
X29061336Y31615386D01*
X29167020Y31744161D01*
X29180839Y31757980D01*
X29309614Y31863664D01*
X29325872Y31874527D01*
X29472788Y31953055D01*
X29490852Y31960538D01*
X29650262Y32008894D01*
X29669442Y32012709D01*
X29835222Y32029037D01*
X29854778Y32029037D01*
X30020558Y32012709D01*
X30039738Y32008894D01*
X30199148Y31960538D01*
X30217212Y31953055D01*
X30364128Y31874527D01*
X30380386Y31863664D01*
X30509161Y31757980D01*
X30522980Y31744161D01*
X30628664Y31615386D01*
X30639527Y31599128D01*
X30718055Y31452212D01*
X30725538Y31434148D01*
X30773894Y31274738D01*
X30777709Y31255558D01*
X30794519Y31084883D01*
X30795000Y31075093D01*
X30795000Y29884907D01*
X30794519Y29875117D01*
X30777709Y29704442D01*
X30773894Y29685262D01*
X30725538Y29525852D01*
X30718055Y29507788D01*
X30639527Y29360872D01*
X30628664Y29344614D01*
X30522980Y29215839D01*
X30509161Y29202020D01*
X30380386Y29096336D01*
X30364128Y29085473D01*
X30217212Y29006945D01*
X30199148Y28999462D01*
X30039738Y28951106D01*
X30020558Y28947291D01*
X29854778Y28930963D01*
X29835222Y28930963D01*
X29835222Y6629037D01*
X29854778Y6629037D01*
X30020558Y6612709D01*
X30039738Y6608894D01*
X30199148Y6560538D01*
X30217212Y6553055D01*
X30364128Y6474527D01*
X30380386Y6463664D01*
X30509161Y6357980D01*
X30522980Y6344161D01*
X30628664Y6215386D01*
X30639527Y6199128D01*
X30718055Y6052212D01*
X30725538Y6034148D01*
X30773894Y5874738D01*
X30777709Y5855558D01*
X30794519Y5684883D01*
X30795000Y5675093D01*
X30795000Y4484907D01*
X30794519Y4475117D01*
X30777709Y4304442D01*
X30773894Y4285262D01*
X30725538Y4125852D01*
X30718055Y4107788D01*
X30639527Y3960872D01*
X30628664Y3944614D01*
X30522980Y3815839D01*
X30509161Y3802020D01*
X30380386Y3696336D01*
X30364128Y3685473D01*
X30217212Y3606945D01*
X30199148Y3599462D01*
X30039738Y3551106D01*
X30020558Y3547291D01*
X29854778Y3530963D01*
X29835222Y3530963D01*
X29835222Y300000D01*
X32375222Y300000D01*
X32375222Y3530963D01*
X32209442Y3547291D01*
X32190262Y3551106D01*
X32030852Y3599462D01*
X32012788Y3606945D01*
X31865872Y3685473D01*
X31849614Y3696336D01*
X31720839Y3802020D01*
X31707020Y3815839D01*
X31601336Y3944614D01*
X31590473Y3960872D01*
X31511945Y4107788D01*
X31504462Y4125852D01*
X31456106Y4285262D01*
X31452291Y4304442D01*
X31435481Y4475117D01*
X31435000Y4484907D01*
X31435000Y5675093D01*
X31435481Y5684883D01*
X31452291Y5855558D01*
X31456106Y5874738D01*
X31504462Y6034148D01*
X31511945Y6052212D01*
X31590473Y6199128D01*
X31601336Y6215386D01*
X31707020Y6344161D01*
X31720839Y6357980D01*
X31849614Y6463664D01*
X31865872Y6474527D01*
X32012788Y6553055D01*
X32030852Y6560538D01*
X32190262Y6608894D01*
X32209442Y6612709D01*
X32375222Y6629037D01*
X32375222Y6629037D01*
X32375222Y28930963D01*
X32209442Y28947291D01*
X32190262Y28951106D01*
X32030852Y28999462D01*
X32012788Y29006945D01*
X31865872Y29085473D01*
X31849614Y29096336D01*
X31720839Y29202020D01*
X31707020Y29215839D01*
X31601336Y29344614D01*
X31590473Y29360872D01*
X31511945Y29507788D01*
X31504462Y29525852D01*
X31456106Y29685262D01*
X31452291Y29704442D01*
X31435481Y29875117D01*
X31435000Y29884907D01*
X31435000Y31075093D01*
X31435481Y31084883D01*
X31452291Y31255558D01*
X31456106Y31274738D01*
X31504462Y31434148D01*
X31511945Y31452212D01*
X31590473Y31599128D01*
X31601336Y31615386D01*
X31707020Y31744161D01*
X31720839Y31757980D01*
X31849614Y31863664D01*
X31865872Y31874527D01*
X32012788Y31953055D01*
X32030852Y31960538D01*
X32190262Y32008894D01*
X32209442Y32012709D01*
X32375222Y32029037D01*
X32394778Y32029037D01*
X32560558Y32012709D01*
X32579738Y32008894D01*
X32739148Y31960538D01*
X32757212Y31953055D01*
X32904128Y31874527D01*
X32920386Y31863664D01*
X33049161Y31757980D01*
X33062980Y31744161D01*
X33168664Y31615386D01*
X33179527Y31599128D01*
X33258055Y31452212D01*
X33265538Y31434148D01*
X33313894Y31274738D01*
X33317709Y31255558D01*
X33334519Y31084883D01*
X33335000Y31075093D01*
X33335000Y29884907D01*
X33334519Y29875117D01*
X33317709Y29704442D01*
X33313894Y29685262D01*
X33265538Y29525852D01*
X33258055Y29507788D01*
X33179527Y29360872D01*
X33168664Y29344614D01*
X33062980Y29215839D01*
X33049161Y29202020D01*
X32920386Y29096336D01*
X32904128Y29085473D01*
X32757212Y29006945D01*
X32739148Y28999462D01*
X32579738Y28951106D01*
X32560558Y28947291D01*
X32394778Y28930963D01*
X32375222Y28930963D01*
X32375222Y6629037D01*
X32394778Y6629037D01*
X32560558Y6612709D01*
X32579738Y6608894D01*
X32739148Y6560538D01*
X32757212Y6553055D01*
X32904128Y6474527D01*
X32920386Y6463664D01*
X33049161Y6357980D01*
X33062980Y6344161D01*
X33168664Y6215386D01*
X33179527Y6199128D01*
X33258055Y6052212D01*
X33265538Y6034148D01*
X33313894Y5874738D01*
X33317709Y5855558D01*
X33334519Y5684883D01*
X33335000Y5675093D01*
X33335000Y4484907D01*
X33334519Y4475117D01*
X33317709Y4304442D01*
X33313894Y4285262D01*
X33265538Y4125852D01*
X33258055Y4107788D01*
X33179527Y3960872D01*
X33168664Y3944614D01*
X33062980Y3815839D01*
X33049161Y3802020D01*
X32920386Y3696336D01*
X32904128Y3685473D01*
X32757212Y3606945D01*
X32739148Y3599462D01*
X32579738Y3551106D01*
X32560558Y3547291D01*
X32394778Y3530963D01*
X32375222Y3530963D01*
X32375222Y300000D01*
X36836550Y300000D01*
X36836550Y720000D01*
X36823507Y720855D01*
X36700647Y737030D01*
X36675538Y743758D01*
X36567114Y788668D01*
X36544598Y801667D01*
X36451929Y872775D01*
X36443178Y881623D01*
X36435975Y886208D01*
X34943136Y2379047D01*
X34867893Y2426360D01*
X34824107Y2436369D01*
X34769261Y2442548D01*
X34747511Y2447512D01*
X34610188Y2495564D01*
X34590078Y2505248D01*
X34466892Y2582651D01*
X34449439Y2596570D01*
X34346570Y2699439D01*
X34332651Y2716892D01*
X34255248Y2840078D01*
X34245564Y2860188D01*
X34197512Y2997511D01*
X34192547Y3019269D01*
X34176258Y3163835D01*
X34176258Y3186165D01*
X34192547Y3330731D01*
X34197512Y3352489D01*
X34245564Y3489812D01*
X34255248Y3509922D01*
X34285264Y3557692D01*
X34314647Y3641577D01*
X34304781Y3729909D01*
X34257336Y3805524D01*
X34247018Y3815841D01*
X34141336Y3944614D01*
X34130473Y3960872D01*
X34051945Y4107788D01*
X34044462Y4125852D01*
X33996106Y4285262D01*
X33992291Y4304442D01*
X33975481Y4475117D01*
X33975000Y4484907D01*
X33975000Y5675093D01*
X33975481Y5684883D01*
X33992291Y5855558D01*
X33996106Y5874738D01*
X34044462Y6034148D01*
X34051945Y6052212D01*
X34130473Y6199128D01*
X34141336Y6215386D01*
X34247020Y6344161D01*
X34260839Y6357980D01*
X34389614Y6463664D01*
X34405872Y6474527D01*
X34552788Y6553055D01*
X34570852Y6560538D01*
X34730262Y6608894D01*
X34749442Y6612709D01*
X34915222Y6629037D01*
X34915222Y6629037D01*
X34915222Y28930963D01*
X34749442Y28947291D01*
X34730262Y28951106D01*
X34570852Y28999462D01*
X34552788Y29006945D01*
X34405872Y29085473D01*
X34389614Y29096336D01*
X34260839Y29202020D01*
X34247020Y29215839D01*
X34141336Y29344614D01*
X34130473Y29360872D01*
X34051945Y29507788D01*
X34044462Y29525852D01*
X33996106Y29685262D01*
X33992291Y29704442D01*
X33975481Y29875117D01*
X33975000Y29884907D01*
X33975000Y31075093D01*
X33975481Y31084883D01*
X33992291Y31255558D01*
X33996106Y31274738D01*
X34044462Y31434148D01*
X34051945Y31452212D01*
X34130473Y31599128D01*
X34141336Y31615386D01*
X34247020Y31744161D01*
X34260839Y31757980D01*
X34389614Y31863664D01*
X34405872Y31874527D01*
X34552788Y31953055D01*
X34570852Y31960538D01*
X34730262Y32008894D01*
X34749442Y32012709D01*
X34915222Y32029037D01*
X34934778Y32029037D01*
X35100558Y32012709D01*
X35119738Y32008894D01*
X35279148Y31960538D01*
X35297212Y31953055D01*
X35444128Y31874527D01*
X35460386Y31863664D01*
X35589161Y31757980D01*
X35602980Y31744161D01*
X35708664Y31615386D01*
X35719527Y31599128D01*
X35798055Y31452212D01*
X35805538Y31434148D01*
X35853894Y31274738D01*
X35857709Y31255558D01*
X35874519Y31084883D01*
X35875000Y31075093D01*
X35875000Y29884907D01*
X35874519Y29875117D01*
X35857709Y29704442D01*
X35853894Y29685262D01*
X35805538Y29525852D01*
X35798055Y29507788D01*
X35719527Y29360872D01*
X35708664Y29344614D01*
X35602980Y29215839D01*
X35589161Y29202020D01*
X35460386Y29096336D01*
X35444128Y29085473D01*
X35297212Y29006945D01*
X35279148Y28999462D01*
X35119738Y28951106D01*
X35100558Y28947291D01*
X34934778Y28930963D01*
X34915222Y28930963D01*
X34915222Y6629037D01*
X34934778Y6629037D01*
X35100558Y6612709D01*
X35119738Y6608894D01*
X35279148Y6560538D01*
X35297212Y6553055D01*
X35444128Y6474527D01*
X35460386Y6463664D01*
X35589161Y6357980D01*
X35602980Y6344161D01*
X35708664Y6215386D01*
X35719527Y6199128D01*
X35798055Y6052212D01*
X35805538Y6034148D01*
X35853894Y5874738D01*
X35857709Y5855558D01*
X35874519Y5684883D01*
X35875000Y5675093D01*
X35875000Y4484907D01*
X35874519Y4475117D01*
X35857709Y4304442D01*
X35853894Y4285262D01*
X35805538Y4125852D01*
X35798055Y4107788D01*
X35719527Y3960872D01*
X35708664Y3944614D01*
X35602982Y3815841D01*
X35592664Y3805524D01*
X35545349Y3730283D01*
X35535309Y3641970D01*
X35564736Y3557692D01*
X35594752Y3509922D01*
X35604436Y3489812D01*
X35652488Y3352489D01*
X35657452Y3330739D01*
X35663631Y3275893D01*
X35692960Y3191989D01*
X35720953Y3156864D01*
X36999238Y1878579D01*
X37074481Y1831266D01*
X37140659Y1820000D01*
X37455222Y1820000D01*
X37455222Y3530963D01*
X37289442Y3547291D01*
X37270262Y3551106D01*
X37110852Y3599462D01*
X37092788Y3606945D01*
X36945872Y3685473D01*
X36929614Y3696336D01*
X36800839Y3802020D01*
X36787020Y3815839D01*
X36681336Y3944614D01*
X36670473Y3960872D01*
X36591945Y4107788D01*
X36584462Y4125852D01*
X36536106Y4285262D01*
X36532291Y4304442D01*
X36515481Y4475117D01*
X36515000Y4484907D01*
X36515000Y5675093D01*
X36515481Y5684883D01*
X36532291Y5855558D01*
X36536106Y5874738D01*
X36584462Y6034148D01*
X36591945Y6052212D01*
X36670473Y6199128D01*
X36681336Y6215386D01*
X36787020Y6344161D01*
X36800839Y6357980D01*
X36929614Y6463664D01*
X36945872Y6474527D01*
X37092788Y6553055D01*
X37110852Y6560538D01*
X37270262Y6608894D01*
X37289442Y6612709D01*
X37453835Y6628900D01*
X37453835Y24651258D01*
X37309269Y24667547D01*
X37287511Y24672512D01*
X37150188Y24720564D01*
X37130078Y24730248D01*
X37006892Y24807651D01*
X36989439Y24821570D01*
X36886570Y24924439D01*
X36872651Y24941892D01*
X36795248Y25065078D01*
X36785564Y25085188D01*
X36737512Y25222511D01*
X36732547Y25244269D01*
X36716258Y25388835D01*
X36716258Y25411165D01*
X36732547Y25555731D01*
X36737512Y25577489D01*
X36785564Y25714812D01*
X36795248Y25734922D01*
X36872651Y25858108D01*
X36886570Y25875561D01*
X36989439Y25978430D01*
X37006892Y25992349D01*
X37130078Y26069752D01*
X37150188Y26079436D01*
X37287511Y26127488D01*
X37309269Y26132453D01*
X37453835Y26148742D01*
X37455222Y26148742D01*
X37455222Y28930963D01*
X37289442Y28947291D01*
X37270262Y28951106D01*
X37110852Y28999462D01*
X37092788Y29006945D01*
X36945872Y29085473D01*
X36929614Y29096336D01*
X36800839Y29202020D01*
X36787020Y29215839D01*
X36681336Y29344614D01*
X36670473Y29360872D01*
X36591945Y29507788D01*
X36584462Y29525852D01*
X36536106Y29685262D01*
X36532291Y29704442D01*
X36515481Y29875117D01*
X36515000Y29884907D01*
X36515000Y31075093D01*
X36515481Y31084883D01*
X36532291Y31255558D01*
X36536106Y31274738D01*
X36584462Y31434148D01*
X36591945Y31452212D01*
X36670473Y31599128D01*
X36681336Y31615386D01*
X36787020Y31744161D01*
X36800839Y31757980D01*
X36929614Y31863664D01*
X36945872Y31874527D01*
X37092788Y31953055D01*
X37110852Y31960538D01*
X37270262Y32008894D01*
X37289442Y32012709D01*
X37455222Y32029037D01*
X37474778Y32029037D01*
X37640558Y32012709D01*
X37659738Y32008894D01*
X37819148Y31960538D01*
X37837212Y31953055D01*
X37984128Y31874527D01*
X38000386Y31863664D01*
X38129161Y31757980D01*
X38142980Y31744161D01*
X38248664Y31615386D01*
X38259527Y31599128D01*
X38338055Y31452212D01*
X38345538Y31434148D01*
X38393894Y31274738D01*
X38397709Y31255558D01*
X38414519Y31084883D01*
X38415000Y31075093D01*
X38415000Y29884907D01*
X38414519Y29875117D01*
X38397709Y29704442D01*
X38393894Y29685262D01*
X38345538Y29525852D01*
X38338055Y29507788D01*
X38259527Y29360872D01*
X38248664Y29344614D01*
X38142980Y29215839D01*
X38129161Y29202020D01*
X38000386Y29096336D01*
X37984128Y29085473D01*
X37837212Y29006945D01*
X37819148Y28999462D01*
X37659738Y28951106D01*
X37640558Y28947291D01*
X37474778Y28930963D01*
X37455222Y28930963D01*
X37455222Y26148742D01*
X37476165Y26148742D01*
X37620731Y26132453D01*
X37642489Y26127488D01*
X37779812Y26079436D01*
X37799922Y26069752D01*
X37932617Y25986374D01*
X37933534Y25987833D01*
X38001559Y25955045D01*
X38046195Y25950000D01*
X39995222Y25950000D01*
X39995222Y28930963D01*
X39829442Y28947291D01*
X39810262Y28951106D01*
X39650852Y28999462D01*
X39632788Y29006945D01*
X39485872Y29085473D01*
X39469614Y29096336D01*
X39340839Y29202020D01*
X39327020Y29215839D01*
X39221336Y29344614D01*
X39210473Y29360872D01*
X39131945Y29507788D01*
X39124462Y29525852D01*
X39076106Y29685262D01*
X39072291Y29704442D01*
X39055481Y29875117D01*
X39055000Y29884907D01*
X39055000Y31075093D01*
X39055481Y31084883D01*
X39072291Y31255558D01*
X39076106Y31274738D01*
X39124462Y31434148D01*
X39131945Y31452212D01*
X39210473Y31599128D01*
X39221336Y31615386D01*
X39327020Y31744161D01*
X39340839Y31757980D01*
X39469614Y31863664D01*
X39485872Y31874527D01*
X39632788Y31953055D01*
X39650852Y31960538D01*
X39810262Y32008894D01*
X39829442Y32012709D01*
X39995222Y32029037D01*
X40014778Y32029037D01*
X40180558Y32012709D01*
X40199738Y32008894D01*
X40359148Y31960538D01*
X40377212Y31953055D01*
X40524128Y31874527D01*
X40540386Y31863664D01*
X40669161Y31757980D01*
X40682980Y31744161D01*
X40788664Y31615386D01*
X40799527Y31599128D01*
X40878055Y31452212D01*
X40885538Y31434148D01*
X40933894Y31274738D01*
X40937709Y31255558D01*
X40954519Y31084883D01*
X40955000Y31075093D01*
X40955000Y29884907D01*
X40954519Y29875117D01*
X40937709Y29704442D01*
X40933894Y29685262D01*
X40885538Y29525852D01*
X40878055Y29507788D01*
X40799527Y29360872D01*
X40788664Y29344614D01*
X40682980Y29215839D01*
X40669161Y29202020D01*
X40540386Y29096336D01*
X40524128Y29085473D01*
X40377212Y29006945D01*
X40359148Y28999462D01*
X40199738Y28951106D01*
X40180558Y28947291D01*
X40014778Y28930963D01*
X39995222Y28930963D01*
X39995222Y25950000D01*
X41120335Y25950000D01*
X41206995Y25969750D01*
X41276539Y26025099D01*
X41315234Y26105117D01*
X41315435Y26193998D01*
X41289680Y26256406D01*
X41240250Y26335073D01*
X41230564Y26355188D01*
X41182512Y26492511D01*
X41177547Y26514269D01*
X41161258Y26658835D01*
X41161258Y26681165D01*
X41177547Y26825731D01*
X41182512Y26847489D01*
X41230564Y26984812D01*
X41240248Y27004922D01*
X41317651Y27128108D01*
X41331570Y27145561D01*
X41434439Y27248430D01*
X41451892Y27262349D01*
X41575078Y27339752D01*
X41595188Y27349436D01*
X41732511Y27397488D01*
X41754269Y27402453D01*
X41898835Y27418742D01*
X41921165Y27418742D01*
X42065731Y27402453D01*
X42087489Y27397488D01*
X42224812Y27349436D01*
X42244922Y27339752D01*
X42377617Y27256374D01*
X42378534Y27257833D01*
X42446559Y27225045D01*
X42491195Y27220000D01*
X42535222Y27220000D01*
X42535222Y28930963D01*
X42369442Y28947291D01*
X42350262Y28951106D01*
X42190852Y28999462D01*
X42172788Y29006945D01*
X42025872Y29085473D01*
X42009614Y29096336D01*
X41880839Y29202020D01*
X41867020Y29215839D01*
X41761336Y29344614D01*
X41750473Y29360872D01*
X41671945Y29507788D01*
X41664462Y29525852D01*
X41616106Y29685262D01*
X41612291Y29704442D01*
X41595481Y29875117D01*
X41595000Y29884907D01*
X41595000Y31075093D01*
X41595481Y31084883D01*
X41612291Y31255558D01*
X41616106Y31274738D01*
X41664462Y31434148D01*
X41671945Y31452212D01*
X41750473Y31599128D01*
X41761336Y31615386D01*
X41867020Y31744161D01*
X41880839Y31757980D01*
X42009614Y31863664D01*
X42025872Y31874527D01*
X42172788Y31953055D01*
X42190852Y31960538D01*
X42350262Y32008894D01*
X42369442Y32012709D01*
X42535222Y32029037D01*
X42554778Y32029037D01*
X42720558Y32012709D01*
X42739738Y32008894D01*
X42899148Y31960538D01*
X42917212Y31953055D01*
X43064128Y31874527D01*
X43080386Y31863664D01*
X43209161Y31757980D01*
X43222980Y31744161D01*
X43328664Y31615386D01*
X43339527Y31599128D01*
X43418055Y31452212D01*
X43425538Y31434148D01*
X43473894Y31274738D01*
X43477709Y31255558D01*
X43494519Y31084883D01*
X43495000Y31075093D01*
X43495000Y29884907D01*
X43494519Y29875117D01*
X43477709Y29704442D01*
X43473894Y29685262D01*
X43425538Y29525852D01*
X43418055Y29507788D01*
X43339527Y29360872D01*
X43328664Y29344614D01*
X43222980Y29215839D01*
X43209161Y29202020D01*
X43080386Y29096336D01*
X43064128Y29085473D01*
X42917212Y29006945D01*
X42899148Y28999462D01*
X42739738Y28951106D01*
X42720558Y28947291D01*
X42554778Y28930963D01*
X42535222Y28930963D01*
X42535222Y27220000D01*
X45075222Y27220000D01*
X45075222Y28930963D01*
X44909442Y28947291D01*
X44890262Y28951106D01*
X44730852Y28999462D01*
X44712788Y29006945D01*
X44565872Y29085473D01*
X44549614Y29096336D01*
X44420839Y29202020D01*
X44407020Y29215839D01*
X44301336Y29344614D01*
X44290473Y29360872D01*
X44211945Y29507788D01*
X44204462Y29525852D01*
X44156106Y29685262D01*
X44152291Y29704442D01*
X44135481Y29875117D01*
X44135000Y29884907D01*
X44135000Y31075093D01*
X44135481Y31084883D01*
X44152291Y31255558D01*
X44156106Y31274738D01*
X44204462Y31434148D01*
X44211945Y31452212D01*
X44290473Y31599128D01*
X44301336Y31615386D01*
X44407020Y31744161D01*
X44420839Y31757980D01*
X44549614Y31863664D01*
X44565872Y31874527D01*
X44712788Y31953055D01*
X44730852Y31960538D01*
X44890262Y32008894D01*
X44909442Y32012709D01*
X45075222Y32029037D01*
X45094778Y32029037D01*
X45260558Y32012709D01*
X45279738Y32008894D01*
X45439148Y31960538D01*
X45457212Y31953055D01*
X45604128Y31874527D01*
X45620386Y31863664D01*
X45749161Y31757980D01*
X45762980Y31744161D01*
X45868664Y31615386D01*
X45879527Y31599128D01*
X45958055Y31452212D01*
X45965538Y31434148D01*
X46013894Y31274738D01*
X46017709Y31255558D01*
X46034519Y31084883D01*
X46035000Y31075093D01*
X46035000Y29884907D01*
X46034519Y29875117D01*
X46017709Y29704442D01*
X46013894Y29685262D01*
X45965538Y29525852D01*
X45958055Y29507788D01*
X45879527Y29360872D01*
X45868664Y29344614D01*
X45762980Y29215839D01*
X45749161Y29202020D01*
X45620386Y29096336D01*
X45604128Y29085473D01*
X45457212Y29006945D01*
X45439148Y28999462D01*
X45279738Y28951106D01*
X45260558Y28947291D01*
X45094778Y28930963D01*
X45075222Y28930963D01*
X45075222Y27220000D01*
X47615222Y27220000D01*
X47615222Y28930963D01*
X47449442Y28947291D01*
X47430262Y28951106D01*
X47270852Y28999462D01*
X47252788Y29006945D01*
X47105872Y29085473D01*
X47089614Y29096336D01*
X46960839Y29202020D01*
X46947020Y29215839D01*
X46841336Y29344614D01*
X46830473Y29360872D01*
X46751945Y29507788D01*
X46744462Y29525852D01*
X46696106Y29685262D01*
X46692291Y29704442D01*
X46675481Y29875117D01*
X46675000Y29884907D01*
X46675000Y31075093D01*
X46675481Y31084883D01*
X46692291Y31255558D01*
X46696106Y31274738D01*
X46744462Y31434148D01*
X46751945Y31452212D01*
X46830473Y31599128D01*
X46841336Y31615386D01*
X46947020Y31744161D01*
X46960839Y31757980D01*
X47089614Y31863664D01*
X47105872Y31874527D01*
X47252788Y31953055D01*
X47270852Y31960538D01*
X47430262Y32008894D01*
X47449442Y32012709D01*
X47615222Y32029037D01*
X47634778Y32029037D01*
X47800558Y32012709D01*
X47819738Y32008894D01*
X47979148Y31960538D01*
X47997212Y31953055D01*
X48144128Y31874527D01*
X48160386Y31863664D01*
X48289161Y31757980D01*
X48302980Y31744161D01*
X48408664Y31615386D01*
X48419527Y31599128D01*
X48498055Y31452212D01*
X48505538Y31434148D01*
X48553894Y31274738D01*
X48557709Y31255558D01*
X48574519Y31084883D01*
X48575000Y31075093D01*
X48575000Y29884907D01*
X48574519Y29875117D01*
X48557709Y29704442D01*
X48553894Y29685262D01*
X48505538Y29525852D01*
X48498055Y29507788D01*
X48419527Y29360872D01*
X48408664Y29344614D01*
X48302980Y29215839D01*
X48289161Y29202020D01*
X48160386Y29096336D01*
X48144128Y29085473D01*
X47997212Y29006945D01*
X47979148Y28999462D01*
X47819738Y28951106D01*
X47800558Y28947291D01*
X47634778Y28930963D01*
X47615222Y28930963D01*
X47615222Y27220000D01*
X50155222Y27220000D01*
X50155222Y28930963D01*
X49989442Y28947291D01*
X49970262Y28951106D01*
X49810852Y28999462D01*
X49792788Y29006945D01*
X49645872Y29085473D01*
X49629614Y29096336D01*
X49500839Y29202020D01*
X49487020Y29215839D01*
X49381336Y29344614D01*
X49370473Y29360872D01*
X49291945Y29507788D01*
X49284462Y29525852D01*
X49236106Y29685262D01*
X49232291Y29704442D01*
X49215481Y29875117D01*
X49215000Y29884907D01*
X49215000Y31075093D01*
X49215481Y31084883D01*
X49232291Y31255558D01*
X49236106Y31274738D01*
X49284462Y31434148D01*
X49291945Y31452212D01*
X49370473Y31599128D01*
X49381336Y31615386D01*
X49487020Y31744161D01*
X49500839Y31757980D01*
X49629614Y31863664D01*
X49645872Y31874527D01*
X49792788Y31953055D01*
X49810852Y31960538D01*
X49970262Y32008894D01*
X49989442Y32012709D01*
X50155222Y32029037D01*
X50174778Y32029037D01*
X50340558Y32012709D01*
X50359738Y32008894D01*
X50519148Y31960538D01*
X50537212Y31953055D01*
X50684128Y31874527D01*
X50700386Y31863664D01*
X50829161Y31757980D01*
X50842980Y31744161D01*
X50948664Y31615386D01*
X50959527Y31599128D01*
X51038055Y31452212D01*
X51045538Y31434148D01*
X51093894Y31274738D01*
X51097709Y31255558D01*
X51114519Y31084883D01*
X51115000Y31075093D01*
X51115000Y29884907D01*
X51114519Y29875117D01*
X51097709Y29704442D01*
X51093894Y29685262D01*
X51045538Y29525852D01*
X51038055Y29507788D01*
X50959527Y29360872D01*
X50948664Y29344614D01*
X50842980Y29215839D01*
X50829161Y29202020D01*
X50700386Y29096336D01*
X50684128Y29085473D01*
X50537212Y29006945D01*
X50519148Y28999462D01*
X50359738Y28951106D01*
X50340558Y28947291D01*
X50174778Y28930963D01*
X50155222Y28930963D01*
X50155222Y27220000D01*
X52695222Y27220000D01*
X52695222Y28930963D01*
X52529442Y28947291D01*
X52510262Y28951106D01*
X52350852Y28999462D01*
X52332788Y29006945D01*
X52185872Y29085473D01*
X52169614Y29096336D01*
X52040839Y29202020D01*
X52027020Y29215839D01*
X51921336Y29344614D01*
X51910473Y29360872D01*
X51831945Y29507788D01*
X51824462Y29525852D01*
X51776106Y29685262D01*
X51772291Y29704442D01*
X51755481Y29875117D01*
X51755000Y29884907D01*
X51755000Y31075093D01*
X51755481Y31084883D01*
X51772291Y31255558D01*
X51776106Y31274738D01*
X51824462Y31434148D01*
X51831945Y31452212D01*
X51910473Y31599128D01*
X51921336Y31615386D01*
X52027020Y31744161D01*
X52040839Y31757980D01*
X52169614Y31863664D01*
X52185872Y31874527D01*
X52332788Y31953055D01*
X52350852Y31960538D01*
X52510262Y32008894D01*
X52529442Y32012709D01*
X52695222Y32029037D01*
X52714778Y32029037D01*
X52880558Y32012709D01*
X52899738Y32008894D01*
X53059148Y31960538D01*
X53077212Y31953055D01*
X53224128Y31874527D01*
X53240386Y31863664D01*
X53369161Y31757980D01*
X53382980Y31744161D01*
X53488664Y31615386D01*
X53499527Y31599128D01*
X53578055Y31452212D01*
X53585538Y31434148D01*
X53633894Y31274738D01*
X53637709Y31255558D01*
X53654519Y31084883D01*
X53655000Y31075093D01*
X53655000Y29884907D01*
X53654519Y29875117D01*
X53637709Y29704442D01*
X53633894Y29685262D01*
X53585538Y29525852D01*
X53578055Y29507788D01*
X53499527Y29360872D01*
X53488664Y29344614D01*
X53382980Y29215839D01*
X53369161Y29202020D01*
X53240386Y29096336D01*
X53224128Y29085473D01*
X53077212Y29006945D01*
X53059148Y28999462D01*
X52899738Y28951106D01*
X52880558Y28947291D01*
X52714778Y28930963D01*
X52695222Y28930963D01*
X52695222Y27220000D01*
X55235222Y27220000D01*
X55235222Y28930963D01*
X55069442Y28947291D01*
X55050262Y28951106D01*
X54890852Y28999462D01*
X54872788Y29006945D01*
X54725872Y29085473D01*
X54709614Y29096336D01*
X54580839Y29202020D01*
X54567020Y29215839D01*
X54461336Y29344614D01*
X54450473Y29360872D01*
X54371945Y29507788D01*
X54364462Y29525852D01*
X54316106Y29685262D01*
X54312291Y29704442D01*
X54295481Y29875117D01*
X54295000Y29884907D01*
X54295000Y31075093D01*
X54295481Y31084883D01*
X54312291Y31255558D01*
X54316106Y31274738D01*
X54364462Y31434148D01*
X54371945Y31452212D01*
X54450473Y31599128D01*
X54461336Y31615386D01*
X54567020Y31744161D01*
X54580839Y31757980D01*
X54709614Y31863664D01*
X54725872Y31874527D01*
X54872788Y31953055D01*
X54890852Y31960538D01*
X55050262Y32008894D01*
X55069442Y32012709D01*
X55235222Y32029037D01*
X55254778Y32029037D01*
X55420558Y32012709D01*
X55439738Y32008894D01*
X55599148Y31960538D01*
X55617212Y31953055D01*
X55764128Y31874527D01*
X55780386Y31863664D01*
X55909161Y31757980D01*
X55922980Y31744161D01*
X56028664Y31615386D01*
X56039527Y31599128D01*
X56118055Y31452212D01*
X56125538Y31434148D01*
X56173894Y31274738D01*
X56177709Y31255558D01*
X56194519Y31084883D01*
X56195000Y31075093D01*
X56195000Y29884907D01*
X56194519Y29875117D01*
X56177709Y29704442D01*
X56173894Y29685262D01*
X56125538Y29525852D01*
X56118055Y29507788D01*
X56039527Y29360872D01*
X56028664Y29344614D01*
X55922980Y29215839D01*
X55909161Y29202020D01*
X55780386Y29096336D01*
X55764128Y29085473D01*
X55617212Y29006945D01*
X55599148Y28999462D01*
X55439738Y28951106D01*
X55420558Y28947291D01*
X55254778Y28930963D01*
X55235222Y28930963D01*
X55235222Y27220000D01*
X57775222Y27220000D01*
X57775222Y28930963D01*
X57609442Y28947291D01*
X57590262Y28951106D01*
X57430852Y28999462D01*
X57412788Y29006945D01*
X57265872Y29085473D01*
X57249614Y29096336D01*
X57120839Y29202020D01*
X57107020Y29215839D01*
X57001336Y29344614D01*
X56990473Y29360872D01*
X56911945Y29507788D01*
X56904462Y29525852D01*
X56856106Y29685262D01*
X56852291Y29704442D01*
X56835481Y29875117D01*
X56835000Y29884907D01*
X56835000Y31075093D01*
X56835481Y31084883D01*
X56852291Y31255558D01*
X56856106Y31274738D01*
X56904462Y31434148D01*
X56911945Y31452212D01*
X56990473Y31599128D01*
X57001336Y31615386D01*
X57107020Y31744161D01*
X57120839Y31757980D01*
X57249614Y31863664D01*
X57265872Y31874527D01*
X57412788Y31953055D01*
X57430852Y31960538D01*
X57590262Y32008894D01*
X57609442Y32012709D01*
X57775222Y32029037D01*
X57794778Y32029037D01*
X57960558Y32012709D01*
X57979738Y32008894D01*
X58139148Y31960538D01*
X58157212Y31953055D01*
X58304128Y31874527D01*
X58320386Y31863664D01*
X58449161Y31757980D01*
X58462980Y31744161D01*
X58568664Y31615386D01*
X58579527Y31599128D01*
X58658055Y31452212D01*
X58665538Y31434148D01*
X58713894Y31274738D01*
X58717709Y31255558D01*
X58734519Y31084883D01*
X58735000Y31075093D01*
X58735000Y29884907D01*
X58734519Y29875117D01*
X58717709Y29704442D01*
X58713894Y29685262D01*
X58665538Y29525852D01*
X58658055Y29507788D01*
X58579527Y29360872D01*
X58568664Y29344614D01*
X58462980Y29215839D01*
X58449161Y29202020D01*
X58320386Y29096336D01*
X58304128Y29085473D01*
X58157212Y29006945D01*
X58139148Y28999462D01*
X57979738Y28951106D01*
X57960558Y28947291D01*
X57794778Y28930963D01*
X57775222Y28930963D01*
X57775222Y27220000D01*
X57838805Y27220000D01*
X57925465Y27239750D01*
X57952258Y27256573D01*
X57952383Y27256374D01*
X58085078Y27339752D01*
X58105188Y27349436D01*
X58242511Y27397488D01*
X58264269Y27402453D01*
X58408835Y27418742D01*
X58431165Y27418742D01*
X58575731Y27402453D01*
X58597489Y27397488D01*
X58734812Y27349436D01*
X58754922Y27339752D01*
X58878108Y27262349D01*
X58895561Y27248430D01*
X58998430Y27145561D01*
X59012349Y27128108D01*
X59089752Y27004922D01*
X59099436Y26984812D01*
X59147488Y26847489D01*
X59152453Y26825731D01*
X59168742Y26681165D01*
X59168742Y26658835D01*
X59152453Y26514269D01*
X59147488Y26492511D01*
X59099436Y26355188D01*
X59089752Y26335078D01*
X59012349Y26211892D01*
X58998430Y26194439D01*
X58895561Y26091570D01*
X58878108Y26077651D01*
X58754922Y26000248D01*
X58734812Y25990564D01*
X58597489Y25942512D01*
X58575731Y25937547D01*
X58431165Y25921258D01*
X58408835Y25921258D01*
X58264269Y25937547D01*
X58242511Y25942512D01*
X58105188Y25990564D01*
X58085078Y26000248D01*
X57952383Y26083626D01*
X57951466Y26082167D01*
X57883441Y26114955D01*
X57838805Y26120000D01*
X57304665Y26120000D01*
X57218005Y26100250D01*
X57148461Y26044901D01*
X57109766Y25964883D01*
X57109565Y25876002D01*
X57135320Y25813594D01*
X57184750Y25734927D01*
X57194436Y25714812D01*
X57242488Y25577489D01*
X57247453Y25555731D01*
X57263742Y25411165D01*
X57263742Y25388835D01*
X57247453Y25244269D01*
X57242488Y25222511D01*
X57194436Y25085188D01*
X57184752Y25065078D01*
X57107349Y24941892D01*
X57093430Y24924439D01*
X56990561Y24821570D01*
X56973108Y24807651D01*
X56849922Y24730248D01*
X56829812Y24720564D01*
X56692489Y24672512D01*
X56670731Y24667547D01*
X56526165Y24651258D01*
X56503835Y24651258D01*
X56359269Y24667547D01*
X56337511Y24672512D01*
X56200188Y24720564D01*
X56180078Y24730248D01*
X56047383Y24813626D01*
X56046466Y24812167D01*
X55978441Y24844955D01*
X55933805Y24850000D01*
X38046195Y24850000D01*
X37959535Y24830250D01*
X37932742Y24813427D01*
X37932617Y24813626D01*
X37799922Y24730248D01*
X37779812Y24720564D01*
X37642489Y24672512D01*
X37620731Y24667547D01*
X37476165Y24651258D01*
X37453835Y24651258D01*
X37453835Y6628900D01*
X37455222Y6629037D01*
X37474778Y6629037D01*
X37640558Y6612709D01*
X37659738Y6608894D01*
X37819148Y6560538D01*
X37837212Y6553055D01*
X37984128Y6474527D01*
X38000386Y6463664D01*
X38129161Y6357980D01*
X38142980Y6344161D01*
X38248664Y6215386D01*
X38259527Y6199128D01*
X38338055Y6052212D01*
X38345538Y6034148D01*
X38393894Y5874738D01*
X38397709Y5855558D01*
X38414519Y5684883D01*
X38415000Y5675093D01*
X38415000Y4484907D01*
X38414519Y4475117D01*
X38397709Y4304442D01*
X38393894Y4285262D01*
X38345538Y4125852D01*
X38338055Y4107788D01*
X38259527Y3960872D01*
X38248664Y3944614D01*
X38142980Y3815839D01*
X38129161Y3802020D01*
X38000386Y3696336D01*
X37984128Y3685473D01*
X37837212Y3606945D01*
X37819148Y3599462D01*
X37659738Y3551106D01*
X37640558Y3547291D01*
X37474778Y3530963D01*
X37455222Y3530963D01*
X37455222Y1820000D01*
X39995222Y1820000D01*
X39995222Y3530963D01*
X39829442Y3547291D01*
X39810262Y3551106D01*
X39650852Y3599462D01*
X39632788Y3606945D01*
X39485872Y3685473D01*
X39469614Y3696336D01*
X39340839Y3802020D01*
X39327020Y3815839D01*
X39221336Y3944614D01*
X39210473Y3960872D01*
X39131945Y4107788D01*
X39124462Y4125852D01*
X39076106Y4285262D01*
X39072291Y4304442D01*
X39055481Y4475117D01*
X39055000Y4484907D01*
X39055000Y5675093D01*
X39055481Y5684883D01*
X39072291Y5855558D01*
X39076106Y5874738D01*
X39124462Y6034148D01*
X39131945Y6052212D01*
X39210473Y6199128D01*
X39221336Y6215386D01*
X39327020Y6344161D01*
X39340839Y6357980D01*
X39469614Y6463664D01*
X39485872Y6474527D01*
X39632788Y6553055D01*
X39650852Y6560538D01*
X39810262Y6608894D01*
X39829442Y6612709D01*
X39995222Y6629037D01*
X40014778Y6629037D01*
X40180558Y6612709D01*
X40199738Y6608894D01*
X40359148Y6560538D01*
X40377212Y6553055D01*
X40524128Y6474527D01*
X40540386Y6463664D01*
X40669161Y6357980D01*
X40682980Y6344161D01*
X40788664Y6215386D01*
X40799527Y6199128D01*
X40878055Y6052212D01*
X40885538Y6034148D01*
X40933894Y5874738D01*
X40937709Y5855558D01*
X40954519Y5684883D01*
X40955000Y5675093D01*
X40955000Y4484907D01*
X40954519Y4475117D01*
X40937709Y4304442D01*
X40933894Y4285262D01*
X40885538Y4125852D01*
X40878055Y4107788D01*
X40799527Y3960872D01*
X40788664Y3944614D01*
X40682980Y3815839D01*
X40669161Y3802020D01*
X40540386Y3696336D01*
X40524128Y3685473D01*
X40377212Y3606945D01*
X40359148Y3599462D01*
X40199738Y3551106D01*
X40180558Y3547291D01*
X40014778Y3530963D01*
X39995222Y3530963D01*
X39995222Y1820000D01*
X42639341Y1820000D01*
X42726001Y1839750D01*
X42795545Y1895099D01*
X42834240Y1975117D01*
X42834441Y2063998D01*
X42780762Y2161421D01*
X42563136Y2379047D01*
X42487893Y2426360D01*
X42444107Y2436369D01*
X42389261Y2442548D01*
X42367511Y2447512D01*
X42230188Y2495564D01*
X42210078Y2505248D01*
X42086892Y2582651D01*
X42069439Y2596570D01*
X41966570Y2699439D01*
X41952651Y2716892D01*
X41875248Y2840078D01*
X41865564Y2860188D01*
X41817512Y2997511D01*
X41812547Y3019269D01*
X41796258Y3163835D01*
X41796258Y3186165D01*
X41812547Y3330731D01*
X41817512Y3352489D01*
X41865564Y3489812D01*
X41875248Y3509922D01*
X41905264Y3557692D01*
X41934647Y3641577D01*
X41924781Y3729909D01*
X41877336Y3805524D01*
X41867018Y3815841D01*
X41761336Y3944614D01*
X41750473Y3960872D01*
X41671945Y4107788D01*
X41664462Y4125852D01*
X41616106Y4285262D01*
X41612291Y4304442D01*
X41595481Y4475117D01*
X41595000Y4484907D01*
X41595000Y5675093D01*
X41595481Y5684883D01*
X41612291Y5855558D01*
X41616106Y5874738D01*
X41664462Y6034148D01*
X41671945Y6052212D01*
X41750473Y6199128D01*
X41761336Y6215386D01*
X41867020Y6344161D01*
X41880839Y6357980D01*
X42009614Y6463664D01*
X42025872Y6474527D01*
X42172788Y6553055D01*
X42190852Y6560538D01*
X42350262Y6608894D01*
X42369442Y6612709D01*
X42535222Y6629037D01*
X42554778Y6629037D01*
X42720558Y6612709D01*
X42739738Y6608894D01*
X42899148Y6560538D01*
X42917212Y6553055D01*
X43064128Y6474527D01*
X43080386Y6463664D01*
X43209161Y6357980D01*
X43222980Y6344161D01*
X43328664Y6215386D01*
X43339527Y6199128D01*
X43418055Y6052212D01*
X43425538Y6034148D01*
X43473894Y5874738D01*
X43477709Y5855558D01*
X43494519Y5684883D01*
X43495000Y5675093D01*
X43495000Y4484907D01*
X43494519Y4475117D01*
X43477709Y4304442D01*
X43473894Y4285262D01*
X43425538Y4125852D01*
X43418055Y4107788D01*
X43339527Y3960872D01*
X43328664Y3944614D01*
X43222982Y3815841D01*
X43212664Y3805524D01*
X43165349Y3730283D01*
X43155309Y3641970D01*
X43184736Y3557692D01*
X43214752Y3509922D01*
X43224436Y3489812D01*
X43272488Y3352489D01*
X43277452Y3330739D01*
X43283631Y3275893D01*
X43312960Y3191989D01*
X43340953Y3156864D01*
X43349238Y3148579D01*
X43424481Y3101266D01*
X43490659Y3090000D01*
X45075222Y3090000D01*
X45075222Y3530963D01*
X44909442Y3547291D01*
X44890262Y3551106D01*
X44730852Y3599462D01*
X44712788Y3606945D01*
X44565872Y3685473D01*
X44549614Y3696336D01*
X44420839Y3802020D01*
X44407020Y3815839D01*
X44301336Y3944614D01*
X44290473Y3960872D01*
X44211945Y4107788D01*
X44204462Y4125852D01*
X44156106Y4285262D01*
X44152291Y4304442D01*
X44135481Y4475117D01*
X44135000Y4484907D01*
X44135000Y5675093D01*
X44135481Y5684883D01*
X44152291Y5855558D01*
X44156106Y5874738D01*
X44204462Y6034148D01*
X44211945Y6052212D01*
X44290473Y6199128D01*
X44301336Y6215386D01*
X44407020Y6344161D01*
X44420839Y6357980D01*
X44549614Y6463664D01*
X44565872Y6474527D01*
X44712788Y6553055D01*
X44730852Y6560538D01*
X44890262Y6608894D01*
X44909442Y6612709D01*
X45075222Y6629037D01*
X45094778Y6629037D01*
X45260558Y6612709D01*
X45279738Y6608894D01*
X45439148Y6560538D01*
X45457212Y6553055D01*
X45604128Y6474527D01*
X45620386Y6463664D01*
X45749161Y6357980D01*
X45762980Y6344161D01*
X45868664Y6215386D01*
X45879527Y6199128D01*
X45958055Y6052212D01*
X45965538Y6034148D01*
X46013894Y5874738D01*
X46017709Y5855558D01*
X46034519Y5684883D01*
X46035000Y5675093D01*
X46035000Y4484907D01*
X46034519Y4475117D01*
X46017709Y4304442D01*
X46013894Y4285262D01*
X45965538Y4125852D01*
X45958055Y4107788D01*
X45879527Y3960872D01*
X45868664Y3944614D01*
X45762980Y3815839D01*
X45749161Y3802020D01*
X45620386Y3696336D01*
X45604128Y3685473D01*
X45457212Y3606945D01*
X45439148Y3599462D01*
X45279738Y3551106D01*
X45260558Y3547291D01*
X45094778Y3530963D01*
X45075222Y3530963D01*
X45075222Y3090000D01*
X47615222Y3090000D01*
X47615222Y3530963D01*
X47449442Y3547291D01*
X47430262Y3551106D01*
X47270852Y3599462D01*
X47252788Y3606945D01*
X47105872Y3685473D01*
X47089614Y3696336D01*
X46960839Y3802020D01*
X46947020Y3815839D01*
X46841336Y3944614D01*
X46830473Y3960872D01*
X46751945Y4107788D01*
X46744462Y4125852D01*
X46696106Y4285262D01*
X46692291Y4304442D01*
X46675481Y4475117D01*
X46675000Y4484907D01*
X46675000Y5675093D01*
X46675481Y5684883D01*
X46692291Y5855558D01*
X46696106Y5874738D01*
X46744462Y6034148D01*
X46751945Y6052212D01*
X46830473Y6199128D01*
X46841336Y6215386D01*
X46947020Y6344161D01*
X46960839Y6357980D01*
X47089614Y6463664D01*
X47105872Y6474527D01*
X47252788Y6553055D01*
X47270850Y6560537D01*
X47288124Y6565777D01*
X47365319Y6609833D01*
X47415801Y6682987D01*
X47429601Y6770791D01*
X47403993Y6855904D01*
X47316841Y6937359D01*
X47290083Y6950244D01*
X47166892Y7027651D01*
X47149439Y7041570D01*
X47046570Y7144439D01*
X47032651Y7161892D01*
X46955248Y7285078D01*
X46945564Y7305188D01*
X46897512Y7442511D01*
X46892547Y7464269D01*
X46876258Y7608835D01*
X46876258Y7631165D01*
X46892547Y7775731D01*
X46897512Y7797489D01*
X46945564Y7934812D01*
X46955250Y7954927D01*
X47004680Y8033594D01*
X47034063Y8117479D01*
X47024197Y8205811D01*
X46977031Y8281146D01*
X46901880Y8328605D01*
X46835335Y8340000D01*
X41856195Y8340000D01*
X41769535Y8320250D01*
X41742742Y8303427D01*
X41742617Y8303626D01*
X41609922Y8220248D01*
X41589812Y8210564D01*
X41452489Y8162512D01*
X41430731Y8157547D01*
X41286165Y8141258D01*
X41263835Y8141258D01*
X41119269Y8157547D01*
X41097511Y8162512D01*
X40960188Y8210564D01*
X40940078Y8220248D01*
X40816892Y8297651D01*
X40799439Y8311570D01*
X40696570Y8414439D01*
X40682651Y8431892D01*
X40605248Y8555078D01*
X40595564Y8575188D01*
X40547512Y8712511D01*
X40542547Y8734269D01*
X40526258Y8878835D01*
X40526258Y8901165D01*
X40542547Y9045731D01*
X40547512Y9067489D01*
X40595564Y9204812D01*
X40605248Y9224922D01*
X40682651Y9348108D01*
X40696570Y9365561D01*
X40799439Y9468430D01*
X40816892Y9482349D01*
X40940078Y9559752D01*
X40960188Y9569436D01*
X41097511Y9617488D01*
X41119269Y9622453D01*
X41263835Y9638742D01*
X41286165Y9638742D01*
X41430731Y9622453D01*
X41452489Y9617488D01*
X41589812Y9569436D01*
X41609922Y9559752D01*
X41742617Y9476374D01*
X41743534Y9477833D01*
X41811559Y9445045D01*
X41856195Y9440000D01*
X52799341Y9440000D01*
X52886001Y9459750D01*
X52955545Y9515099D01*
X52994240Y9595117D01*
X52994441Y9683998D01*
X52940762Y9781421D01*
X52088136Y10634047D01*
X52012893Y10681360D01*
X51969107Y10691369D01*
X51914261Y10697548D01*
X51892511Y10702512D01*
X51755188Y10750564D01*
X51735078Y10760248D01*
X51611892Y10837651D01*
X51594439Y10851570D01*
X51491570Y10954439D01*
X51477651Y10971892D01*
X51400248Y11095078D01*
X51390564Y11115188D01*
X51342512Y11252511D01*
X51337547Y11274269D01*
X51321258Y11418835D01*
X51321258Y11441165D01*
X51337547Y11585731D01*
X51342512Y11607489D01*
X51390564Y11744812D01*
X51400248Y11764922D01*
X51477651Y11888108D01*
X51491570Y11905561D01*
X51594439Y12008430D01*
X51611892Y12022349D01*
X51735078Y12099752D01*
X51755188Y12109436D01*
X51892511Y12157488D01*
X51914269Y12162453D01*
X52058835Y12178742D01*
X52081165Y12178742D01*
X52225731Y12162453D01*
X52247489Y12157488D01*
X52384812Y12109436D01*
X52404922Y12099752D01*
X52528108Y12022349D01*
X52545561Y12008430D01*
X52648430Y11905561D01*
X52662349Y11888108D01*
X52739752Y11764922D01*
X52749436Y11744812D01*
X52797488Y11607489D01*
X52802452Y11585739D01*
X52808631Y11530893D01*
X52837960Y11446989D01*
X52865953Y11411864D01*
X53509238Y10768579D01*
X53584481Y10721266D01*
X53650659Y10710000D01*
X55868835Y10710000D01*
X55868835Y12586258D01*
X55724269Y12602547D01*
X55702511Y12607512D01*
X55565188Y12655564D01*
X55545078Y12665248D01*
X55421892Y12742651D01*
X55404439Y12756570D01*
X55301570Y12859439D01*
X55287651Y12876892D01*
X55210248Y13000078D01*
X55200564Y13020188D01*
X55152512Y13157511D01*
X55147547Y13179269D01*
X55131258Y13323835D01*
X55131258Y13346165D01*
X55147547Y13490731D01*
X55152512Y13512489D01*
X55200564Y13649812D01*
X55210248Y13669922D01*
X55287651Y13793108D01*
X55301570Y13810561D01*
X55404439Y13913430D01*
X55421892Y13927349D01*
X55545078Y14004752D01*
X55565188Y14014436D01*
X55702511Y14062488D01*
X55724261Y14067452D01*
X55779107Y14073631D01*
X55863011Y14102960D01*
X55898136Y14130953D01*
X57773835Y16006652D01*
X57773835Y17031258D01*
X57629269Y17047547D01*
X57607511Y17052512D01*
X57470188Y17100564D01*
X57450078Y17110248D01*
X57317383Y17193626D01*
X57316466Y17192167D01*
X57248441Y17224955D01*
X57203805Y17230000D01*
X42551550Y17230000D01*
X42538507Y17230855D01*
X42415647Y17247030D01*
X42390538Y17253758D01*
X42282114Y17298668D01*
X42259598Y17311667D01*
X42166929Y17382775D01*
X42158178Y17391623D01*
X42150975Y17396208D01*
X40658136Y18889047D01*
X40582893Y18936360D01*
X40539107Y18946369D01*
X40484261Y18952548D01*
X40462511Y18957512D01*
X40325188Y19005564D01*
X40305078Y19015248D01*
X40181892Y19092651D01*
X40164439Y19106570D01*
X40061570Y19209439D01*
X40047651Y19226892D01*
X39970248Y19350078D01*
X39960564Y19370188D01*
X39912512Y19507511D01*
X39907547Y19529269D01*
X39891258Y19673835D01*
X39891258Y19696165D01*
X39907547Y19840731D01*
X39912512Y19862489D01*
X39960564Y19999812D01*
X39970248Y20019922D01*
X40047651Y20143108D01*
X40061570Y20160561D01*
X40164439Y20263430D01*
X40181892Y20277349D01*
X40305078Y20354752D01*
X40325188Y20364436D01*
X40462511Y20412488D01*
X40484269Y20417453D01*
X40628835Y20433742D01*
X40651165Y20433742D01*
X40795731Y20417453D01*
X40817489Y20412488D01*
X40954812Y20364436D01*
X40974922Y20354752D01*
X41098108Y20277349D01*
X41115561Y20263430D01*
X41218430Y20160561D01*
X41232349Y20143108D01*
X41309752Y20019922D01*
X41319436Y19999812D01*
X41367488Y19862489D01*
X41372452Y19840739D01*
X41378631Y19785893D01*
X41407960Y19701989D01*
X41435953Y19666864D01*
X42714238Y18388579D01*
X42789481Y18341266D01*
X42855659Y18330000D01*
X56503835Y18330000D01*
X56503835Y18936258D01*
X56359269Y18952547D01*
X56337511Y18957512D01*
X56200188Y19005564D01*
X56180078Y19015248D01*
X56047383Y19098626D01*
X56046466Y19097167D01*
X55978441Y19129955D01*
X55933805Y19135000D01*
X45726550Y19135000D01*
X45713507Y19135855D01*
X45590647Y19152030D01*
X45565538Y19158758D01*
X45457114Y19203668D01*
X45434598Y19216667D01*
X45341929Y19287775D01*
X45333178Y19296623D01*
X45325975Y19301208D01*
X43833136Y20794047D01*
X43757893Y20841360D01*
X43714107Y20851369D01*
X43659261Y20857548D01*
X43637511Y20862512D01*
X43500188Y20910564D01*
X43480078Y20920248D01*
X43356892Y20997651D01*
X43339439Y21011570D01*
X43236570Y21114439D01*
X43222651Y21131892D01*
X43145248Y21255078D01*
X43135564Y21275188D01*
X43087512Y21412511D01*
X43082547Y21434269D01*
X43066258Y21578835D01*
X43066258Y21601165D01*
X43082547Y21745731D01*
X43087512Y21767489D01*
X43135564Y21904812D01*
X43145248Y21924922D01*
X43222651Y22048108D01*
X43236570Y22065561D01*
X43339439Y22168430D01*
X43356892Y22182349D01*
X43480078Y22259752D01*
X43500188Y22269436D01*
X43637511Y22317488D01*
X43659269Y22322453D01*
X43803835Y22338742D01*
X43826165Y22338742D01*
X43970731Y22322453D01*
X43992489Y22317488D01*
X44129812Y22269436D01*
X44149922Y22259752D01*
X44273108Y22182349D01*
X44290561Y22168430D01*
X44393430Y22065561D01*
X44407349Y22048108D01*
X44484752Y21924922D01*
X44494436Y21904812D01*
X44542488Y21767489D01*
X44547452Y21745739D01*
X44553631Y21690893D01*
X44582960Y21606989D01*
X44610953Y21571864D01*
X45889238Y20293579D01*
X45964481Y20246266D01*
X46030659Y20235000D01*
X52058835Y20235000D01*
X52058835Y20841258D01*
X51914269Y20857547D01*
X51892511Y20862512D01*
X51755188Y20910564D01*
X51735078Y20920248D01*
X51611892Y20997651D01*
X51594439Y21011570D01*
X51491570Y21114439D01*
X51477651Y21131892D01*
X51400248Y21255078D01*
X51390564Y21275188D01*
X51342512Y21412511D01*
X51337548Y21434261D01*
X51331369Y21489107D01*
X51302040Y21573011D01*
X51274047Y21608136D01*
X50630762Y22251421D01*
X50555519Y22298734D01*
X50489341Y22310000D01*
X47631550Y22310000D01*
X47618507Y22310855D01*
X47495647Y22327030D01*
X47470538Y22333758D01*
X47362114Y22378668D01*
X47339598Y22391667D01*
X47246929Y22462775D01*
X47238178Y22471623D01*
X47230975Y22476208D01*
X47008136Y22699047D01*
X46932893Y22746360D01*
X46889107Y22756369D01*
X46834261Y22762548D01*
X46812511Y22767512D01*
X46675188Y22815564D01*
X46655078Y22825248D01*
X46531892Y22902651D01*
X46514439Y22916570D01*
X46411570Y23019439D01*
X46397651Y23036892D01*
X46320248Y23160078D01*
X46310564Y23180188D01*
X46262512Y23317511D01*
X46257547Y23339269D01*
X46241258Y23483835D01*
X46241258Y23506165D01*
X46257547Y23650731D01*
X46262512Y23672489D01*
X46310564Y23809812D01*
X46320248Y23829922D01*
X46397651Y23953108D01*
X46411570Y23970561D01*
X46514439Y24073430D01*
X46531892Y24087349D01*
X46655078Y24164752D01*
X46675188Y24174436D01*
X46812511Y24222488D01*
X46834269Y24227453D01*
X46978835Y24243742D01*
X47001165Y24243742D01*
X47145731Y24227453D01*
X47167489Y24222488D01*
X47304812Y24174436D01*
X47324922Y24164752D01*
X47448108Y24087349D01*
X47465561Y24073430D01*
X47568430Y23970561D01*
X47582349Y23953108D01*
X47659752Y23829922D01*
X47669436Y23809812D01*
X47717488Y23672489D01*
X47722452Y23650739D01*
X47728631Y23595893D01*
X47757960Y23511989D01*
X47785953Y23476864D01*
X47794238Y23468579D01*
X47869481Y23421266D01*
X47935659Y23410000D01*
X50793450Y23410000D01*
X50806493Y23409145D01*
X50929353Y23392970D01*
X50954462Y23386242D01*
X51062886Y23341332D01*
X51085402Y23328333D01*
X51178071Y23257225D01*
X51186822Y23248377D01*
X51194025Y23243792D01*
X52051864Y22385953D01*
X52127107Y22338640D01*
X52170893Y22328631D01*
X52225739Y22322452D01*
X52247489Y22317488D01*
X52384812Y22269436D01*
X52404922Y22259752D01*
X52528108Y22182349D01*
X52545561Y22168430D01*
X52648430Y22065561D01*
X52662349Y22048108D01*
X52739752Y21924922D01*
X52749436Y21904812D01*
X52797488Y21767489D01*
X52802453Y21745731D01*
X52818742Y21601165D01*
X52818742Y21578835D01*
X52802453Y21434269D01*
X52797488Y21412511D01*
X52749436Y21275188D01*
X52739752Y21255078D01*
X52662349Y21131892D01*
X52648430Y21114439D01*
X52545561Y21011570D01*
X52528108Y20997651D01*
X52404922Y20920248D01*
X52384812Y20910564D01*
X52247489Y20862512D01*
X52225731Y20857547D01*
X52081165Y20841258D01*
X52058835Y20841258D01*
X52058835Y20235000D01*
X55933805Y20235000D01*
X56020465Y20254750D01*
X56047258Y20271573D01*
X56047383Y20271374D01*
X56180078Y20354752D01*
X56200188Y20364436D01*
X56337511Y20412488D01*
X56359269Y20417453D01*
X56503835Y20433742D01*
X56526165Y20433742D01*
X56670731Y20417453D01*
X56692489Y20412488D01*
X56829812Y20364436D01*
X56849922Y20354752D01*
X56973108Y20277349D01*
X56990561Y20263430D01*
X57093430Y20160561D01*
X57107349Y20143108D01*
X57184752Y20019922D01*
X57194436Y19999812D01*
X57242488Y19862489D01*
X57247453Y19840731D01*
X57263742Y19696165D01*
X57263742Y19673835D01*
X57247453Y19529269D01*
X57242488Y19507511D01*
X57194436Y19370188D01*
X57184752Y19350078D01*
X57107349Y19226892D01*
X57093430Y19209439D01*
X56990561Y19106570D01*
X56973108Y19092651D01*
X56849922Y19015248D01*
X56829812Y19005564D01*
X56692489Y18957512D01*
X56670731Y18952547D01*
X56526165Y18936258D01*
X56503835Y18936258D01*
X56503835Y18330000D01*
X57203805Y18330000D01*
X57290465Y18349750D01*
X57317258Y18366573D01*
X57317383Y18366374D01*
X57450078Y18449752D01*
X57470188Y18459436D01*
X57607511Y18507488D01*
X57629269Y18512453D01*
X57773835Y18528742D01*
X57796165Y18528742D01*
X57940731Y18512453D01*
X57962489Y18507488D01*
X58099812Y18459436D01*
X58119922Y18449752D01*
X58243108Y18372349D01*
X58260561Y18358430D01*
X58363430Y18255561D01*
X58377349Y18238108D01*
X58454752Y18114922D01*
X58464436Y18094812D01*
X58512488Y17957489D01*
X58517453Y17935731D01*
X58533742Y17791165D01*
X58533742Y17768835D01*
X58517453Y17624269D01*
X58512488Y17602511D01*
X58464436Y17465188D01*
X58454752Y17445078D01*
X58377349Y17321892D01*
X58363430Y17304439D01*
X58260561Y17201570D01*
X58243108Y17187651D01*
X58119922Y17110248D01*
X58099812Y17100564D01*
X57962489Y17052512D01*
X57940731Y17047547D01*
X57796165Y17031258D01*
X57773835Y17031258D01*
X57773835Y16006652D01*
X60560061Y18792878D01*
X60573178Y18803377D01*
X60581929Y18812225D01*
X60674601Y18883335D01*
X60697109Y18896330D01*
X60778797Y18930166D01*
X60805540Y18941243D01*
X60830643Y18947970D01*
X60953506Y18964145D01*
X60966549Y18965000D01*
X62773351Y18965000D01*
X62773351Y32264665D01*
X62755019Y32266363D01*
X62574832Y32300046D01*
X62557135Y32305082D01*
X62386208Y32371298D01*
X62369722Y32379507D01*
X62213885Y32475997D01*
X62199178Y32487104D01*
X62063737Y32610576D01*
X62051315Y32624202D01*
X61940860Y32770468D01*
X61931169Y32786119D01*
X61849460Y32950211D01*
X61842813Y32967371D01*
X61792648Y33143681D01*
X61789266Y33161771D01*
X61771927Y33348895D01*
X61771500Y33358127D01*
X61771500Y33951873D01*
X61771927Y33961105D01*
X61789266Y34148229D01*
X61792648Y34166319D01*
X61842813Y34342629D01*
X61849460Y34359789D01*
X61931169Y34523881D01*
X61940860Y34539532D01*
X62051315Y34685798D01*
X62063737Y34699424D01*
X62199178Y34822896D01*
X62213885Y34834003D01*
X62369722Y34930493D01*
X62386208Y34938702D01*
X62557135Y35004918D01*
X62574832Y35009954D01*
X62755019Y35043637D01*
X62773351Y35045335D01*
X62956649Y35045335D01*
X62974981Y35043637D01*
X63155168Y35009954D01*
X63172865Y35004918D01*
X63343792Y34938702D01*
X63360278Y34930493D01*
X63516115Y34834003D01*
X63530822Y34822896D01*
X63666263Y34699424D01*
X63678685Y34685798D01*
X63789140Y34539532D01*
X63798831Y34523881D01*
X63880540Y34359789D01*
X63887187Y34342629D01*
X63937352Y34166319D01*
X63940734Y34148229D01*
X63958073Y33961105D01*
X63958500Y33951873D01*
X63958500Y33358127D01*
X63958073Y33348895D01*
X63940734Y33161771D01*
X63937352Y33143681D01*
X63887187Y32967371D01*
X63880540Y32950211D01*
X63798831Y32786119D01*
X63789140Y32770468D01*
X63678685Y32624202D01*
X63666263Y32610576D01*
X63530822Y32487104D01*
X63516115Y32475997D01*
X63360278Y32379507D01*
X63343792Y32371298D01*
X63172865Y32305082D01*
X63155168Y32300046D01*
X62974981Y32266363D01*
X62956649Y32264665D01*
X62773351Y32264665D01*
X62773351Y18965000D01*
X65398449Y18965000D01*
X65411496Y18964145D01*
X65534351Y18947971D01*
X65559466Y18941242D01*
X65667886Y18896332D01*
X65690401Y18883333D01*
X65788718Y18807892D01*
X65798539Y18799279D01*
X67926865Y16670953D01*
X68002108Y16623640D01*
X68045894Y16613631D01*
X68100739Y16607452D01*
X68122489Y16602488D01*
X68259812Y16554436D01*
X68279922Y16544752D01*
X68403108Y16467349D01*
X68420561Y16453430D01*
X68523430Y16350561D01*
X68537349Y16333108D01*
X68614752Y16209922D01*
X68624436Y16189812D01*
X68672488Y16052489D01*
X68677453Y16030731D01*
X68693742Y15886165D01*
X68693742Y15863835D01*
X68677453Y15719269D01*
X68672488Y15697511D01*
X68624436Y15560188D01*
X68614752Y15540078D01*
X68537349Y15416892D01*
X68523430Y15399439D01*
X68420561Y15296570D01*
X68403108Y15282651D01*
X68279922Y15205248D01*
X68259812Y15195564D01*
X68122489Y15147512D01*
X68100731Y15142547D01*
X67956165Y15126258D01*
X67933835Y15126258D01*
X67789269Y15142547D01*
X67767511Y15147512D01*
X67630188Y15195564D01*
X67610078Y15205248D01*
X67486892Y15282651D01*
X67469439Y15296570D01*
X67366570Y15399439D01*
X67352651Y15416892D01*
X67275248Y15540078D01*
X67265564Y15560188D01*
X67217512Y15697511D01*
X67212548Y15719261D01*
X67206369Y15774106D01*
X67177040Y15858010D01*
X67149047Y15893135D01*
X65235761Y17806421D01*
X65160518Y17853734D01*
X65094340Y17865000D01*
X61270659Y17865000D01*
X61183999Y17845250D01*
X61129238Y17806421D01*
X56675953Y13353136D01*
X56628640Y13277893D01*
X56618631Y13234107D01*
X56612452Y13179261D01*
X56607488Y13157511D01*
X56559436Y13020188D01*
X56549752Y13000078D01*
X56472349Y12876892D01*
X56458430Y12859439D01*
X56355561Y12756570D01*
X56338108Y12742651D01*
X56214922Y12665248D01*
X56194812Y12655564D01*
X56057489Y12607512D01*
X56035731Y12602547D01*
X55891165Y12586258D01*
X55868835Y12586258D01*
X55868835Y10710000D01*
X56995335Y10710000D01*
X57081995Y10729750D01*
X57151539Y10785099D01*
X57190234Y10865117D01*
X57190435Y10953998D01*
X57164680Y11016406D01*
X57115250Y11095073D01*
X57105564Y11115188D01*
X57057512Y11252511D01*
X57052547Y11274269D01*
X57036258Y11418835D01*
X57036258Y11441165D01*
X57052547Y11585731D01*
X57057512Y11607489D01*
X57105564Y11744812D01*
X57115248Y11764922D01*
X57192651Y11888108D01*
X57206570Y11905561D01*
X57309439Y12008430D01*
X57326892Y12022349D01*
X57450078Y12099752D01*
X57470188Y12109436D01*
X57607511Y12157488D01*
X57629261Y12162452D01*
X57684107Y12168631D01*
X57768011Y12197960D01*
X57803136Y12225953D01*
X61434047Y15856864D01*
X61481360Y15932107D01*
X61491369Y15975893D01*
X61497548Y16030739D01*
X61502512Y16052489D01*
X61550564Y16189812D01*
X61560248Y16209922D01*
X61637651Y16333108D01*
X61651570Y16350561D01*
X61754439Y16453430D01*
X61771892Y16467349D01*
X61895078Y16544752D01*
X61915188Y16554436D01*
X62052511Y16602488D01*
X62074269Y16607453D01*
X62218835Y16623742D01*
X62241165Y16623742D01*
X62385731Y16607453D01*
X62407489Y16602488D01*
X62544812Y16554436D01*
X62564922Y16544752D01*
X62688108Y16467349D01*
X62705561Y16453430D01*
X62808430Y16350561D01*
X62822349Y16333108D01*
X62899752Y16209922D01*
X62909436Y16189812D01*
X62957488Y16052489D01*
X62962453Y16030731D01*
X62978742Y15886165D01*
X62978742Y15863835D01*
X62962453Y15719269D01*
X62957488Y15697511D01*
X62909436Y15560188D01*
X62899752Y15540078D01*
X62822349Y15416892D01*
X62808430Y15399439D01*
X62705561Y15296570D01*
X62688108Y15282651D01*
X62564922Y15205248D01*
X62544812Y15195564D01*
X62407489Y15147512D01*
X62385739Y15142548D01*
X62330893Y15136369D01*
X62246989Y15107040D01*
X62211864Y15079047D01*
X58580953Y11448136D01*
X58533640Y11372893D01*
X58523631Y11329107D01*
X58517452Y11274261D01*
X58512488Y11252511D01*
X58464436Y11115188D01*
X58454750Y11095073D01*
X58405320Y11016406D01*
X58375937Y10932521D01*
X58385803Y10844189D01*
X58432969Y10768854D01*
X58508120Y10721395D01*
X58574665Y10710000D01*
X64823805Y10710000D01*
X64910465Y10729750D01*
X64937258Y10746573D01*
X64937383Y10746374D01*
X65070078Y10829752D01*
X65090188Y10839436D01*
X65227511Y10887488D01*
X65249269Y10892453D01*
X65393835Y10908742D01*
X65416165Y10908742D01*
X65560731Y10892453D01*
X65582489Y10887488D01*
X65719812Y10839436D01*
X65739922Y10829752D01*
X65863108Y10752349D01*
X65880561Y10738430D01*
X65983430Y10635561D01*
X65997349Y10618108D01*
X66074752Y10494922D01*
X66084436Y10474812D01*
X66132488Y10337489D01*
X66137453Y10315731D01*
X66146696Y10233703D01*
X66176025Y10149800D01*
X66238813Y10086890D01*
X66322659Y10057398D01*
X66411005Y10067150D01*
X66486859Y10114676D01*
X69241421Y12869238D01*
X69288734Y12944481D01*
X69300000Y13010659D01*
X69300000Y28568450D01*
X69300855Y28581493D01*
X69317030Y28704353D01*
X69323758Y28729462D01*
X69368668Y28837886D01*
X69381667Y28860402D01*
X69452775Y28953071D01*
X69461623Y28961822D01*
X69466208Y28969025D01*
X71355061Y30857878D01*
X71368178Y30868377D01*
X71376929Y30877225D01*
X71469601Y30948335D01*
X71492109Y30961330D01*
X71573797Y30995166D01*
X71600539Y31006243D01*
X71625642Y31012969D01*
X71629200Y31013437D01*
X71629210Y31013441D01*
X71629210Y31013439D01*
X71748507Y31029145D01*
X71761550Y31030000D01*
X76193450Y31030000D01*
X76206493Y31029145D01*
X76329353Y31012970D01*
X76354462Y31006242D01*
X76462886Y30961332D01*
X76485402Y30948333D01*
X76578071Y30877225D01*
X76586822Y30868377D01*
X76594025Y30863792D01*
X76743351Y30714466D01*
X76743351Y32264665D01*
X76725019Y32266363D01*
X76544832Y32300046D01*
X76527135Y32305082D01*
X76356208Y32371298D01*
X76339722Y32379507D01*
X76183885Y32475997D01*
X76169178Y32487104D01*
X76033737Y32610576D01*
X76021315Y32624202D01*
X75910860Y32770468D01*
X75901169Y32786119D01*
X75819460Y32950211D01*
X75812813Y32967371D01*
X75762648Y33143681D01*
X75759266Y33161771D01*
X75741927Y33348895D01*
X75741500Y33358127D01*
X75741500Y33951873D01*
X75741927Y33961105D01*
X75759266Y34148229D01*
X75762648Y34166319D01*
X75812813Y34342629D01*
X75819460Y34359789D01*
X75901169Y34523881D01*
X75910860Y34539532D01*
X76021315Y34685798D01*
X76033737Y34699424D01*
X76169178Y34822896D01*
X76183885Y34834003D01*
X76339722Y34930493D01*
X76356208Y34938702D01*
X76527135Y35004918D01*
X76544832Y35009954D01*
X76725019Y35043637D01*
X76743351Y35045335D01*
X76926649Y35045335D01*
X76944981Y35043637D01*
X77125168Y35009954D01*
X77142865Y35004918D01*
X77313792Y34938702D01*
X77330278Y34930493D01*
X77486115Y34834003D01*
X77500822Y34822896D01*
X77636263Y34699424D01*
X77648685Y34685798D01*
X77759140Y34539532D01*
X77768831Y34523881D01*
X77850540Y34359789D01*
X77857187Y34342629D01*
X77907352Y34166319D01*
X77910734Y34148229D01*
X77928073Y33961105D01*
X77928500Y33951873D01*
X77928500Y33358127D01*
X77928073Y33348895D01*
X77910734Y33161771D01*
X77907352Y33143681D01*
X77857187Y32967371D01*
X77850540Y32950211D01*
X77768831Y32786119D01*
X77759140Y32770468D01*
X77648685Y32624202D01*
X77636263Y32610576D01*
X77500822Y32487104D01*
X77486115Y32475997D01*
X77330278Y32379507D01*
X77313792Y32371298D01*
X77142865Y32305082D01*
X77125168Y32300046D01*
X76944981Y32266363D01*
X76926649Y32264665D01*
X76743351Y32264665D01*
X76743351Y30714466D01*
X81022878Y26434939D01*
X81033377Y26421822D01*
X81042225Y26413071D01*
X81113333Y26320402D01*
X81126332Y26297886D01*
X81171242Y26189462D01*
X81177970Y26164353D01*
X81194145Y26041493D01*
X81195000Y26028450D01*
X81195000Y16516550D01*
X81194145Y16503507D01*
X81177970Y16380647D01*
X81171242Y16355538D01*
X81126332Y16247114D01*
X81113333Y16224598D01*
X81042225Y16131929D01*
X81033377Y16123178D01*
X81028792Y16115975D01*
X80409939Y15497122D01*
X80396822Y15486623D01*
X80388071Y15477775D01*
X80295402Y15406667D01*
X80272886Y15393668D01*
X80164462Y15348758D01*
X80139353Y15342030D01*
X80016493Y15325855D01*
X80003450Y15325000D01*
X79321195Y15325000D01*
X79234535Y15305250D01*
X79207742Y15288427D01*
X79207617Y15288626D01*
X79074922Y15205248D01*
X79054812Y15195564D01*
X78917489Y15147512D01*
X78895731Y15142547D01*
X78751165Y15126258D01*
X78728835Y15126258D01*
X78584269Y15142547D01*
X78562511Y15147512D01*
X78425188Y15195564D01*
X78405078Y15205248D01*
X78281892Y15282651D01*
X78264439Y15296570D01*
X78161570Y15399439D01*
X78147651Y15416892D01*
X78070248Y15540078D01*
X78060564Y15560188D01*
X78012512Y15697511D01*
X78007547Y15719269D01*
X77991258Y15863835D01*
X77991258Y15886165D01*
X78007547Y16030731D01*
X78012512Y16052489D01*
X78060564Y16189812D01*
X78070248Y16209922D01*
X78147651Y16333108D01*
X78161570Y16350561D01*
X78264439Y16453430D01*
X78281892Y16467349D01*
X78405078Y16544752D01*
X78425188Y16554436D01*
X78562511Y16602488D01*
X78584269Y16607453D01*
X78728835Y16623742D01*
X78751165Y16623742D01*
X78895731Y16607453D01*
X78917489Y16602488D01*
X79054812Y16554436D01*
X79074922Y16544752D01*
X79207617Y16461374D01*
X79208534Y16462833D01*
X79276559Y16430045D01*
X79321195Y16425000D01*
X79699341Y16425000D01*
X79786001Y16444750D01*
X79840762Y16483579D01*
X80036421Y16679238D01*
X80083734Y16754481D01*
X80095000Y16820659D01*
X80095000Y18509341D01*
X80075250Y18596001D01*
X80019901Y18665545D01*
X79939883Y18704240D01*
X79851002Y18704441D01*
X79753579Y18650762D01*
X79535953Y18433136D01*
X79488640Y18357893D01*
X79478631Y18314107D01*
X79472452Y18259261D01*
X79467488Y18237511D01*
X79419436Y18100188D01*
X79409752Y18080078D01*
X79332349Y17956892D01*
X79318430Y17939439D01*
X79215561Y17836570D01*
X79198108Y17822651D01*
X79074922Y17745248D01*
X79054812Y17735564D01*
X78917489Y17687512D01*
X78895731Y17682547D01*
X78751165Y17666258D01*
X78728835Y17666258D01*
X78584269Y17682547D01*
X78562511Y17687512D01*
X78425188Y17735564D01*
X78405078Y17745248D01*
X78281892Y17822651D01*
X78264439Y17836570D01*
X78161570Y17939439D01*
X78147651Y17956892D01*
X78070248Y18080078D01*
X78060564Y18100188D01*
X78012512Y18237511D01*
X78007547Y18259269D01*
X77991258Y18403835D01*
X77991258Y18426165D01*
X78007547Y18570731D01*
X78012512Y18592489D01*
X78060564Y18729812D01*
X78070248Y18749922D01*
X78147651Y18873108D01*
X78161570Y18890561D01*
X78264439Y18993430D01*
X78281892Y19007349D01*
X78405078Y19084752D01*
X78425188Y19094436D01*
X78562511Y19142488D01*
X78584261Y19147452D01*
X78639107Y19153631D01*
X78723011Y19182960D01*
X78758136Y19210953D01*
X78766421Y19219238D01*
X78813734Y19294481D01*
X78825000Y19360659D01*
X78825000Y25089341D01*
X78805250Y25176001D01*
X78766421Y25230762D01*
X75395762Y28601421D01*
X75320519Y28648734D01*
X75254341Y28660000D01*
X72700659Y28660000D01*
X72613999Y28640250D01*
X72559238Y28601421D01*
X71728579Y27770762D01*
X71681266Y27695519D01*
X71670000Y27629341D01*
X71670000Y12071550D01*
X71669145Y12058503D01*
X71652971Y11935648D01*
X71646242Y11910533D01*
X71601331Y11802111D01*
X71588334Y11779599D01*
X71531092Y11705001D01*
X71531089Y11704997D01*
X71517226Y11686930D01*
X71508377Y11678178D01*
X71503792Y11670975D01*
X67074939Y7242122D01*
X67061822Y7231623D01*
X67053071Y7222775D01*
X66960399Y7151665D01*
X66937891Y7138670D01*
X66856203Y7104834D01*
X66829461Y7093757D01*
X66804358Y7087031D01*
X66800800Y7086563D01*
X66800790Y7086559D01*
X66800790Y7086561D01*
X66681493Y7070855D01*
X66668450Y7070000D01*
X48206195Y7070000D01*
X48119535Y7050250D01*
X48092742Y7033427D01*
X48092617Y7033626D01*
X47959917Y6950244D01*
X47933159Y6937359D01*
X47863650Y6881966D01*
X47825007Y6801924D01*
X47824862Y6713042D01*
X47863244Y6632874D01*
X47961876Y6565777D01*
X47979150Y6560537D01*
X47997212Y6553055D01*
X48144128Y6474527D01*
X48160386Y6463664D01*
X48289161Y6357980D01*
X48302980Y6344161D01*
X48408664Y6215386D01*
X48419527Y6199128D01*
X48498055Y6052212D01*
X48505538Y6034148D01*
X48553894Y5874738D01*
X48557709Y5855558D01*
X48574519Y5684883D01*
X48575000Y5675093D01*
X48575000Y4484907D01*
X48574519Y4475117D01*
X48557709Y4304442D01*
X48553894Y4285262D01*
X48505538Y4125852D01*
X48498055Y4107788D01*
X48419527Y3960872D01*
X48408664Y3944614D01*
X48302980Y3815839D01*
X48289161Y3802020D01*
X48160386Y3696336D01*
X48144128Y3685473D01*
X47997212Y3606945D01*
X47979148Y3599462D01*
X47819738Y3551106D01*
X47800558Y3547291D01*
X47634778Y3530963D01*
X47615222Y3530963D01*
X47615222Y3090000D01*
X50155222Y3090000D01*
X50155222Y3530963D01*
X49989442Y3547291D01*
X49970262Y3551106D01*
X49810852Y3599462D01*
X49792788Y3606945D01*
X49645872Y3685473D01*
X49629614Y3696336D01*
X49500839Y3802020D01*
X49487020Y3815839D01*
X49381336Y3944614D01*
X49370473Y3960872D01*
X49291945Y4107788D01*
X49284462Y4125852D01*
X49236106Y4285262D01*
X49232291Y4304442D01*
X49215481Y4475117D01*
X49215000Y4484907D01*
X49215000Y5675093D01*
X49215481Y5684883D01*
X49232291Y5855558D01*
X49236106Y5874738D01*
X49284462Y6034148D01*
X49291945Y6052212D01*
X49370473Y6199128D01*
X49381336Y6215386D01*
X49487020Y6344161D01*
X49500839Y6357980D01*
X49629614Y6463664D01*
X49645872Y6474527D01*
X49792788Y6553055D01*
X49810852Y6560538D01*
X49970262Y6608894D01*
X49989442Y6612709D01*
X50155222Y6629037D01*
X50174778Y6629037D01*
X50340558Y6612709D01*
X50359738Y6608894D01*
X50519148Y6560538D01*
X50537212Y6553055D01*
X50684128Y6474527D01*
X50700386Y6463664D01*
X50829161Y6357980D01*
X50842980Y6344161D01*
X50948664Y6215386D01*
X50959527Y6199128D01*
X51038055Y6052212D01*
X51045538Y6034148D01*
X51093894Y5874738D01*
X51097709Y5855558D01*
X51114519Y5684883D01*
X51115000Y5675093D01*
X51115000Y4484907D01*
X51114519Y4475117D01*
X51097709Y4304442D01*
X51093894Y4285262D01*
X51045538Y4125852D01*
X51038055Y4107788D01*
X50959527Y3960872D01*
X50948664Y3944614D01*
X50842980Y3815839D01*
X50829161Y3802020D01*
X50700386Y3696336D01*
X50684128Y3685473D01*
X50537212Y3606945D01*
X50519148Y3599462D01*
X50359738Y3551106D01*
X50340558Y3547291D01*
X50174778Y3530963D01*
X50155222Y3530963D01*
X50155222Y3090000D01*
X52695222Y3090000D01*
X52695222Y3530963D01*
X52529442Y3547291D01*
X52510262Y3551106D01*
X52350852Y3599462D01*
X52332788Y3606945D01*
X52185872Y3685473D01*
X52169614Y3696336D01*
X52040839Y3802020D01*
X52027020Y3815839D01*
X51921336Y3944614D01*
X51910473Y3960872D01*
X51831945Y4107788D01*
X51824462Y4125852D01*
X51776106Y4285262D01*
X51772291Y4304442D01*
X51755481Y4475117D01*
X51755000Y4484907D01*
X51755000Y5675093D01*
X51755481Y5684883D01*
X51772291Y5855558D01*
X51776106Y5874738D01*
X51824462Y6034148D01*
X51831945Y6052212D01*
X51910473Y6199128D01*
X51921336Y6215386D01*
X52027020Y6344161D01*
X52040839Y6357980D01*
X52169614Y6463664D01*
X52185872Y6474527D01*
X52332788Y6553055D01*
X52350852Y6560538D01*
X52510262Y6608894D01*
X52529442Y6612709D01*
X52695222Y6629037D01*
X52714778Y6629037D01*
X52880558Y6612709D01*
X52899738Y6608894D01*
X53059148Y6560538D01*
X53077212Y6553055D01*
X53224128Y6474527D01*
X53240386Y6463664D01*
X53369161Y6357980D01*
X53382980Y6344161D01*
X53488664Y6215386D01*
X53499527Y6199128D01*
X53578055Y6052212D01*
X53585538Y6034148D01*
X53633894Y5874738D01*
X53637709Y5855558D01*
X53654519Y5684883D01*
X53655000Y5675093D01*
X53655000Y4484907D01*
X53654519Y4475117D01*
X53637709Y4304442D01*
X53633894Y4285262D01*
X53585538Y4125852D01*
X53578055Y4107788D01*
X53499527Y3960872D01*
X53488664Y3944614D01*
X53382980Y3815839D01*
X53369161Y3802020D01*
X53240386Y3696336D01*
X53224128Y3685473D01*
X53077212Y3606945D01*
X53059148Y3599462D01*
X52899738Y3551106D01*
X52880558Y3547291D01*
X52714778Y3530963D01*
X52695222Y3530963D01*
X52695222Y3090000D01*
X55235222Y3090000D01*
X55235222Y3530963D01*
X55069442Y3547291D01*
X55050262Y3551106D01*
X54890852Y3599462D01*
X54872788Y3606945D01*
X54725872Y3685473D01*
X54709614Y3696336D01*
X54580839Y3802020D01*
X54567020Y3815839D01*
X54461336Y3944614D01*
X54450473Y3960872D01*
X54371945Y4107788D01*
X54364462Y4125852D01*
X54316106Y4285262D01*
X54312291Y4304442D01*
X54295481Y4475117D01*
X54295000Y4484907D01*
X54295000Y5675093D01*
X54295481Y5684883D01*
X54312291Y5855558D01*
X54316106Y5874738D01*
X54364462Y6034148D01*
X54371945Y6052212D01*
X54450473Y6199128D01*
X54461336Y6215386D01*
X54567020Y6344161D01*
X54580839Y6357980D01*
X54709614Y6463664D01*
X54725872Y6474527D01*
X54872788Y6553055D01*
X54890852Y6560538D01*
X55050262Y6608894D01*
X55069442Y6612709D01*
X55235222Y6629037D01*
X55254778Y6629037D01*
X55420558Y6612709D01*
X55439738Y6608894D01*
X55599148Y6560538D01*
X55617212Y6553055D01*
X55764128Y6474527D01*
X55780386Y6463664D01*
X55909161Y6357980D01*
X55922980Y6344161D01*
X56028664Y6215386D01*
X56039527Y6199128D01*
X56118055Y6052212D01*
X56125538Y6034148D01*
X56173894Y5874738D01*
X56177709Y5855558D01*
X56194519Y5684883D01*
X56195000Y5675093D01*
X56195000Y4484907D01*
X56194519Y4475117D01*
X56177709Y4304442D01*
X56173894Y4285262D01*
X56125538Y4125852D01*
X56118055Y4107788D01*
X56039527Y3960872D01*
X56028664Y3944614D01*
X55922980Y3815839D01*
X55909161Y3802020D01*
X55780386Y3696336D01*
X55764128Y3685473D01*
X55617212Y3606945D01*
X55599148Y3599462D01*
X55439738Y3551106D01*
X55420558Y3547291D01*
X55254778Y3530963D01*
X55235222Y3530963D01*
X55235222Y3090000D01*
X57775222Y3090000D01*
X57775222Y3530963D01*
X57609442Y3547291D01*
X57590262Y3551106D01*
X57430852Y3599462D01*
X57412788Y3606945D01*
X57265872Y3685473D01*
X57249614Y3696336D01*
X57120839Y3802020D01*
X57107020Y3815839D01*
X57001336Y3944614D01*
X56990473Y3960872D01*
X56911945Y4107788D01*
X56904462Y4125852D01*
X56856106Y4285262D01*
X56852291Y4304442D01*
X56835481Y4475117D01*
X56835000Y4484907D01*
X56835000Y5675093D01*
X56835481Y5684883D01*
X56852291Y5855558D01*
X56856106Y5874738D01*
X56904462Y6034148D01*
X56911945Y6052212D01*
X56990473Y6199128D01*
X57001336Y6215386D01*
X57107020Y6344161D01*
X57120839Y6357980D01*
X57249614Y6463664D01*
X57265872Y6474527D01*
X57412788Y6553055D01*
X57430852Y6560538D01*
X57590262Y6608894D01*
X57609442Y6612709D01*
X57775222Y6629037D01*
X57794778Y6629037D01*
X57960558Y6612709D01*
X57979738Y6608894D01*
X58139148Y6560538D01*
X58157212Y6553055D01*
X58304128Y6474527D01*
X58320386Y6463664D01*
X58449161Y6357980D01*
X58462980Y6344161D01*
X58568664Y6215386D01*
X58579527Y6199128D01*
X58658055Y6052212D01*
X58665538Y6034148D01*
X58713894Y5874738D01*
X58717709Y5855558D01*
X58734519Y5684883D01*
X58735000Y5675093D01*
X58735000Y4484907D01*
X58734519Y4475117D01*
X58717709Y4304442D01*
X58713894Y4285262D01*
X58665538Y4125852D01*
X58658055Y4107788D01*
X58579527Y3960872D01*
X58568664Y3944614D01*
X58462980Y3815839D01*
X58449161Y3802020D01*
X58320386Y3696336D01*
X58304128Y3685473D01*
X58157212Y3606945D01*
X58139148Y3599462D01*
X57979738Y3551106D01*
X57960558Y3547291D01*
X57794778Y3530963D01*
X57775222Y3530963D01*
X57775222Y3090000D01*
X69838835Y3090000D01*
X69838835Y3696258D01*
X69694269Y3712547D01*
X69672511Y3717512D01*
X69535188Y3765564D01*
X69515078Y3775248D01*
X69391892Y3852651D01*
X69374439Y3866570D01*
X69271570Y3969439D01*
X69257651Y3986892D01*
X69180248Y4110078D01*
X69170564Y4130188D01*
X69122512Y4267511D01*
X69117547Y4289269D01*
X69101258Y4433835D01*
X69101258Y4456165D01*
X69117547Y4600731D01*
X69122512Y4622489D01*
X69170564Y4759812D01*
X69180248Y4779922D01*
X69263626Y4912617D01*
X69262167Y4913534D01*
X69294955Y4981559D01*
X69300000Y5026195D01*
X69300000Y7613450D01*
X69300855Y7626493D01*
X69317030Y7749353D01*
X69323758Y7774462D01*
X69368668Y7882886D01*
X69381667Y7905402D01*
X69452775Y7998071D01*
X69461623Y8006822D01*
X69466208Y8014025D01*
X69689047Y8236864D01*
X69736360Y8312107D01*
X69746369Y8355893D01*
X69752548Y8410739D01*
X69757512Y8432489D01*
X69805564Y8569812D01*
X69815248Y8589922D01*
X69892651Y8713108D01*
X69906570Y8730561D01*
X70009439Y8833430D01*
X70026892Y8847349D01*
X70150078Y8924752D01*
X70170188Y8934436D01*
X70307511Y8982488D01*
X70329269Y8987453D01*
X70473835Y9003742D01*
X70496165Y9003742D01*
X70640731Y8987453D01*
X70662489Y8982488D01*
X70799812Y8934436D01*
X70819922Y8924752D01*
X70943108Y8847349D01*
X70960561Y8833430D01*
X71063430Y8730561D01*
X71077349Y8713108D01*
X71154752Y8589922D01*
X71164436Y8569812D01*
X71212488Y8432489D01*
X71217453Y8410731D01*
X71233742Y8266165D01*
X71233742Y8243835D01*
X71217453Y8099269D01*
X71212488Y8077511D01*
X71164436Y7940188D01*
X71154752Y7920078D01*
X71077349Y7796892D01*
X71063430Y7779439D01*
X70960561Y7676570D01*
X70943108Y7662651D01*
X70819922Y7585248D01*
X70799812Y7575564D01*
X70662489Y7527512D01*
X70640739Y7522548D01*
X70585893Y7516369D01*
X70501989Y7487040D01*
X70466864Y7459047D01*
X70458579Y7450762D01*
X70411266Y7375519D01*
X70400000Y7309341D01*
X70400000Y5026195D01*
X70419750Y4939535D01*
X70436573Y4912742D01*
X70436374Y4912617D01*
X70519752Y4779922D01*
X70529436Y4759812D01*
X70577488Y4622489D01*
X70582453Y4600731D01*
X70598742Y4456165D01*
X70598742Y4433835D01*
X70582453Y4289269D01*
X70577488Y4267511D01*
X70529436Y4130188D01*
X70519752Y4110078D01*
X70442349Y3986892D01*
X70428430Y3969439D01*
X70325561Y3866570D01*
X70308108Y3852651D01*
X70184922Y3775248D01*
X70164812Y3765564D01*
X70027489Y3717512D01*
X70005731Y3712547D01*
X69861165Y3696258D01*
X69838835Y3696258D01*
X69838835Y3090000D01*
X73363127Y3090000D01*
X73363127Y4621500D01*
X73353895Y4621927D01*
X73166771Y4639266D01*
X73148681Y4642648D01*
X72972371Y4692813D01*
X72955211Y4699460D01*
X72791119Y4781169D01*
X72775468Y4790860D01*
X72629202Y4901315D01*
X72615576Y4913737D01*
X72492104Y5049178D01*
X72480997Y5063885D01*
X72384507Y5219722D01*
X72376298Y5236208D01*
X72310082Y5407135D01*
X72305046Y5424832D01*
X72271363Y5605019D01*
X72269665Y5623351D01*
X72269665Y5806649D01*
X72271363Y5824981D01*
X72305046Y6005168D01*
X72310082Y6022865D01*
X72376298Y6193792D01*
X72384507Y6210278D01*
X72480997Y6366115D01*
X72492104Y6380822D01*
X72615576Y6516263D01*
X72629202Y6528685D01*
X72775468Y6639140D01*
X72791119Y6648831D01*
X72955211Y6730540D01*
X72972371Y6737187D01*
X73148681Y6787352D01*
X73154320Y6788406D01*
X73235875Y6823744D01*
X73294065Y6890930D01*
X73317396Y6976695D01*
X73301262Y7064100D01*
X73248848Y7135883D01*
X73157546Y7180034D01*
X73157570Y7180119D01*
X73157085Y7180257D01*
X73154320Y7181594D01*
X73148681Y7182648D01*
X72972371Y7232813D01*
X72955211Y7239460D01*
X72791119Y7321169D01*
X72775468Y7330860D01*
X72629202Y7441315D01*
X72615576Y7453737D01*
X72492104Y7589178D01*
X72480997Y7603885D01*
X72384507Y7759722D01*
X72376298Y7776208D01*
X72310082Y7947135D01*
X72305046Y7964832D01*
X72271363Y8145019D01*
X72269665Y8163351D01*
X72269665Y8346649D01*
X72271363Y8364981D01*
X72305046Y8545168D01*
X72310082Y8562865D01*
X72376298Y8733792D01*
X72384507Y8750278D01*
X72480997Y8906115D01*
X72492104Y8920822D01*
X72615576Y9056263D01*
X72629202Y9068685D01*
X72775468Y9179140D01*
X72791119Y9188831D01*
X72955211Y9270540D01*
X72972371Y9277187D01*
X73148681Y9327352D01*
X73154320Y9328406D01*
X73235875Y9363744D01*
X73294065Y9430930D01*
X73317396Y9516695D01*
X73301262Y9604100D01*
X73248848Y9675883D01*
X73157546Y9720034D01*
X73157570Y9720119D01*
X73157085Y9720257D01*
X73154320Y9721594D01*
X73148681Y9722648D01*
X72972371Y9772813D01*
X72955211Y9779460D01*
X72791119Y9861169D01*
X72775468Y9870860D01*
X72629202Y9981315D01*
X72615576Y9993737D01*
X72492104Y10129178D01*
X72480997Y10143885D01*
X72384507Y10299722D01*
X72376298Y10316208D01*
X72310082Y10487135D01*
X72305046Y10504832D01*
X72271363Y10685019D01*
X72269665Y10703351D01*
X72269665Y10886649D01*
X72271363Y10904981D01*
X72305046Y11085168D01*
X72310082Y11102865D01*
X72376298Y11273792D01*
X72384507Y11290278D01*
X72480997Y11446115D01*
X72492104Y11460822D01*
X72615576Y11596263D01*
X72629202Y11608685D01*
X72775468Y11719140D01*
X72791119Y11728831D01*
X72955211Y11810540D01*
X72972371Y11817187D01*
X73148681Y11867352D01*
X73154320Y11868406D01*
X73235875Y11903744D01*
X73294065Y11970930D01*
X73317396Y12056695D01*
X73301262Y12144100D01*
X73248848Y12215883D01*
X73157546Y12260034D01*
X73157570Y12260119D01*
X73157085Y12260257D01*
X73154320Y12261594D01*
X73148681Y12262648D01*
X72972371Y12312813D01*
X72955211Y12319460D01*
X72791119Y12401169D01*
X72775468Y12410860D01*
X72629202Y12521315D01*
X72615576Y12533737D01*
X72492104Y12669178D01*
X72480997Y12683885D01*
X72384507Y12839722D01*
X72376298Y12856208D01*
X72310082Y13027135D01*
X72305046Y13044832D01*
X72271363Y13225019D01*
X72269665Y13243351D01*
X72269665Y13426649D01*
X72271363Y13444981D01*
X72305046Y13625168D01*
X72310082Y13642865D01*
X72376298Y13813792D01*
X72384507Y13830278D01*
X72480997Y13986115D01*
X72492104Y14000822D01*
X72615576Y14136263D01*
X72629202Y14148685D01*
X72775468Y14259140D01*
X72791119Y14268831D01*
X72955211Y14350540D01*
X72972371Y14357187D01*
X73148681Y14407352D01*
X73154320Y14408406D01*
X73235875Y14443744D01*
X73294065Y14510930D01*
X73317396Y14596695D01*
X73301262Y14684100D01*
X73248848Y14755883D01*
X73157546Y14800034D01*
X73157570Y14800119D01*
X73157085Y14800257D01*
X73154320Y14801594D01*
X73148681Y14802648D01*
X72972371Y14852813D01*
X72955211Y14859460D01*
X72791119Y14941169D01*
X72775468Y14950860D01*
X72629202Y15061315D01*
X72615576Y15073737D01*
X72492104Y15209178D01*
X72480997Y15223885D01*
X72384507Y15379722D01*
X72376298Y15396208D01*
X72310082Y15567135D01*
X72305046Y15584832D01*
X72271363Y15765019D01*
X72269665Y15783351D01*
X72269665Y15966649D01*
X72271363Y15984981D01*
X72305046Y16165168D01*
X72310082Y16182865D01*
X72376298Y16353792D01*
X72384507Y16370278D01*
X72480997Y16526115D01*
X72492104Y16540822D01*
X72615576Y16676263D01*
X72629202Y16688685D01*
X72775468Y16799140D01*
X72791119Y16808831D01*
X72955211Y16890540D01*
X72972371Y16897187D01*
X73148681Y16947352D01*
X73154320Y16948406D01*
X73235875Y16983744D01*
X73294065Y17050930D01*
X73317396Y17136695D01*
X73301262Y17224100D01*
X73248848Y17295883D01*
X73157546Y17340034D01*
X73157570Y17340119D01*
X73157085Y17340257D01*
X73154320Y17341594D01*
X73148681Y17342648D01*
X72972371Y17392813D01*
X72955211Y17399460D01*
X72791119Y17481169D01*
X72775468Y17490860D01*
X72629202Y17601315D01*
X72615576Y17613737D01*
X72492104Y17749178D01*
X72480997Y17763885D01*
X72384507Y17919722D01*
X72376298Y17936208D01*
X72310082Y18107135D01*
X72305046Y18124832D01*
X72271363Y18305019D01*
X72269665Y18323351D01*
X72269665Y18506649D01*
X72271363Y18524981D01*
X72305046Y18705168D01*
X72310082Y18722865D01*
X72376298Y18893792D01*
X72384507Y18910278D01*
X72480997Y19066115D01*
X72492104Y19080822D01*
X72615576Y19216263D01*
X72629202Y19228685D01*
X72775468Y19339140D01*
X72791119Y19348831D01*
X72955211Y19430540D01*
X72972371Y19437187D01*
X73148681Y19487352D01*
X73154320Y19488406D01*
X73235875Y19523744D01*
X73294065Y19590930D01*
X73317396Y19676695D01*
X73301262Y19764100D01*
X73248848Y19835883D01*
X73157546Y19880034D01*
X73157570Y19880119D01*
X73157085Y19880257D01*
X73154320Y19881594D01*
X73148681Y19882648D01*
X72972371Y19932813D01*
X72955211Y19939460D01*
X72791119Y20021169D01*
X72775468Y20030860D01*
X72629202Y20141315D01*
X72615576Y20153737D01*
X72492104Y20289178D01*
X72480997Y20303885D01*
X72384507Y20459722D01*
X72376298Y20476208D01*
X72310082Y20647135D01*
X72305046Y20664832D01*
X72271363Y20845019D01*
X72269665Y20863351D01*
X72269665Y21046649D01*
X72271363Y21064981D01*
X72305046Y21245168D01*
X72310082Y21262865D01*
X72376298Y21433792D01*
X72384507Y21450278D01*
X72480997Y21606115D01*
X72492104Y21620822D01*
X72615576Y21756263D01*
X72629202Y21768685D01*
X72775468Y21879140D01*
X72791119Y21888831D01*
X72955211Y21970540D01*
X72972371Y21977187D01*
X73084656Y22009135D01*
X73162602Y22051847D01*
X73214345Y22124115D01*
X73229664Y22211667D01*
X73205535Y22297211D01*
X73146722Y22363852D01*
X73029923Y22401500D01*
X72287502Y22401500D01*
X72268455Y22405841D01*
X72265000Y22412985D01*
X72265000Y24565998D01*
X72269341Y24585045D01*
X72276485Y24588500D01*
X75032498Y24588500D01*
X75051545Y24584159D01*
X75066585Y24553058D01*
X75082906Y24506509D01*
X75145754Y24443659D01*
X75229629Y24414247D01*
X75341367Y24433934D01*
X75495211Y24510540D01*
X75512371Y24517187D01*
X75688681Y24567352D01*
X75706771Y24570734D01*
X75893895Y24588073D01*
X75903127Y24588500D01*
X76496873Y24588500D01*
X76506105Y24588073D01*
X76693229Y24570734D01*
X76711319Y24567352D01*
X76887629Y24517187D01*
X76904789Y24510540D01*
X77068881Y24428831D01*
X77084532Y24419140D01*
X77230798Y24308685D01*
X77244424Y24296263D01*
X77367896Y24160822D01*
X77379003Y24146115D01*
X77475493Y23990278D01*
X77483702Y23973792D01*
X77549918Y23802865D01*
X77554954Y23785168D01*
X77588637Y23604981D01*
X77590335Y23586649D01*
X77590335Y23403351D01*
X77588637Y23385019D01*
X77554954Y23204832D01*
X77549918Y23187135D01*
X77483702Y23016208D01*
X77475493Y22999722D01*
X77379003Y22843885D01*
X77367896Y22829178D01*
X77244424Y22693737D01*
X77230798Y22681315D01*
X77084532Y22570860D01*
X77068881Y22561169D01*
X76904789Y22479460D01*
X76887629Y22472813D01*
X76711319Y22422648D01*
X76693229Y22419266D01*
X76506105Y22401927D01*
X76496873Y22401500D01*
X75903127Y22401500D01*
X75893895Y22401927D01*
X75706771Y22419266D01*
X75688681Y22422648D01*
X75512371Y22472813D01*
X75495202Y22479464D01*
X75338857Y22557315D01*
X75252479Y22578264D01*
X75165554Y22559716D01*
X75095249Y22505335D01*
X75054709Y22422725D01*
X75050659Y22404955D01*
X75043515Y22401500D01*
X74290077Y22401500D01*
X74203417Y22381750D01*
X74133873Y22326401D01*
X74095178Y22246383D01*
X74094977Y22157502D01*
X74133307Y22077310D01*
X74235344Y22009135D01*
X74347629Y21977187D01*
X74364789Y21970540D01*
X74528881Y21888831D01*
X74544532Y21879140D01*
X74690798Y21768685D01*
X74704424Y21756263D01*
X74827896Y21620822D01*
X74839003Y21606115D01*
X74935493Y21450278D01*
X74943702Y21433792D01*
X75009918Y21262865D01*
X75014954Y21245168D01*
X75048637Y21064981D01*
X75050335Y21046649D01*
X75050335Y20863351D01*
X75048637Y20845019D01*
X75014954Y20664832D01*
X75009918Y20647135D01*
X74943702Y20476208D01*
X74935493Y20459722D01*
X74839003Y20303885D01*
X74827896Y20289178D01*
X74704424Y20153737D01*
X74690798Y20141315D01*
X74544532Y20030860D01*
X74528881Y20021169D01*
X74364789Y19939460D01*
X74347629Y19932813D01*
X74171319Y19882648D01*
X74165680Y19881594D01*
X74084125Y19846256D01*
X74025935Y19779070D01*
X74002604Y19693305D01*
X74018738Y19605900D01*
X74071152Y19534117D01*
X74162454Y19489966D01*
X74162430Y19489881D01*
X74162915Y19489743D01*
X74165680Y19488406D01*
X74171319Y19487352D01*
X74347629Y19437187D01*
X74364789Y19430540D01*
X74528881Y19348831D01*
X74544532Y19339140D01*
X74690798Y19228685D01*
X74704419Y19216268D01*
X74782199Y19130948D01*
X74855177Y19080212D01*
X74942933Y19066107D01*
X75028134Y19091419D01*
X75077801Y19130948D01*
X75155581Y19216268D01*
X75169202Y19228685D01*
X75315468Y19339140D01*
X75331119Y19348831D01*
X75495211Y19430540D01*
X75512371Y19437187D01*
X75688681Y19487352D01*
X75706771Y19490734D01*
X75893895Y19508073D01*
X75903127Y19508500D01*
X76496873Y19508500D01*
X76506105Y19508073D01*
X76693229Y19490734D01*
X76711319Y19487352D01*
X76887629Y19437187D01*
X76904789Y19430540D01*
X77068881Y19348831D01*
X77084532Y19339140D01*
X77230798Y19228685D01*
X77244424Y19216263D01*
X77367896Y19080822D01*
X77379003Y19066115D01*
X77475493Y18910278D01*
X77483702Y18893792D01*
X77549918Y18722865D01*
X77554954Y18705168D01*
X77588637Y18524981D01*
X77590335Y18506649D01*
X77590335Y18323351D01*
X77588637Y18305019D01*
X77554954Y18124832D01*
X77549918Y18107135D01*
X77483702Y17936208D01*
X77475493Y17919722D01*
X77379003Y17763885D01*
X77367896Y17749178D01*
X77244424Y17613737D01*
X77230798Y17601315D01*
X77084532Y17490860D01*
X77068881Y17481169D01*
X76904789Y17399460D01*
X76887629Y17392813D01*
X76711319Y17342648D01*
X76705680Y17341594D01*
X76624125Y17306256D01*
X76565935Y17239070D01*
X76542604Y17153305D01*
X76558738Y17065900D01*
X76611152Y16994117D01*
X76702454Y16949966D01*
X76702430Y16949881D01*
X76702915Y16949743D01*
X76705680Y16948406D01*
X76711319Y16947352D01*
X76887629Y16897187D01*
X76904789Y16890540D01*
X77068881Y16808831D01*
X77084532Y16799140D01*
X77230798Y16688685D01*
X77244424Y16676263D01*
X77367896Y16540822D01*
X77379003Y16526115D01*
X77475493Y16370278D01*
X77483702Y16353792D01*
X77549918Y16182865D01*
X77554954Y16165168D01*
X77588637Y15984981D01*
X77590335Y15966649D01*
X77590335Y15783351D01*
X77588637Y15765019D01*
X77554954Y15584832D01*
X77549918Y15567135D01*
X77483702Y15396208D01*
X77475493Y15379722D01*
X77379003Y15223885D01*
X77367896Y15209178D01*
X77244424Y15073737D01*
X77230798Y15061315D01*
X77084532Y14950860D01*
X77068881Y14941169D01*
X76904789Y14859460D01*
X76887629Y14852813D01*
X76711319Y14802648D01*
X76705680Y14801594D01*
X76624125Y14766256D01*
X76565935Y14699070D01*
X76542604Y14613305D01*
X76558738Y14525900D01*
X76611152Y14454117D01*
X76702454Y14409966D01*
X76702430Y14409881D01*
X76702915Y14409743D01*
X76705680Y14408406D01*
X76711319Y14407352D01*
X76887629Y14357187D01*
X76904789Y14350540D01*
X77068881Y14268831D01*
X77084532Y14259140D01*
X77230798Y14148685D01*
X77244424Y14136263D01*
X77367896Y14000822D01*
X77379003Y13986115D01*
X77475493Y13830278D01*
X77483702Y13813792D01*
X77549918Y13642865D01*
X77554954Y13625168D01*
X77588637Y13444981D01*
X77590335Y13426649D01*
X77590335Y13243351D01*
X77588637Y13225019D01*
X77554954Y13044832D01*
X77549918Y13027135D01*
X77483702Y12856208D01*
X77475493Y12839722D01*
X77379003Y12683885D01*
X77367896Y12669178D01*
X77244424Y12533737D01*
X77230798Y12521315D01*
X77084532Y12410860D01*
X77068881Y12401169D01*
X76904789Y12319460D01*
X76887629Y12312813D01*
X76711319Y12262648D01*
X76705680Y12261594D01*
X76624125Y12226256D01*
X76565935Y12159070D01*
X76542604Y12073305D01*
X76558738Y11985900D01*
X76611152Y11914117D01*
X76702454Y11869966D01*
X76702430Y11869881D01*
X76702915Y11869743D01*
X76705680Y11868406D01*
X76711319Y11867352D01*
X76887629Y11817187D01*
X76904789Y11810540D01*
X77068881Y11728831D01*
X77084532Y11719140D01*
X77230798Y11608685D01*
X77244424Y11596263D01*
X77367896Y11460822D01*
X77379003Y11446115D01*
X77475493Y11290278D01*
X77483702Y11273792D01*
X77549918Y11102865D01*
X77554954Y11085168D01*
X77588637Y10904981D01*
X77590335Y10886649D01*
X77590335Y10703351D01*
X77588637Y10685019D01*
X77554954Y10504832D01*
X77549918Y10487135D01*
X77483702Y10316208D01*
X77475493Y10299722D01*
X77379003Y10143885D01*
X77367896Y10129178D01*
X77244424Y9993737D01*
X77230798Y9981315D01*
X77084532Y9870860D01*
X77068881Y9861169D01*
X76904789Y9779460D01*
X76887629Y9772813D01*
X76711319Y9722648D01*
X76705680Y9721594D01*
X76624125Y9686256D01*
X76565935Y9619070D01*
X76542604Y9533305D01*
X76558738Y9445900D01*
X76611152Y9374117D01*
X76702454Y9329966D01*
X76702430Y9329881D01*
X76702915Y9329743D01*
X76705680Y9328406D01*
X76711319Y9327352D01*
X76887629Y9277187D01*
X76904789Y9270540D01*
X77068881Y9188831D01*
X77084532Y9179140D01*
X77230798Y9068685D01*
X77244424Y9056263D01*
X77367896Y8920822D01*
X77379003Y8906115D01*
X77475493Y8750278D01*
X77483702Y8733792D01*
X77549918Y8562865D01*
X77554954Y8545168D01*
X77588637Y8364981D01*
X77590335Y8346649D01*
X77590335Y8163351D01*
X77588637Y8145019D01*
X77554954Y7964832D01*
X77549918Y7947135D01*
X77483702Y7776208D01*
X77475493Y7759722D01*
X77379003Y7603885D01*
X77367896Y7589178D01*
X77244424Y7453737D01*
X77230798Y7441315D01*
X77084532Y7330860D01*
X77068881Y7321169D01*
X76904789Y7239460D01*
X76887629Y7232813D01*
X76711319Y7182648D01*
X76693229Y7179266D01*
X76506105Y7161927D01*
X76496873Y7161500D01*
X75903127Y7161500D01*
X75893895Y7161927D01*
X75706771Y7179266D01*
X75688681Y7182648D01*
X75512371Y7232813D01*
X75495211Y7239460D01*
X75331119Y7321169D01*
X75315468Y7330860D01*
X75169202Y7441315D01*
X75155581Y7453732D01*
X75077801Y7539052D01*
X75004823Y7589788D01*
X74917067Y7603893D01*
X74831866Y7578581D01*
X74782199Y7539052D01*
X74704419Y7453732D01*
X74690798Y7441315D01*
X74544532Y7330860D01*
X74528881Y7321169D01*
X74364789Y7239460D01*
X74347629Y7232813D01*
X74171319Y7182648D01*
X74165680Y7181594D01*
X74084125Y7146256D01*
X74025935Y7079070D01*
X74002604Y6993305D01*
X74018738Y6905900D01*
X74071152Y6834117D01*
X74162454Y6789966D01*
X74162430Y6789881D01*
X74162915Y6789743D01*
X74165680Y6788406D01*
X74171319Y6787352D01*
X74347629Y6737187D01*
X74364789Y6730540D01*
X74528881Y6648831D01*
X74544532Y6639140D01*
X74690798Y6528685D01*
X74704424Y6516263D01*
X74827896Y6380822D01*
X74839003Y6366115D01*
X74935493Y6210278D01*
X74943702Y6193792D01*
X75009918Y6022865D01*
X75014954Y6005168D01*
X75048637Y5824981D01*
X75050335Y5806649D01*
X75050335Y5623351D01*
X75048637Y5605019D01*
X75014954Y5424832D01*
X75009918Y5407135D01*
X74943702Y5236208D01*
X74935493Y5219722D01*
X74839003Y5063885D01*
X74827896Y5049178D01*
X74704424Y4913737D01*
X74690798Y4901315D01*
X74544532Y4790860D01*
X74528881Y4781169D01*
X74364789Y4699460D01*
X74347629Y4692813D01*
X74171319Y4642648D01*
X74153229Y4639266D01*
X73966105Y4621927D01*
X73956873Y4621500D01*
X73363127Y4621500D01*
X73363127Y3090000D01*
X77159341Y3090000D01*
X77246001Y3109750D01*
X77300762Y3148579D01*
X78131421Y3979238D01*
X78178734Y4054481D01*
X78190000Y4120659D01*
X78190000Y10213805D01*
X78170250Y10300465D01*
X78153427Y10327258D01*
X78153626Y10327383D01*
X78070248Y10460078D01*
X78060564Y10480188D01*
X78012512Y10617511D01*
X78007547Y10639269D01*
X77991258Y10783835D01*
X77991258Y10806165D01*
X78007547Y10950731D01*
X78012512Y10972489D01*
X78060564Y11109812D01*
X78070248Y11129922D01*
X78147651Y11253108D01*
X78161570Y11270561D01*
X78264439Y11373430D01*
X78281892Y11387349D01*
X78405078Y11464752D01*
X78425188Y11474436D01*
X78562511Y11522488D01*
X78584269Y11527453D01*
X78728835Y11543742D01*
X78751165Y11543742D01*
X78895731Y11527453D01*
X78917489Y11522488D01*
X79054812Y11474436D01*
X79074922Y11464752D01*
X79198108Y11387349D01*
X79215561Y11373430D01*
X79318430Y11270561D01*
X79332349Y11253108D01*
X79409752Y11129922D01*
X79419436Y11109812D01*
X79467488Y10972489D01*
X79472453Y10950731D01*
X79488742Y10806165D01*
X79488742Y10783835D01*
X79472453Y10639269D01*
X79467488Y10617511D01*
X79419436Y10480188D01*
X79409752Y10460078D01*
X79326374Y10327383D01*
X79327833Y10326466D01*
X79295045Y10258441D01*
X79290000Y10213805D01*
X79290000Y3816550D01*
X79289145Y3803507D01*
X79272970Y3680647D01*
X79266242Y3655538D01*
X79221332Y3547114D01*
X79208333Y3524598D01*
X79137225Y3431929D01*
X79128377Y3423178D01*
X79123792Y3415975D01*
X77869238Y2161421D01*
X77821925Y2086178D01*
X77811888Y1997865D01*
X77841108Y1913923D01*
X77903814Y1850932D01*
X78010659Y1820000D01*
X79064341Y1820000D01*
X79151001Y1839750D01*
X79205762Y1878579D01*
X80036421Y2709238D01*
X80083734Y2784481D01*
X80095000Y2850659D01*
X80095000Y12389341D01*
X80075250Y12476001D01*
X80036421Y12530762D01*
X79840762Y12726421D01*
X79765519Y12773734D01*
X79699341Y12785000D01*
X79321195Y12785000D01*
X79234535Y12765250D01*
X79207742Y12748427D01*
X79207617Y12748626D01*
X79074922Y12665248D01*
X79054812Y12655564D01*
X78917489Y12607512D01*
X78895731Y12602547D01*
X78751165Y12586258D01*
X78728835Y12586258D01*
X78584269Y12602547D01*
X78562511Y12607512D01*
X78425188Y12655564D01*
X78405078Y12665248D01*
X78281892Y12742651D01*
X78264439Y12756570D01*
X78161570Y12859439D01*
X78147651Y12876892D01*
X78070248Y13000078D01*
X78060564Y13020188D01*
X78012512Y13157511D01*
X78007547Y13179269D01*
X77991258Y13323835D01*
X77991258Y13346165D01*
X78007547Y13490731D01*
X78012512Y13512489D01*
X78060564Y13649812D01*
X78070248Y13669922D01*
X78147651Y13793108D01*
X78161570Y13810561D01*
X78264439Y13913430D01*
X78281892Y13927349D01*
X78405078Y14004752D01*
X78425188Y14014436D01*
X78562511Y14062488D01*
X78584269Y14067453D01*
X78728835Y14083742D01*
X78751165Y14083742D01*
X78895731Y14067453D01*
X78917489Y14062488D01*
X79054812Y14014436D01*
X79074922Y14004752D01*
X79207617Y13921374D01*
X79208534Y13922833D01*
X79276559Y13890045D01*
X79321195Y13885000D01*
X80003450Y13885000D01*
X80016493Y13884145D01*
X80139353Y13867970D01*
X80164462Y13861242D01*
X80272886Y13816332D01*
X80295402Y13803333D01*
X80388071Y13732225D01*
X80396822Y13723377D01*
X80404025Y13718792D01*
X81022878Y13099939D01*
X81033377Y13086822D01*
X81042225Y13078071D01*
X81113333Y12985402D01*
X81126332Y12962886D01*
X81171242Y12854462D01*
X81177970Y12829353D01*
X81194145Y12706493D01*
X81195000Y12693450D01*
X81195000Y2546550D01*
X81194145Y2533507D01*
X81177970Y2410647D01*
X81171242Y2385538D01*
X81126332Y2277114D01*
X81113333Y2254598D01*
X81042225Y2161929D01*
X81033377Y2153178D01*
X81028792Y2145975D01*
X79774939Y892122D01*
X79761822Y881623D01*
X79753071Y872775D01*
X79660402Y801667D01*
X79637886Y788668D01*
X79529462Y743758D01*
X79504353Y737030D01*
X79381493Y720855D01*
X79368450Y720000D01*
X36836550Y720000D01*
X36836550Y300000D01*
X81500000Y300000D01*
X81586660Y319750D01*
G37*
G04 --- BOARD END --- *
G04 #@! TF.MD5,bcc527ccd9400f7486c87033242f254f*
M02*
