G04 --- HEADER BEGIN --- *
G04 #@! TF.GenerationSoftware,LibrePCB,LibrePCB,0.1.7*
G04 #@! TF.CreationDate,2023-11-18T14:18:11*
G04 #@! TF.ProjectId,CRi-CRi_Display,14a54b12-152a-4fb2-828b-3daff0557bc7,v1*
G04 #@! TF.Part,Single*
G04 #@! TF.SameCoordinates*
G04 #@! TF.FileFunction,Soldermask,Bot*
G04 #@! TF.FilePolarity,Negative*
%FSLAX66Y66*%
%MOMM*%
G01*
G75*
G04 --- HEADER END --- *
G04 --- APERTURE LIST BEGIN --- *
%ADD10O,1.787X2.39*%
%ADD11R,1.787X2.39*%
%ADD12O,2.39X1.787*%
%ADD13R,2.39X1.787*%
%ADD14O,1.5X2.7*%
G04 --- APERTURE LIST END --- *
G04 --- BOARD BEGIN --- *
D10*
G04 #@! TO.C,J6*
X5715000Y33020000D03*
D11*
X3175000Y33020000D03*
D10*
G04 #@! TO.C,J5*
X5715000Y25400000D03*
D11*
X3175000Y25400000D03*
D10*
G04 #@! TO.C,J4*
X5715000Y29210000D03*
D11*
X3175000Y29210000D03*
D12*
G04 #@! TO.C,J1*
X76200000Y8255000D03*
D13*
X73660000Y23495000D03*
D12*
X76200000Y10795000D03*
X73660000Y20955000D03*
X76200000Y15875000D03*
X76200000Y13335000D03*
X73660000Y5715000D03*
X73660000Y8255000D03*
X76200000Y23495000D03*
X76200000Y5715000D03*
X73660000Y10795000D03*
X73660000Y13335000D03*
X73660000Y18415000D03*
X76200000Y20955000D03*
X76200000Y18415000D03*
X73660000Y15875000D03*
D10*
G04 #@! TO.C,J2*
X62865000Y33655000D03*
D11*
X65405000Y33655000D03*
D10*
G04 #@! TO.C,J3*
X76835000Y33655000D03*
D11*
X74295000Y33655000D03*
D14*
G04 #@! TO.C,MCU1*
X19685000Y5080000D03*
X24765000Y5080000D03*
X37465000Y5080000D03*
X50165000Y30480000D03*
X14605000Y30480000D03*
X17145000Y5080000D03*
X57785000Y5080000D03*
X37465000Y30480000D03*
X29845000Y5080000D03*
X34925000Y5080000D03*
X17145000Y30480000D03*
X40005000Y30480000D03*
X34925000Y30480000D03*
X57785000Y30480000D03*
X29845000Y30480000D03*
X50165000Y5080000D03*
X42545000Y30480000D03*
X32385000Y30480000D03*
X22225000Y5080000D03*
X45085000Y30480000D03*
X42545000Y5080000D03*
X27305000Y30480000D03*
X47625000Y30480000D03*
X32385000Y5080000D03*
X45085000Y5080000D03*
X52705000Y30480000D03*
X55245000Y5080000D03*
X47625000Y5080000D03*
X14605000Y5080000D03*
X19685000Y30480000D03*
X24765000Y30480000D03*
X55245000Y30480000D03*
X27305000Y5080000D03*
X40005000Y5080000D03*
X52705000Y5080000D03*
X22225000Y30480000D03*
G04 --- BOARD END --- *
G04 #@! TF.MD5,4252a0b7b590cb1578137189857d7535*
M02*
