M48
; #@! TF.GenerationSoftware,LibrePCB,LibrePCB,0.1.7
; #@! TF.CreationDate,2023-11-18T14:18:11
; #@! TF.ProjectId,CRi-CRi_Display,14a54b12-152a-4fb2-828b-3daff0557bc7,v1
; #@! TF.Part,Single
; #@! TF.SameCoordinates
; #@! TF.FileFunction,MixedPlating,1,2
FMAT,2
METRIC,TZ
; #@! TA.AperFunction,Plated,PTH,ViaDrill
T1C0.4
; #@! TA.AperFunction,Plated,PTH,ComponentDrill
T2C0.8
; #@! TA.AperFunction,Plated,PTH,ComponentDrill
T3C0.9
%
G90
G05
M71
T1
X62.23Y15.875
X57.785Y11.43
X41.91Y26.67
X58.42Y26.67
X78.74Y18.415
X47.625Y7.62
X78.74Y10.795
X42.545Y3.175
X43.815Y21.59
X56.515Y19.685
X52.07Y21.59
X46.99Y23.495
X41.275Y8.89
X78.74Y15.875
X78.74Y13.335
X34.925Y3.175
X67.945Y15.875
X55.88Y13.335
X57.785Y17.78
X40.64Y19.685
X70.485Y8.255
X69.85Y4.445
X56.515Y25.4
X37.465Y25.4
X65.405Y10.16
X52.07Y11.43
T2
X22.225Y30.48
X52.705Y5.08
X40.005Y5.08
X27.305Y5.08
X55.245Y30.48
X24.765Y30.48
X19.685Y30.48
X14.605Y5.08
X47.625Y5.08
X55.245Y5.08
X52.705Y30.48
X45.085Y5.08
X32.385Y5.08
X47.625Y30.48
X27.305Y30.48
X42.545Y5.08
X45.085Y30.48
X22.225Y5.08
X32.385Y30.48
X42.545Y30.48
X50.165Y5.08
X29.845Y30.48
X57.785Y30.48
X34.925Y30.48
X40.005Y30.48
X17.145Y30.48
X34.925Y5.08
X29.845Y5.08
X37.465Y30.48
X57.785Y5.08
X17.145Y5.08
X14.605Y30.48
X50.165Y30.48
X37.465Y5.08
X24.765Y5.08
X19.685Y5.08
T3
X74.295Y33.655
X76.835Y33.655
X65.405Y33.655
X62.865Y33.655
X73.66Y15.875
X76.2Y18.415
X76.2Y20.955
X73.66Y18.415
X73.66Y13.335
X73.66Y10.795
X76.2Y5.715
X76.2Y23.495
X73.66Y8.255
X73.66Y5.715
X76.2Y13.335
X76.2Y15.875
X73.66Y20.955
X76.2Y10.795
X73.66Y23.495
X76.2Y8.255
X3.175Y29.21
X5.715Y29.21
X3.175Y25.4
X5.715Y25.4
X3.175Y33.02
X5.715Y33.02
T0
M30
