G04 --- HEADER BEGIN --- *
G04 #@! TF.GenerationSoftware,LibrePCB,LibrePCB,0.1.7*
G04 #@! TF.CreationDate,2023-11-18T14:18:11*
G04 #@! TF.ProjectId,CRi-CRi_Display,14a54b12-152a-4fb2-828b-3daff0557bc7,v1*
G04 #@! TF.Part,Single*
G04 #@! TF.SameCoordinates*
G04 #@! TF.FileFunction,Copper,L2,Bot*
G04 #@! TF.FilePolarity,Positive*
%FSLAX66Y66*%
%MOMM*%
G01*
G75*
G04 --- HEADER END --- *
G04 --- APERTURE LIST BEGIN --- *
G04 #@! TA.AperFunction,ComponentPad*
%ADD10O,1.587X2.19*%
%ADD11R,1.587X2.19*%
%ADD12O,2.19X1.587*%
%ADD13R,2.19X1.587*%
%ADD14O,1.3X2.5*%
G04 #@! TA.AperFunction,ViaPad*
%ADD15C,0.9*%
G04 #@! TA.AperFunction,Conductor*
%ADD16C,0.5*%
%ADD17C,0.01*%
G04 #@! TD*
G04 --- APERTURE LIST END --- *
G04 --- BOARD BEGIN --- *
D10*
G04 #@! TO.N,N17*
G04 #@! TO.C,J6*
G04 #@! TO.P,J6,2,2*
X5715000Y33020000D03*
D11*
G04 #@! TO.N,GND*
G04 #@! TO.P,J6,1,1*
X3175000Y33020000D03*
D10*
G04 #@! TO.N,N11*
G04 #@! TO.C,J5*
G04 #@! TO.P,J5,2,2*
X5715000Y25400000D03*
D11*
G04 #@! TO.N,GND*
G04 #@! TO.P,J5,1,1*
X3175000Y25400000D03*
D10*
G04 #@! TO.N,N16*
G04 #@! TO.C,J4*
G04 #@! TO.P,J4,2,2*
X5715000Y29210000D03*
D11*
G04 #@! TO.N,GND*
G04 #@! TO.P,J4,1,1*
X3175000Y29210000D03*
D12*
G04 #@! TO.N,N15*
G04 #@! TO.C,J1*
G04 #@! TO.P,J1,14,14*
X76200000Y8255000D03*
D13*
G04 #@! TO.N,N1*
G04 #@! TO.P,J1,1,1*
X73660000Y23495000D03*
D12*
G04 #@! TO.N,N10*
G04 #@! TO.P,J1,12,12*
X76200000Y10795000D03*
G04 #@! TO.N,N2*
G04 #@! TO.P,J1,3,3*
X73660000Y20955000D03*
G04 #@! TO.N,N7*
G04 #@! TO.P,J1,8,8*
X76200000Y15875000D03*
G04 #@! TO.N,N13*
G04 #@! TO.P,J1,10,10*
X76200000Y13335000D03*
G04 #@! TO.N,N14*
G04 #@! TO.P,J1,15,15*
X73660000Y5715000D03*
G04 #@! TO.N,N12*
G04 #@! TO.P,J1,13,13*
X73660000Y8255000D03*
G04 #@! TO.N,N3*
G04 #@! TO.P,J1,2,2*
X76200000Y23495000D03*
G04 #@! TO.N,GND*
G04 #@! TO.P,J1,16,16*
X76200000Y5715000D03*
G04 #@! TO.N,N9*
G04 #@! TO.P,J1,11,11*
X73660000Y10795000D03*
G04 #@! TO.N,N8*
G04 #@! TO.P,J1,9,9*
X73660000Y13335000D03*
G04 #@! TO.N,N4*
G04 #@! TO.P,J1,5,5*
X73660000Y18415000D03*
G04 #@! TO.N,GND*
G04 #@! TO.P,J1,4,4*
X76200000Y20955000D03*
G04 #@! TO.N,N6*
G04 #@! TO.P,J1,6,6*
X76200000Y18415000D03*
G04 #@! TO.N,N5*
G04 #@! TO.P,J1,7,7*
X73660000Y15875000D03*
D10*
G04 #@! TO.N,VCC*
G04 #@! TO.C,J2*
G04 #@! TO.P,J2,2,2*
X62865000Y33655000D03*
D11*
G04 #@! TO.N,GND*
G04 #@! TO.P,J2,1,1*
X65405000Y33655000D03*
D10*
G04 #@! TO.N,VCC*
G04 #@! TO.C,J3*
G04 #@! TO.P,J3,2,2*
X76835000Y33655000D03*
D11*
G04 #@! TO.N,GND*
G04 #@! TO.P,J3,1,1*
X74295000Y33655000D03*
D14*
G04 #@! TO.N,N/C*
G04 #@! TO.C,MCU1*
G04 #@! TO.P,MCU1,SD0,GPIO7*
X19685000Y5080000D03*
G04 #@! TO.P,MCU1,G0,GPIO0*
X24765000Y5080000D03*
G04 #@! TO.N,N9*
G04 #@! TO.P,MCU1,G17,GPIO17*
X37465000Y5080000D03*
G04 #@! TO.N,N/C*
G04 #@! TO.P,MCU1,G34,GPIO34*
X50165000Y30480000D03*
G04 #@! TO.N,VCC*
G04 #@! TO.P,MCU1,5V,5V*
X14605000Y30480000D03*
G04 #@! TO.N,N/C*
G04 #@! TO.P,MCU1,CLK,GPIO6*
X17145000Y5080000D03*
G04 #@! TO.N,N4*
G04 #@! TO.P,MCU1,G23,GPIO23*
X57785000Y5080000D03*
G04 #@! TO.N,N2*
G04 #@! TO.P,MCU1,G26,GPIO26*
X37465000Y30480000D03*
G04 #@! TO.N,N/C*
G04 #@! TO.P,MCU1,G2,GPIO2*
X29845000Y5080000D03*
G04 #@! TO.N,N13*
G04 #@! TO.P,MCU1,G16,GPIO16*
X34925000Y5080000D03*
G04 #@! TO.N,GND*
G04 #@! TO.P,MCU1,GND1,GND*
X17145000Y30480000D03*
G04 #@! TO.N,N3*
G04 #@! TO.P,MCU1,G25,GPIO25*
X40005000Y30480000D03*
G04 #@! TO.N,N1*
G04 #@! TO.P,MCU1,G27,GPIO27*
X34925000Y30480000D03*
G04 #@! TO.N,N/C*
G04 #@! TO.P,MCU1,EN,EN*
X57785000Y30480000D03*
G04 #@! TO.N,N8*
G04 #@! TO.P,MCU1,G12,GPIO12*
X29845000Y30480000D03*
G04 #@! TO.N,N/C*
G04 #@! TO.P,MCU1,RXD,GPIO3*
X50165000Y5080000D03*
G04 #@! TO.N,N14*
G04 #@! TO.P,MCU1,G33,GPIO33*
X42545000Y30480000D03*
G04 #@! TO.N,N/C*
G04 #@! TO.P,MCU1,G14,GPIO14*
X32385000Y30480000D03*
G04 #@! TO.P,MCU1,SD1,GPIO8*
X22225000Y5080000D03*
G04 #@! TO.N,N15*
G04 #@! TO.P,MCU1,G32,GPIO32*
X45085000Y30480000D03*
G04 #@! TO.N,N10*
G04 #@! TO.P,MCU1,G18,GPIO18*
X42545000Y5080000D03*
G04 #@! TO.N,N17*
G04 #@! TO.P,MCU1,G13,GPIO13*
X27305000Y30480000D03*
G04 #@! TO.N,N/C*
G04 #@! TO.P,MCU1,G35,GPIO35*
X47625000Y30480000D03*
G04 #@! TO.P,MCU1,G4,GPIO4*
X32385000Y5080000D03*
G04 #@! TO.P,MCU1,G19,GPIO19*
X45085000Y5080000D03*
G04 #@! TO.N,N16*
G04 #@! TO.P,MCU1,SM,GPIO39*
X52705000Y30480000D03*
G04 #@! TO.N,N5*
G04 #@! TO.P,MCU1,G22,GPIO22*
X55245000Y5080000D03*
G04 #@! TO.N,N6*
G04 #@! TO.P,MCU1,G21,GPIO21*
X47625000Y5080000D03*
G04 #@! TO.N,N/C*
G04 #@! TO.P,MCU1,3V3,3V3*
X14605000Y5080000D03*
G04 #@! TO.P,MCU1,CMD,GPIO11*
X19685000Y30480000D03*
G04 #@! TO.P,MCU1,SD2,GPIO9*
X24765000Y30480000D03*
G04 #@! TO.N,N11*
G04 #@! TO.P,MCU1,SP,GPIO36*
X55245000Y30480000D03*
G04 #@! TO.N,N12*
G04 #@! TO.P,MCU1,G15,GPIO15*
X27305000Y5080000D03*
G04 #@! TO.N,N7*
G04 #@! TO.P,MCU1,G5,GPIO5*
X40005000Y5080000D03*
G04 #@! TO.N,N/C*
G04 #@! TO.P,MCU1,TXD,GPIO1*
X52705000Y5080000D03*
G04 #@! TO.P,MCU1,SD3,GPIO10*
X22225000Y30480000D03*
D15*
G04 #@! TD.C*
G04 #@! TD.P*
G04 #@! TO.N,N9*
X52070000Y11430000D03*
X65405000Y10160000D03*
D16*
X52070000Y11430000D02*
X40640000Y11430000D01*
X37465000Y5080000D02*
X37465000Y8255000D01*
X65405000Y10160000D02*
X66040000Y10795000D01*
X73660000Y10795000D02*
X66040000Y10795000D01*
X40640000Y11430000D02*
X37465000Y8255000D01*
G04 #@! TO.N,N15*
X80645000Y9525000D02*
X79375000Y8255000D01*
X45085000Y30480000D02*
X45085000Y32385000D01*
X59690000Y33655000D02*
X46355000Y33655000D01*
X62865000Y30480000D02*
X76200000Y30480000D01*
X76200000Y30480000D02*
X80645000Y26035000D01*
X80645000Y26035000D02*
X80645000Y9525000D01*
X79375000Y8255000D02*
X76200000Y8255000D01*
X59690000Y33655000D02*
X62865000Y30480000D01*
X45085000Y32385000D02*
X46355000Y33655000D01*
D15*
G04 #@! TO.N,N1*
X37465000Y25400000D03*
X56515000Y25400000D03*
D16*
X71755000Y25400000D02*
X73660000Y23495000D01*
X73660000Y23495000D02*
X73660000Y23495000D01*
X56515000Y25400000D02*
X71755000Y25400000D01*
X37465000Y25400000D02*
X34925000Y27940000D01*
X34925000Y30480000D02*
X34925000Y27940000D01*
G04 #@! TO.N,N11*
X44450000Y16510000D02*
X55245000Y27305000D01*
X5715000Y25400000D02*
X14605000Y16510000D01*
X55245000Y27305000D02*
X55245000Y30480000D01*
X14605000Y16510000D02*
X44450000Y16510000D01*
D15*
G04 #@! TO.N,N12*
X69850000Y4445000D03*
X70485000Y8255000D03*
D16*
X28575000Y1270000D02*
X66675000Y1270000D01*
X27305000Y2540000D02*
X28575000Y1270000D01*
X66675000Y1270000D02*
X69850000Y4445000D01*
X27305000Y5080000D02*
X27305000Y2540000D01*
X73660000Y8255000D02*
X70485000Y8255000D01*
D15*
G04 #@! TO.N,N8*
X40640000Y19685000D03*
X57785000Y17780000D03*
D16*
X62230000Y13335000D02*
X73660000Y13335000D01*
X40640000Y19685000D02*
X29845000Y30480000D01*
X57785000Y17780000D02*
X62230000Y13335000D01*
D15*
G04 #@! TO.N,N5*
X55880000Y13335000D03*
X67945000Y15875000D03*
D16*
X55880000Y13335000D02*
X55245000Y12700000D01*
X55245000Y5080000D02*
X55245000Y12700000D01*
X73660000Y15875000D02*
X67945000Y15875000D01*
D15*
G04 #@! TO.N,N13*
X34925000Y3175000D03*
X78740000Y13335000D03*
D16*
X34925000Y5080000D02*
X34925000Y3175000D01*
X78740000Y13335000D02*
X76200000Y13335000D01*
D15*
G04 #@! TO.N,N7*
X78740000Y15875000D03*
X41275000Y8890000D03*
D16*
X78740000Y15875000D02*
X76200000Y15875000D01*
X40005000Y5080000D02*
X40005000Y7620000D01*
X41275000Y8890000D02*
X40005000Y7620000D01*
D15*
G04 #@! TO.N,N14*
X46990000Y23495000D03*
X52070000Y21590000D03*
D16*
X42545000Y30480000D02*
X42545000Y28575000D01*
X66675000Y5715000D02*
X52070000Y21590000D01*
X42545000Y28575000D02*
X46990000Y24130000D01*
X66675000Y5715000D02*
X73660000Y5715000D01*
X46990000Y24130000D02*
X46990000Y23495000D01*
G04 #@! TO.N,VCC*
X62865000Y32385000D02*
X63500000Y31750000D01*
X14605000Y30480000D02*
X14605000Y31750000D01*
X76835000Y33655000D02*
X76835000Y32385000D01*
X62865000Y33655000D02*
X62865000Y32385000D01*
X76835000Y32385000D02*
X76200000Y31750000D01*
X76200000Y31750000D02*
X63500000Y31750000D01*
X61595000Y34925000D02*
X62865000Y33655000D01*
X14605000Y31750000D02*
X17780000Y34925000D01*
X17780000Y34925000D02*
X61595000Y34925000D01*
D15*
G04 #@! TO.N,N2*
X56515000Y19685000D03*
X43815000Y21590000D03*
D16*
X73660000Y20955000D02*
X71755000Y20955000D01*
X70485000Y19685000D02*
X71755000Y20955000D01*
X37465000Y30480000D02*
X37465000Y27940000D01*
X56515000Y19685000D02*
X70485000Y19685000D01*
X43815000Y21590000D02*
X37465000Y27940000D01*
D15*
G04 #@! TO.N,N10*
X42545000Y3175000D03*
X78740000Y10795000D03*
D16*
X42545000Y5080000D02*
X42545000Y3175000D01*
X78740000Y10795000D02*
X76200000Y10795000D01*
G04 #@! TO.N,N16*
X17145000Y17780000D02*
X43815000Y17780000D01*
X52705000Y30480000D02*
X52705000Y26670000D01*
X43815000Y17780000D02*
X52705000Y26670000D01*
X17145000Y17780000D02*
X5715000Y29210000D01*
D15*
G04 #@! TO.N,N6*
X47625000Y7620000D03*
X78740000Y18415000D03*
D16*
X76200000Y18415000D02*
X78740000Y18415000D01*
X47625000Y7620000D02*
X47625000Y5080000D01*
D15*
G04 #@! TO.N,N3*
X58420000Y26670000D03*
X41910000Y26670000D03*
D16*
X40005000Y30480000D02*
X40005000Y28575000D01*
X73025000Y26670000D02*
X76200000Y23495000D01*
X76200000Y23495000D02*
X76200000Y23495000D01*
X41910000Y26670000D02*
X40005000Y28575000D01*
X58420000Y26670000D02*
X73025000Y26670000D01*
D15*
G04 #@! TO.N,N4*
X57785000Y11430000D03*
X62230000Y15875000D03*
D16*
X57785000Y11430000D02*
X57785000Y5080000D01*
X64770000Y18415000D02*
X73660000Y18415000D01*
X62230000Y15875000D02*
X64770000Y18415000D01*
G04 #@! TO.N,N17*
X19685000Y19050000D02*
X5715000Y33020000D01*
X27305000Y30480000D02*
X27305000Y20955000D01*
X19685000Y19050000D02*
X25400000Y19050000D01*
X27305000Y20955000D02*
X25400000Y19050000D01*
D17*
G04 #@! TA.AperFunction,Conductor*
G04 #@! TO.N,GND*
G36*
X81586660Y319750D02*
X81656204Y375099D01*
X81694899Y455117D01*
X81700000Y500000D01*
X81700000Y35500000D01*
X81680250Y35586660D01*
X81624901Y35656204D01*
X81544883Y35694899D01*
X81500000Y35700000D01*
X62069927Y35700000D01*
X61983267Y35680250D01*
X61913723Y35624901D01*
X61875028Y35544883D01*
X61874827Y35456002D01*
X61913157Y35375810D01*
X61948174Y35341330D01*
X61973069Y35322227D01*
X61981822Y35313377D01*
X61989025Y35308792D01*
X62274530Y35023287D01*
X62349773Y34975974D01*
X62438086Y34965937D01*
X62488198Y34978213D01*
X62557131Y35004917D01*
X62574832Y35009954D01*
X62755019Y35043637D01*
X62773351Y35045335D01*
X62956649Y35045335D01*
X62974981Y35043637D01*
X63155168Y35009954D01*
X63172865Y35004918D01*
X63343792Y34938702D01*
X63360278Y34930493D01*
X63516115Y34834003D01*
X63530822Y34822896D01*
X63666263Y34699424D01*
X63678685Y34685798D01*
X63789140Y34539532D01*
X63798831Y34523881D01*
X63880540Y34359789D01*
X63887187Y34342629D01*
X63937352Y34166319D01*
X63940734Y34148229D01*
X63958073Y33961105D01*
X63958500Y33951873D01*
X63958500Y33358127D01*
X63958073Y33348895D01*
X63940734Y33161771D01*
X63937352Y33143681D01*
X63887187Y32967371D01*
X63880540Y32950211D01*
X63798831Y32786119D01*
X63789140Y32770468D01*
X63675910Y32620527D01*
X63639446Y32539469D01*
X63641706Y32450616D01*
X63682243Y32371516D01*
X63753050Y32317792D01*
X63835513Y32300000D01*
X75864487Y32300000D01*
X75951147Y32319750D01*
X76020691Y32375099D01*
X76059386Y32455117D01*
X76059587Y32543998D01*
X76024090Y32620527D01*
X75910860Y32770468D01*
X75901169Y32786119D01*
X75819460Y32950211D01*
X75812813Y32967371D01*
X75762648Y33143681D01*
X75759266Y33161771D01*
X75741927Y33348895D01*
X75741500Y33358127D01*
X75741500Y33951873D01*
X75741927Y33961105D01*
X75759266Y34148229D01*
X75762648Y34166319D01*
X75812813Y34342629D01*
X75819460Y34359789D01*
X75901169Y34523881D01*
X75910860Y34539532D01*
X76021315Y34685798D01*
X76033737Y34699424D01*
X76169178Y34822896D01*
X76183885Y34834003D01*
X76339722Y34930493D01*
X76356208Y34938702D01*
X76527135Y35004918D01*
X76544832Y35009954D01*
X76725019Y35043637D01*
X76743351Y35045335D01*
X76926649Y35045335D01*
X76944981Y35043637D01*
X77125168Y35009954D01*
X77142865Y35004918D01*
X77313792Y34938702D01*
X77330278Y34930493D01*
X77486115Y34834003D01*
X77500822Y34822896D01*
X77636263Y34699424D01*
X77648685Y34685798D01*
X77759140Y34539532D01*
X77768831Y34523881D01*
X77850540Y34359789D01*
X77857187Y34342629D01*
X77907352Y34166319D01*
X77910734Y34148229D01*
X77928073Y33961105D01*
X77928500Y33951873D01*
X77928500Y33358127D01*
X77928073Y33348895D01*
X77910734Y33161771D01*
X77907352Y33143681D01*
X77857187Y32967371D01*
X77850540Y32950211D01*
X77768831Y32786119D01*
X77759140Y32770468D01*
X77648685Y32624202D01*
X77636263Y32610576D01*
X77500822Y32487104D01*
X77486111Y32475994D01*
X77469696Y32465831D01*
X77406413Y32403419D01*
X77376692Y32321893D01*
X77367970Y32255647D01*
X77361242Y32230538D01*
X77316332Y32122114D01*
X77303333Y32099598D01*
X77232225Y32006929D01*
X77223377Y31998178D01*
X77218792Y31990975D01*
X76599939Y31372122D01*
X76586822Y31361623D01*
X76578071Y31352775D01*
X76475000Y31273686D01*
X76477526Y31270394D01*
X76431587Y31227824D01*
X76399008Y31145128D01*
X76405478Y31056482D01*
X76449720Y30979393D01*
X76476363Y30958090D01*
X76475000Y30956314D01*
X76578071Y30877225D01*
X76586822Y30868377D01*
X76594025Y30863792D01*
X81022878Y26434939D01*
X81033377Y26421822D01*
X81042225Y26413071D01*
X81113333Y26320402D01*
X81126332Y26297886D01*
X81171242Y26189462D01*
X81177970Y26164353D01*
X81194145Y26041493D01*
X81195000Y26028450D01*
X81195000Y9531550D01*
X81194145Y9518507D01*
X81177970Y9395647D01*
X81171242Y9370538D01*
X81126332Y9262114D01*
X81113333Y9239598D01*
X81042225Y9146929D01*
X81033377Y9138178D01*
X81028792Y9130975D01*
X79774939Y7877122D01*
X79761822Y7866623D01*
X79753071Y7857775D01*
X79660402Y7786667D01*
X79637886Y7773668D01*
X79529462Y7728758D01*
X79504353Y7722030D01*
X79381493Y7705855D01*
X79368450Y7705000D01*
X77553010Y7705000D01*
X77466350Y7685250D01*
X77382968Y7610289D01*
X77379004Y7603888D01*
X77367896Y7589178D01*
X77244424Y7453737D01*
X77230798Y7441315D01*
X77084532Y7330860D01*
X77068881Y7321169D01*
X76904789Y7239460D01*
X76887629Y7232813D01*
X76711319Y7182648D01*
X76693229Y7179266D01*
X76506105Y7161927D01*
X76496873Y7161500D01*
X75903127Y7161500D01*
X75893895Y7161927D01*
X75706771Y7179266D01*
X75688681Y7182648D01*
X75512371Y7232813D01*
X75495211Y7239460D01*
X75331119Y7321169D01*
X75315468Y7330860D01*
X75169202Y7441315D01*
X75155581Y7453732D01*
X75077801Y7539052D01*
X75004823Y7589788D01*
X74917067Y7603893D01*
X74831866Y7578581D01*
X74782199Y7539052D01*
X74704419Y7453732D01*
X74690798Y7441315D01*
X74544532Y7330860D01*
X74528881Y7321169D01*
X74364789Y7239460D01*
X74347629Y7232813D01*
X74171319Y7182648D01*
X74165680Y7181594D01*
X74084125Y7146256D01*
X74025935Y7079070D01*
X74002604Y6993305D01*
X74018738Y6905900D01*
X74071152Y6834117D01*
X74162454Y6789966D01*
X74162430Y6789881D01*
X74162915Y6789743D01*
X74165680Y6788406D01*
X74171319Y6787352D01*
X74347629Y6737187D01*
X74364789Y6730540D01*
X74528881Y6648831D01*
X74544532Y6639140D01*
X74690798Y6528685D01*
X74704424Y6516263D01*
X74827896Y6380822D01*
X74839003Y6366115D01*
X74935493Y6210278D01*
X74943702Y6193792D01*
X75009918Y6022865D01*
X75014954Y6005168D01*
X75048637Y5824981D01*
X75050335Y5806649D01*
X75050335Y5623351D01*
X75048637Y5605019D01*
X75014954Y5424832D01*
X75009918Y5407135D01*
X74943702Y5236208D01*
X74935493Y5219722D01*
X74839003Y5063885D01*
X74827896Y5049178D01*
X74704424Y4913737D01*
X74690798Y4901315D01*
X74544532Y4790860D01*
X74528881Y4781169D01*
X74364789Y4699460D01*
X74347629Y4692813D01*
X74171319Y4642648D01*
X74153229Y4639266D01*
X73966105Y4621927D01*
X73956873Y4621500D01*
X73363127Y4621500D01*
X73353895Y4621927D01*
X73166771Y4639266D01*
X73148681Y4642648D01*
X72972371Y4692813D01*
X72955211Y4699460D01*
X72791119Y4781169D01*
X72775468Y4790860D01*
X72629202Y4901315D01*
X72615576Y4913737D01*
X72492104Y5049178D01*
X72480996Y5063888D01*
X72477032Y5070289D01*
X72414619Y5133570D01*
X72306990Y5165000D01*
X70639665Y5165000D01*
X70553005Y5145250D01*
X70483461Y5089901D01*
X70444766Y5009883D01*
X70444565Y4921002D01*
X70470320Y4858594D01*
X70519750Y4779927D01*
X70529436Y4759812D01*
X70577488Y4622489D01*
X70582453Y4600731D01*
X70598742Y4456165D01*
X70598742Y4433835D01*
X70582453Y4289269D01*
X70577488Y4267511D01*
X70529436Y4130188D01*
X70519752Y4110078D01*
X70442349Y3986892D01*
X70428430Y3969439D01*
X70325561Y3866570D01*
X70308108Y3852651D01*
X70184922Y3775248D01*
X70164812Y3765564D01*
X70027489Y3717512D01*
X70005739Y3712548D01*
X69950894Y3706369D01*
X69866990Y3677040D01*
X69831865Y3649047D01*
X67068539Y885721D01*
X67058718Y877108D01*
X66960401Y801667D01*
X66937886Y788668D01*
X66829466Y743758D01*
X66804351Y737029D01*
X66681496Y720855D01*
X66668449Y720000D01*
X28581550Y720000D01*
X28568507Y720855D01*
X28445647Y737030D01*
X28420538Y743758D01*
X28312114Y788668D01*
X28289598Y801667D01*
X28196929Y872775D01*
X28188178Y881623D01*
X28180975Y886208D01*
X26927122Y2140061D01*
X26916623Y2153178D01*
X26907775Y2161929D01*
X26836667Y2254598D01*
X26823668Y2277114D01*
X26778758Y2385538D01*
X26772030Y2410647D01*
X26755855Y2533507D01*
X26755000Y2546550D01*
X26755000Y3613737D01*
X26735250Y3700397D01*
X26681879Y3768338D01*
X26640845Y3802014D01*
X26627020Y3815839D01*
X26521336Y3944614D01*
X26510473Y3960872D01*
X26431945Y4107788D01*
X26424462Y4125852D01*
X26376106Y4285262D01*
X26372291Y4304442D01*
X26355481Y4475117D01*
X26355000Y4484907D01*
X26355000Y5675093D01*
X26355481Y5684883D01*
X26372291Y5855558D01*
X26376106Y5874738D01*
X26424462Y6034148D01*
X26431945Y6052212D01*
X26510473Y6199128D01*
X26521336Y6215386D01*
X26627020Y6344161D01*
X26640839Y6357980D01*
X26769614Y6463664D01*
X26785872Y6474527D01*
X26932788Y6553055D01*
X26950852Y6560538D01*
X27110262Y6608894D01*
X27129442Y6612709D01*
X27295222Y6629037D01*
X27314778Y6629037D01*
X27480558Y6612709D01*
X27499738Y6608894D01*
X27659148Y6560538D01*
X27677212Y6553055D01*
X27824128Y6474527D01*
X27840386Y6463664D01*
X27969161Y6357980D01*
X27982980Y6344161D01*
X28088664Y6215386D01*
X28099527Y6199128D01*
X28178055Y6052212D01*
X28185538Y6034148D01*
X28233894Y5874738D01*
X28237709Y5855558D01*
X28254519Y5684883D01*
X28255000Y5675093D01*
X28255000Y4484907D01*
X28254519Y4475117D01*
X28237709Y4304442D01*
X28233894Y4285262D01*
X28185538Y4125852D01*
X28178055Y4107788D01*
X28099527Y3960872D01*
X28088664Y3944614D01*
X27982980Y3815839D01*
X27969155Y3802014D01*
X27928121Y3768338D01*
X27873661Y3698095D01*
X27855000Y3613737D01*
X27855000Y2850659D01*
X27874750Y2763999D01*
X27913579Y2709238D01*
X28744238Y1878579D01*
X28819481Y1831266D01*
X28885659Y1820000D01*
X29835222Y1820000D01*
X29835222Y3530963D01*
X29669442Y3547291D01*
X29650262Y3551106D01*
X29490852Y3599462D01*
X29472788Y3606945D01*
X29325872Y3685473D01*
X29309614Y3696336D01*
X29180839Y3802020D01*
X29167020Y3815839D01*
X29061336Y3944614D01*
X29050473Y3960872D01*
X28971945Y4107788D01*
X28964462Y4125852D01*
X28916106Y4285262D01*
X28912291Y4304442D01*
X28895481Y4475117D01*
X28895000Y4484907D01*
X28895000Y5675093D01*
X28895481Y5684883D01*
X28912291Y5855558D01*
X28916106Y5874738D01*
X28964462Y6034148D01*
X28971945Y6052212D01*
X29050473Y6199128D01*
X29061336Y6215386D01*
X29167020Y6344161D01*
X29180839Y6357980D01*
X29309614Y6463664D01*
X29325872Y6474527D01*
X29472788Y6553055D01*
X29490852Y6560538D01*
X29650262Y6608894D01*
X29669442Y6612709D01*
X29835222Y6629037D01*
X29854778Y6629037D01*
X30020558Y6612709D01*
X30039738Y6608894D01*
X30199148Y6560538D01*
X30217212Y6553055D01*
X30364128Y6474527D01*
X30380386Y6463664D01*
X30509161Y6357980D01*
X30522980Y6344161D01*
X30628664Y6215386D01*
X30639527Y6199128D01*
X30718055Y6052212D01*
X30725538Y6034148D01*
X30773894Y5874738D01*
X30777709Y5855558D01*
X30794519Y5684883D01*
X30795000Y5675093D01*
X30795000Y4484907D01*
X30794519Y4475117D01*
X30777709Y4304442D01*
X30773894Y4285262D01*
X30725538Y4125852D01*
X30718055Y4107788D01*
X30639527Y3960872D01*
X30628664Y3944614D01*
X30522980Y3815839D01*
X30509161Y3802020D01*
X30380386Y3696336D01*
X30364128Y3685473D01*
X30217212Y3606945D01*
X30199148Y3599462D01*
X30039738Y3551106D01*
X30020558Y3547291D01*
X29854778Y3530963D01*
X29835222Y3530963D01*
X29835222Y1820000D01*
X32375222Y1820000D01*
X32375222Y3530963D01*
X32209442Y3547291D01*
X32190262Y3551106D01*
X32030852Y3599462D01*
X32012788Y3606945D01*
X31865872Y3685473D01*
X31849614Y3696336D01*
X31720839Y3802020D01*
X31707020Y3815839D01*
X31601336Y3944614D01*
X31590473Y3960872D01*
X31511945Y4107788D01*
X31504462Y4125852D01*
X31456106Y4285262D01*
X31452291Y4304442D01*
X31435481Y4475117D01*
X31435000Y4484907D01*
X31435000Y5675093D01*
X31435481Y5684883D01*
X31452291Y5855558D01*
X31456106Y5874738D01*
X31504462Y6034148D01*
X31511945Y6052212D01*
X31590473Y6199128D01*
X31601336Y6215386D01*
X31707020Y6344161D01*
X31720839Y6357980D01*
X31849614Y6463664D01*
X31865872Y6474527D01*
X32012788Y6553055D01*
X32030852Y6560538D01*
X32190262Y6608894D01*
X32209442Y6612709D01*
X32375222Y6629037D01*
X32394778Y6629037D01*
X32560558Y6612709D01*
X32579738Y6608894D01*
X32739148Y6560538D01*
X32757212Y6553055D01*
X32904128Y6474527D01*
X32920386Y6463664D01*
X33049161Y6357980D01*
X33062980Y6344161D01*
X33168664Y6215386D01*
X33179527Y6199128D01*
X33258055Y6052212D01*
X33265538Y6034148D01*
X33313894Y5874738D01*
X33317709Y5855558D01*
X33334519Y5684883D01*
X33335000Y5675093D01*
X33335000Y4484907D01*
X33334519Y4475117D01*
X33317709Y4304442D01*
X33313894Y4285262D01*
X33265538Y4125852D01*
X33258055Y4107788D01*
X33179527Y3960872D01*
X33168664Y3944614D01*
X33062980Y3815839D01*
X33049161Y3802020D01*
X32920386Y3696336D01*
X32904128Y3685473D01*
X32757212Y3606945D01*
X32739148Y3599462D01*
X32579738Y3551106D01*
X32560558Y3547291D01*
X32394778Y3530963D01*
X32375222Y3530963D01*
X32375222Y1820000D01*
X34913835Y1820000D01*
X34913835Y2426258D01*
X34769269Y2442547D01*
X34747511Y2447512D01*
X34610188Y2495564D01*
X34590078Y2505248D01*
X34466892Y2582651D01*
X34449439Y2596570D01*
X34346570Y2699439D01*
X34332651Y2716892D01*
X34255248Y2840078D01*
X34245564Y2860188D01*
X34197512Y2997511D01*
X34192547Y3019269D01*
X34176258Y3163835D01*
X34176258Y3186165D01*
X34192547Y3330731D01*
X34197512Y3352489D01*
X34245564Y3489812D01*
X34255249Y3509924D01*
X34285263Y3557690D01*
X34314647Y3641574D01*
X34304782Y3729907D01*
X34257340Y3805519D01*
X34247020Y3815839D01*
X34141336Y3944614D01*
X34130473Y3960872D01*
X34051945Y4107788D01*
X34044462Y4125852D01*
X33996106Y4285262D01*
X33992291Y4304442D01*
X33975481Y4475117D01*
X33975000Y4484907D01*
X33975000Y5675093D01*
X33975481Y5684883D01*
X33992291Y5855558D01*
X33996106Y5874738D01*
X34044462Y6034148D01*
X34051945Y6052212D01*
X34130473Y6199128D01*
X34141336Y6215386D01*
X34247020Y6344161D01*
X34260839Y6357980D01*
X34389614Y6463664D01*
X34405872Y6474527D01*
X34552788Y6553055D01*
X34570852Y6560538D01*
X34730262Y6608894D01*
X34749442Y6612709D01*
X34915222Y6629037D01*
X34934778Y6629037D01*
X35100558Y6612709D01*
X35119738Y6608894D01*
X35279148Y6560538D01*
X35297212Y6553055D01*
X35444128Y6474527D01*
X35460386Y6463664D01*
X35589161Y6357980D01*
X35602980Y6344161D01*
X35708664Y6215386D01*
X35719527Y6199128D01*
X35798055Y6052212D01*
X35805538Y6034148D01*
X35853894Y5874738D01*
X35857709Y5855558D01*
X35874519Y5684883D01*
X35875000Y5675093D01*
X35875000Y4484907D01*
X35874519Y4475117D01*
X35857709Y4304442D01*
X35853894Y4285262D01*
X35805538Y4125852D01*
X35798055Y4107788D01*
X35719527Y3960872D01*
X35708664Y3944614D01*
X35602980Y3815839D01*
X35592660Y3805519D01*
X35545347Y3730276D01*
X35535310Y3641963D01*
X35564737Y3557690D01*
X35594751Y3509924D01*
X35604436Y3489812D01*
X35652488Y3352489D01*
X35657453Y3330731D01*
X35673742Y3186165D01*
X35673742Y3163835D01*
X35657453Y3019269D01*
X35652488Y2997511D01*
X35604436Y2860188D01*
X35594752Y2840078D01*
X35517349Y2716892D01*
X35503430Y2699439D01*
X35400561Y2596570D01*
X35383108Y2582651D01*
X35259922Y2505248D01*
X35239812Y2495564D01*
X35102489Y2447512D01*
X35080731Y2442547D01*
X34936165Y2426258D01*
X34913835Y2426258D01*
X34913835Y1820000D01*
X37455222Y1820000D01*
X37455222Y3530963D01*
X37289442Y3547291D01*
X37270262Y3551106D01*
X37110852Y3599462D01*
X37092788Y3606945D01*
X36945872Y3685473D01*
X36929614Y3696336D01*
X36800839Y3802020D01*
X36787020Y3815839D01*
X36681336Y3944614D01*
X36670473Y3960872D01*
X36591945Y4107788D01*
X36584462Y4125852D01*
X36536106Y4285262D01*
X36532291Y4304442D01*
X36515481Y4475117D01*
X36515000Y4484907D01*
X36515000Y5675093D01*
X36515481Y5684883D01*
X36532291Y5855558D01*
X36536106Y5874738D01*
X36584462Y6034148D01*
X36591945Y6052212D01*
X36670473Y6199128D01*
X36681336Y6215386D01*
X36787020Y6344161D01*
X36800845Y6357986D01*
X36841879Y6391662D01*
X36896339Y6461905D01*
X36915000Y6546263D01*
X36915000Y8248449D01*
X36915855Y8261496D01*
X36932029Y8384351D01*
X36938758Y8409466D01*
X36983668Y8517886D01*
X36996667Y8540401D01*
X37072108Y8638718D01*
X37080721Y8648539D01*
X40246461Y11814279D01*
X40256282Y11822892D01*
X40354599Y11898333D01*
X40377114Y11911332D01*
X40485534Y11956242D01*
X40510649Y11962971D01*
X40633504Y11979145D01*
X40646551Y11980000D01*
X51488805Y11980000D01*
X51575465Y11999750D01*
X51602258Y12016573D01*
X51602383Y12016374D01*
X51735078Y12099752D01*
X51755188Y12109436D01*
X51892511Y12157488D01*
X51914269Y12162453D01*
X52058835Y12178742D01*
X52081165Y12178742D01*
X52225731Y12162453D01*
X52247489Y12157488D01*
X52384812Y12109436D01*
X52404922Y12099752D01*
X52528108Y12022349D01*
X52545561Y12008430D01*
X52648430Y11905561D01*
X52662349Y11888108D01*
X52739752Y11764922D01*
X52749436Y11744812D01*
X52797488Y11607489D01*
X52802453Y11585731D01*
X52818742Y11441165D01*
X52818742Y11418835D01*
X52802453Y11274269D01*
X52797488Y11252511D01*
X52749436Y11115188D01*
X52739752Y11095078D01*
X52662349Y10971892D01*
X52648430Y10954439D01*
X52545561Y10851570D01*
X52528108Y10837651D01*
X52404922Y10760248D01*
X52384812Y10750564D01*
X52247489Y10702512D01*
X52225731Y10697547D01*
X52081165Y10681258D01*
X52058835Y10681258D01*
X51914269Y10697547D01*
X51892511Y10702512D01*
X51755188Y10750564D01*
X51735078Y10760248D01*
X51602383Y10843626D01*
X51601466Y10842167D01*
X51533441Y10874955D01*
X51488805Y10880000D01*
X40950660Y10880000D01*
X40864000Y10860250D01*
X40809239Y10821421D01*
X38073579Y8085761D01*
X38026266Y8010518D01*
X38015000Y7944340D01*
X38015000Y6546263D01*
X38034750Y6459603D01*
X38088121Y6391662D01*
X38129155Y6357986D01*
X38142980Y6344161D01*
X38248664Y6215386D01*
X38259527Y6199128D01*
X38338055Y6052212D01*
X38345538Y6034148D01*
X38393894Y5874738D01*
X38397709Y5855558D01*
X38414519Y5684883D01*
X38415000Y5675093D01*
X38415000Y4484907D01*
X38414519Y4475117D01*
X38397709Y4304442D01*
X38393894Y4285262D01*
X38345538Y4125852D01*
X38338055Y4107788D01*
X38259527Y3960872D01*
X38248664Y3944614D01*
X38142980Y3815839D01*
X38129161Y3802020D01*
X38000386Y3696336D01*
X37984128Y3685473D01*
X37837212Y3606945D01*
X37819148Y3599462D01*
X37659738Y3551106D01*
X37640558Y3547291D01*
X37474778Y3530963D01*
X37455222Y3530963D01*
X37455222Y1820000D01*
X39995222Y1820000D01*
X39995222Y3530963D01*
X39829442Y3547291D01*
X39810262Y3551106D01*
X39650852Y3599462D01*
X39632788Y3606945D01*
X39485872Y3685473D01*
X39469614Y3696336D01*
X39340839Y3802020D01*
X39327020Y3815839D01*
X39221336Y3944614D01*
X39210473Y3960872D01*
X39131945Y4107788D01*
X39124462Y4125852D01*
X39076106Y4285262D01*
X39072291Y4304442D01*
X39055481Y4475117D01*
X39055000Y4484907D01*
X39055000Y5675093D01*
X39055481Y5684883D01*
X39072291Y5855558D01*
X39076106Y5874738D01*
X39124462Y6034148D01*
X39131945Y6052212D01*
X39210473Y6199128D01*
X39221336Y6215386D01*
X39327020Y6344161D01*
X39340845Y6357986D01*
X39381879Y6391662D01*
X39436339Y6461905D01*
X39455000Y6546263D01*
X39455000Y7613450D01*
X39455855Y7626493D01*
X39472030Y7749353D01*
X39478758Y7774462D01*
X39523668Y7882886D01*
X39536667Y7905402D01*
X39607775Y7998071D01*
X39616623Y8006822D01*
X39621208Y8014025D01*
X40479047Y8871864D01*
X40526360Y8947107D01*
X40536369Y8990893D01*
X40542548Y9045739D01*
X40547512Y9067489D01*
X40595564Y9204812D01*
X40605248Y9224922D01*
X40682651Y9348108D01*
X40696570Y9365561D01*
X40799439Y9468430D01*
X40816892Y9482349D01*
X40940078Y9559752D01*
X40960188Y9569436D01*
X41097511Y9617488D01*
X41119269Y9622453D01*
X41263835Y9638742D01*
X41286165Y9638742D01*
X41430731Y9622453D01*
X41452489Y9617488D01*
X41589812Y9569436D01*
X41609922Y9559752D01*
X41733108Y9482349D01*
X41750561Y9468430D01*
X41853430Y9365561D01*
X41867349Y9348108D01*
X41944752Y9224922D01*
X41954436Y9204812D01*
X42002488Y9067489D01*
X42007453Y9045731D01*
X42023742Y8901165D01*
X42023742Y8878835D01*
X42007453Y8734269D01*
X42002488Y8712511D01*
X41954436Y8575188D01*
X41944752Y8555078D01*
X41867349Y8431892D01*
X41853430Y8414439D01*
X41750561Y8311570D01*
X41733108Y8297651D01*
X41609922Y8220248D01*
X41589812Y8210564D01*
X41452489Y8162512D01*
X41430739Y8157548D01*
X41375893Y8151369D01*
X41291989Y8122040D01*
X41256864Y8094047D01*
X40613579Y7450762D01*
X40566266Y7375519D01*
X40555000Y7309341D01*
X40555000Y6546263D01*
X40574750Y6459603D01*
X40628121Y6391662D01*
X40669155Y6357986D01*
X40682980Y6344161D01*
X40788664Y6215386D01*
X40799527Y6199128D01*
X40878055Y6052212D01*
X40885538Y6034148D01*
X40933894Y5874738D01*
X40937709Y5855558D01*
X40954519Y5684883D01*
X40955000Y5675093D01*
X40955000Y4484907D01*
X40954519Y4475117D01*
X40937709Y4304442D01*
X40933894Y4285262D01*
X40885538Y4125852D01*
X40878055Y4107788D01*
X40799527Y3960872D01*
X40788664Y3944614D01*
X40682980Y3815839D01*
X40669161Y3802020D01*
X40540386Y3696336D01*
X40524128Y3685473D01*
X40377212Y3606945D01*
X40359148Y3599462D01*
X40199738Y3551106D01*
X40180558Y3547291D01*
X40014778Y3530963D01*
X39995222Y3530963D01*
X39995222Y1820000D01*
X42533835Y1820000D01*
X42533835Y2426258D01*
X42389269Y2442547D01*
X42367511Y2447512D01*
X42230188Y2495564D01*
X42210078Y2505248D01*
X42086892Y2582651D01*
X42069439Y2596570D01*
X41966570Y2699439D01*
X41952651Y2716892D01*
X41875248Y2840078D01*
X41865564Y2860188D01*
X41817512Y2997511D01*
X41812547Y3019269D01*
X41796258Y3163835D01*
X41796258Y3186165D01*
X41812547Y3330731D01*
X41817512Y3352489D01*
X41865564Y3489812D01*
X41875249Y3509924D01*
X41905263Y3557690D01*
X41934647Y3641574D01*
X41924782Y3729907D01*
X41877340Y3805519D01*
X41867020Y3815839D01*
X41761336Y3944614D01*
X41750473Y3960872D01*
X41671945Y4107788D01*
X41664462Y4125852D01*
X41616106Y4285262D01*
X41612291Y4304442D01*
X41595481Y4475117D01*
X41595000Y4484907D01*
X41595000Y5675093D01*
X41595481Y5684883D01*
X41612291Y5855558D01*
X41616106Y5874738D01*
X41664462Y6034148D01*
X41671945Y6052212D01*
X41750473Y6199128D01*
X41761336Y6215386D01*
X41867020Y6344161D01*
X41880839Y6357980D01*
X42009614Y6463664D01*
X42025872Y6474527D01*
X42172788Y6553055D01*
X42190852Y6560538D01*
X42350262Y6608894D01*
X42369442Y6612709D01*
X42535222Y6629037D01*
X42554778Y6629037D01*
X42720558Y6612709D01*
X42739738Y6608894D01*
X42899148Y6560538D01*
X42917212Y6553055D01*
X43064128Y6474527D01*
X43080386Y6463664D01*
X43209161Y6357980D01*
X43222980Y6344161D01*
X43328664Y6215386D01*
X43339527Y6199128D01*
X43418055Y6052212D01*
X43425538Y6034148D01*
X43473894Y5874738D01*
X43477709Y5855558D01*
X43494519Y5684883D01*
X43495000Y5675093D01*
X43495000Y4484907D01*
X43494519Y4475117D01*
X43477709Y4304442D01*
X43473894Y4285262D01*
X43425538Y4125852D01*
X43418055Y4107788D01*
X43339527Y3960872D01*
X43328664Y3944614D01*
X43222980Y3815839D01*
X43212660Y3805519D01*
X43165347Y3730276D01*
X43155310Y3641963D01*
X43184737Y3557690D01*
X43214751Y3509924D01*
X43224436Y3489812D01*
X43272488Y3352489D01*
X43277453Y3330731D01*
X43293742Y3186165D01*
X43293742Y3163835D01*
X43277453Y3019269D01*
X43272488Y2997511D01*
X43224436Y2860188D01*
X43214752Y2840078D01*
X43137349Y2716892D01*
X43123430Y2699439D01*
X43020561Y2596570D01*
X43003108Y2582651D01*
X42879922Y2505248D01*
X42859812Y2495564D01*
X42722489Y2447512D01*
X42700731Y2442547D01*
X42556165Y2426258D01*
X42533835Y2426258D01*
X42533835Y1820000D01*
X45075222Y1820000D01*
X45075222Y3530963D01*
X44909442Y3547291D01*
X44890262Y3551106D01*
X44730852Y3599462D01*
X44712788Y3606945D01*
X44565872Y3685473D01*
X44549614Y3696336D01*
X44420839Y3802020D01*
X44407020Y3815839D01*
X44301336Y3944614D01*
X44290473Y3960872D01*
X44211945Y4107788D01*
X44204462Y4125852D01*
X44156106Y4285262D01*
X44152291Y4304442D01*
X44135481Y4475117D01*
X44135000Y4484907D01*
X44135000Y5675093D01*
X44135481Y5684883D01*
X44152291Y5855558D01*
X44156106Y5874738D01*
X44204462Y6034148D01*
X44211945Y6052212D01*
X44290473Y6199128D01*
X44301336Y6215386D01*
X44407020Y6344161D01*
X44420839Y6357980D01*
X44549614Y6463664D01*
X44565872Y6474527D01*
X44712788Y6553055D01*
X44730852Y6560538D01*
X44890262Y6608894D01*
X44909442Y6612709D01*
X45075222Y6629037D01*
X45094778Y6629037D01*
X45260558Y6612709D01*
X45279738Y6608894D01*
X45439148Y6560538D01*
X45457212Y6553055D01*
X45604128Y6474527D01*
X45620386Y6463664D01*
X45749161Y6357980D01*
X45762980Y6344161D01*
X45868664Y6215386D01*
X45879527Y6199128D01*
X45958055Y6052212D01*
X45965538Y6034148D01*
X46013894Y5874738D01*
X46017709Y5855558D01*
X46034519Y5684883D01*
X46035000Y5675093D01*
X46035000Y4484907D01*
X46034519Y4475117D01*
X46017709Y4304442D01*
X46013894Y4285262D01*
X45965538Y4125852D01*
X45958055Y4107788D01*
X45879527Y3960872D01*
X45868664Y3944614D01*
X45762980Y3815839D01*
X45749161Y3802020D01*
X45620386Y3696336D01*
X45604128Y3685473D01*
X45457212Y3606945D01*
X45439148Y3599462D01*
X45279738Y3551106D01*
X45260558Y3547291D01*
X45094778Y3530963D01*
X45075222Y3530963D01*
X45075222Y1820000D01*
X47615222Y1820000D01*
X47615222Y3530963D01*
X47449442Y3547291D01*
X47430262Y3551106D01*
X47270852Y3599462D01*
X47252788Y3606945D01*
X47105872Y3685473D01*
X47089614Y3696336D01*
X46960839Y3802020D01*
X46947020Y3815839D01*
X46841336Y3944614D01*
X46830473Y3960872D01*
X46751945Y4107788D01*
X46744462Y4125852D01*
X46696106Y4285262D01*
X46692291Y4304442D01*
X46675481Y4475117D01*
X46675000Y4484907D01*
X46675000Y5675093D01*
X46675481Y5684883D01*
X46692291Y5855558D01*
X46696106Y5874738D01*
X46744462Y6034148D01*
X46751945Y6052212D01*
X46830473Y6199128D01*
X46841336Y6215386D01*
X46947020Y6344161D01*
X46960845Y6357986D01*
X47001879Y6391662D01*
X47056339Y6461905D01*
X47075000Y6546263D01*
X47075000Y7038805D01*
X47055250Y7125465D01*
X47038427Y7152258D01*
X47038626Y7152383D01*
X46955248Y7285078D01*
X46945564Y7305188D01*
X46897512Y7442511D01*
X46892547Y7464269D01*
X46876258Y7608835D01*
X46876258Y7631165D01*
X46892547Y7775731D01*
X46897512Y7797489D01*
X46945564Y7934812D01*
X46955248Y7954922D01*
X47032651Y8078108D01*
X47046570Y8095561D01*
X47149439Y8198430D01*
X47166892Y8212349D01*
X47290078Y8289752D01*
X47310188Y8299436D01*
X47447511Y8347488D01*
X47469269Y8352453D01*
X47613835Y8368742D01*
X47636165Y8368742D01*
X47780731Y8352453D01*
X47802489Y8347488D01*
X47939812Y8299436D01*
X47959922Y8289752D01*
X48083108Y8212349D01*
X48100561Y8198430D01*
X48203430Y8095561D01*
X48217349Y8078108D01*
X48294752Y7954922D01*
X48304436Y7934812D01*
X48352488Y7797489D01*
X48357453Y7775731D01*
X48373742Y7631165D01*
X48373742Y7608835D01*
X48357453Y7464269D01*
X48352488Y7442511D01*
X48304436Y7305188D01*
X48294752Y7285078D01*
X48211374Y7152383D01*
X48212833Y7151466D01*
X48180045Y7083441D01*
X48175000Y7038805D01*
X48175000Y6546263D01*
X48194750Y6459603D01*
X48248121Y6391662D01*
X48289155Y6357986D01*
X48302980Y6344161D01*
X48408664Y6215386D01*
X48419527Y6199128D01*
X48498055Y6052212D01*
X48505538Y6034148D01*
X48553894Y5874738D01*
X48557709Y5855558D01*
X48574519Y5684883D01*
X48575000Y5675093D01*
X48575000Y4484907D01*
X48574519Y4475117D01*
X48557709Y4304442D01*
X48553894Y4285262D01*
X48505538Y4125852D01*
X48498055Y4107788D01*
X48419527Y3960872D01*
X48408664Y3944614D01*
X48302980Y3815839D01*
X48289161Y3802020D01*
X48160386Y3696336D01*
X48144128Y3685473D01*
X47997212Y3606945D01*
X47979148Y3599462D01*
X47819738Y3551106D01*
X47800558Y3547291D01*
X47634778Y3530963D01*
X47615222Y3530963D01*
X47615222Y1820000D01*
X50155222Y1820000D01*
X50155222Y3530963D01*
X49989442Y3547291D01*
X49970262Y3551106D01*
X49810852Y3599462D01*
X49792788Y3606945D01*
X49645872Y3685473D01*
X49629614Y3696336D01*
X49500839Y3802020D01*
X49487020Y3815839D01*
X49381336Y3944614D01*
X49370473Y3960872D01*
X49291945Y4107788D01*
X49284462Y4125852D01*
X49236106Y4285262D01*
X49232291Y4304442D01*
X49215481Y4475117D01*
X49215000Y4484907D01*
X49215000Y5675093D01*
X49215481Y5684883D01*
X49232291Y5855558D01*
X49236106Y5874738D01*
X49284462Y6034148D01*
X49291945Y6052212D01*
X49370473Y6199128D01*
X49381336Y6215386D01*
X49487020Y6344161D01*
X49500839Y6357980D01*
X49629614Y6463664D01*
X49645872Y6474527D01*
X49792788Y6553055D01*
X49810852Y6560538D01*
X49970262Y6608894D01*
X49989442Y6612709D01*
X50155222Y6629037D01*
X50174778Y6629037D01*
X50340558Y6612709D01*
X50359738Y6608894D01*
X50519148Y6560538D01*
X50537212Y6553055D01*
X50684128Y6474527D01*
X50700386Y6463664D01*
X50829161Y6357980D01*
X50842980Y6344161D01*
X50948664Y6215386D01*
X50959527Y6199128D01*
X51038055Y6052212D01*
X51045538Y6034148D01*
X51093894Y5874738D01*
X51097709Y5855558D01*
X51114519Y5684883D01*
X51115000Y5675093D01*
X51115000Y4484907D01*
X51114519Y4475117D01*
X51097709Y4304442D01*
X51093894Y4285262D01*
X51045538Y4125852D01*
X51038055Y4107788D01*
X50959527Y3960872D01*
X50948664Y3944614D01*
X50842980Y3815839D01*
X50829161Y3802020D01*
X50700386Y3696336D01*
X50684128Y3685473D01*
X50537212Y3606945D01*
X50519148Y3599462D01*
X50359738Y3551106D01*
X50340558Y3547291D01*
X50174778Y3530963D01*
X50155222Y3530963D01*
X50155222Y1820000D01*
X52695222Y1820000D01*
X52695222Y3530963D01*
X52529442Y3547291D01*
X52510262Y3551106D01*
X52350852Y3599462D01*
X52332788Y3606945D01*
X52185872Y3685473D01*
X52169614Y3696336D01*
X52040839Y3802020D01*
X52027020Y3815839D01*
X51921336Y3944614D01*
X51910473Y3960872D01*
X51831945Y4107788D01*
X51824462Y4125852D01*
X51776106Y4285262D01*
X51772291Y4304442D01*
X51755481Y4475117D01*
X51755000Y4484907D01*
X51755000Y5675093D01*
X51755481Y5684883D01*
X51772291Y5855558D01*
X51776106Y5874738D01*
X51824462Y6034148D01*
X51831945Y6052212D01*
X51910473Y6199128D01*
X51921336Y6215386D01*
X52027020Y6344161D01*
X52040839Y6357980D01*
X52169614Y6463664D01*
X52185872Y6474527D01*
X52332788Y6553055D01*
X52350852Y6560538D01*
X52510262Y6608894D01*
X52529442Y6612709D01*
X52695222Y6629037D01*
X52714778Y6629037D01*
X52880558Y6612709D01*
X52899738Y6608894D01*
X53059148Y6560538D01*
X53077212Y6553055D01*
X53224128Y6474527D01*
X53240386Y6463664D01*
X53369161Y6357980D01*
X53382980Y6344161D01*
X53488664Y6215386D01*
X53499527Y6199128D01*
X53578055Y6052212D01*
X53585538Y6034148D01*
X53633894Y5874738D01*
X53637709Y5855558D01*
X53654519Y5684883D01*
X53655000Y5675093D01*
X53655000Y4484907D01*
X53654519Y4475117D01*
X53637709Y4304442D01*
X53633894Y4285262D01*
X53585538Y4125852D01*
X53578055Y4107788D01*
X53499527Y3960872D01*
X53488664Y3944614D01*
X53382980Y3815839D01*
X53369161Y3802020D01*
X53240386Y3696336D01*
X53224128Y3685473D01*
X53077212Y3606945D01*
X53059148Y3599462D01*
X52899738Y3551106D01*
X52880558Y3547291D01*
X52714778Y3530963D01*
X52695222Y3530963D01*
X52695222Y1820000D01*
X55235222Y1820000D01*
X55235222Y3530963D01*
X55069442Y3547291D01*
X55050262Y3551106D01*
X54890852Y3599462D01*
X54872788Y3606945D01*
X54725872Y3685473D01*
X54709614Y3696336D01*
X54580839Y3802020D01*
X54567020Y3815839D01*
X54461336Y3944614D01*
X54450473Y3960872D01*
X54371945Y4107788D01*
X54364462Y4125852D01*
X54316106Y4285262D01*
X54312291Y4304442D01*
X54295481Y4475117D01*
X54295000Y4484907D01*
X54295000Y5675093D01*
X54295481Y5684883D01*
X54312291Y5855558D01*
X54316106Y5874738D01*
X54364462Y6034148D01*
X54371945Y6052212D01*
X54450473Y6199128D01*
X54461336Y6215386D01*
X54567020Y6344161D01*
X54580845Y6357986D01*
X54621879Y6391662D01*
X54676339Y6461905D01*
X54695000Y6546263D01*
X54695000Y12693450D01*
X54695855Y12706493D01*
X54712030Y12829353D01*
X54718758Y12854462D01*
X54763668Y12962886D01*
X54776667Y12985402D01*
X54847775Y13078071D01*
X54856623Y13086822D01*
X54861208Y13094025D01*
X55084047Y13316864D01*
X55131360Y13392107D01*
X55141369Y13435893D01*
X55147548Y13490739D01*
X55152512Y13512489D01*
X55200564Y13649812D01*
X55210248Y13669922D01*
X55287651Y13793108D01*
X55301570Y13810561D01*
X55404439Y13913430D01*
X55421892Y13927349D01*
X55545078Y14004752D01*
X55565188Y14014436D01*
X55702511Y14062488D01*
X55724269Y14067453D01*
X55868835Y14083742D01*
X55891165Y14083742D01*
X56035731Y14067453D01*
X56057489Y14062488D01*
X56194812Y14014436D01*
X56214922Y14004752D01*
X56338108Y13927349D01*
X56355561Y13913430D01*
X56458430Y13810561D01*
X56472349Y13793108D01*
X56549752Y13669922D01*
X56559436Y13649812D01*
X56607488Y13512489D01*
X56612453Y13490731D01*
X56628742Y13346165D01*
X56628742Y13323835D01*
X56612453Y13179269D01*
X56607488Y13157511D01*
X56559436Y13020188D01*
X56549752Y13000078D01*
X56472349Y12876892D01*
X56458430Y12859439D01*
X56355561Y12756570D01*
X56338108Y12742651D01*
X56214922Y12665248D01*
X56194812Y12655564D01*
X56057489Y12607512D01*
X56035739Y12602548D01*
X55980893Y12596369D01*
X55896989Y12567040D01*
X55861864Y12539047D01*
X55853579Y12530762D01*
X55806266Y12455519D01*
X55795000Y12389341D01*
X55795000Y6546263D01*
X55814750Y6459603D01*
X55868121Y6391662D01*
X55909155Y6357986D01*
X55922980Y6344161D01*
X56028664Y6215386D01*
X56039527Y6199128D01*
X56118055Y6052212D01*
X56125538Y6034148D01*
X56173894Y5874738D01*
X56177709Y5855558D01*
X56194519Y5684883D01*
X56195000Y5675093D01*
X56195000Y4484907D01*
X56194519Y4475117D01*
X56177709Y4304442D01*
X56173894Y4285262D01*
X56125538Y4125852D01*
X56118055Y4107788D01*
X56039527Y3960872D01*
X56028664Y3944614D01*
X55922980Y3815839D01*
X55909161Y3802020D01*
X55780386Y3696336D01*
X55764128Y3685473D01*
X55617212Y3606945D01*
X55599148Y3599462D01*
X55439738Y3551106D01*
X55420558Y3547291D01*
X55254778Y3530963D01*
X55235222Y3530963D01*
X55235222Y1820000D01*
X57775222Y1820000D01*
X57775222Y3530963D01*
X57609442Y3547291D01*
X57590262Y3551106D01*
X57430852Y3599462D01*
X57412788Y3606945D01*
X57265872Y3685473D01*
X57249614Y3696336D01*
X57120839Y3802020D01*
X57107020Y3815839D01*
X57001336Y3944614D01*
X56990473Y3960872D01*
X56911945Y4107788D01*
X56904462Y4125852D01*
X56856106Y4285262D01*
X56852291Y4304442D01*
X56835481Y4475117D01*
X56835000Y4484907D01*
X56835000Y5675093D01*
X56835481Y5684883D01*
X56852291Y5855558D01*
X56856106Y5874738D01*
X56904462Y6034148D01*
X56911945Y6052212D01*
X56990473Y6199128D01*
X57001336Y6215386D01*
X57107020Y6344161D01*
X57120845Y6357986D01*
X57161879Y6391662D01*
X57216339Y6461905D01*
X57235000Y6546263D01*
X57235000Y10848805D01*
X57215250Y10935465D01*
X57198427Y10962258D01*
X57198626Y10962383D01*
X57115248Y11095078D01*
X57105564Y11115188D01*
X57057512Y11252511D01*
X57052547Y11274269D01*
X57036258Y11418835D01*
X57036258Y11441165D01*
X57052547Y11585731D01*
X57057512Y11607489D01*
X57105564Y11744812D01*
X57115248Y11764922D01*
X57192651Y11888108D01*
X57206570Y11905561D01*
X57309439Y12008430D01*
X57326892Y12022349D01*
X57450078Y12099752D01*
X57470188Y12109436D01*
X57607511Y12157488D01*
X57629269Y12162453D01*
X57773835Y12178742D01*
X57796165Y12178742D01*
X57940731Y12162453D01*
X57962489Y12157488D01*
X58099812Y12109436D01*
X58119922Y12099752D01*
X58243108Y12022349D01*
X58260561Y12008430D01*
X58363430Y11905561D01*
X58377349Y11888108D01*
X58454752Y11764922D01*
X58464436Y11744812D01*
X58512488Y11607489D01*
X58517453Y11585731D01*
X58533742Y11441165D01*
X58533742Y11418835D01*
X58517453Y11274269D01*
X58512488Y11252511D01*
X58464436Y11115188D01*
X58454752Y11095078D01*
X58371374Y10962383D01*
X58372833Y10961466D01*
X58340045Y10893441D01*
X58335000Y10848805D01*
X58335000Y6546263D01*
X58354750Y6459603D01*
X58408121Y6391662D01*
X58449155Y6357986D01*
X58462980Y6344161D01*
X58568664Y6215386D01*
X58579527Y6199128D01*
X58658055Y6052212D01*
X58665538Y6034148D01*
X58713894Y5874738D01*
X58717709Y5855558D01*
X58734519Y5684883D01*
X58735000Y5675093D01*
X58735000Y4484907D01*
X58734519Y4475117D01*
X58717709Y4304442D01*
X58713894Y4285262D01*
X58665538Y4125852D01*
X58658055Y4107788D01*
X58579527Y3960872D01*
X58568664Y3944614D01*
X58462980Y3815839D01*
X58449161Y3802020D01*
X58320386Y3696336D01*
X58304128Y3685473D01*
X58157212Y3606945D01*
X58139148Y3599462D01*
X57979738Y3551106D01*
X57960558Y3547291D01*
X57794778Y3530963D01*
X57775222Y3530963D01*
X57775222Y1820000D01*
X66364340Y1820000D01*
X66451000Y1839750D01*
X66505761Y1878579D01*
X69054047Y4426865D01*
X69101360Y4502108D01*
X69111369Y4545894D01*
X69117548Y4600739D01*
X69122512Y4622489D01*
X69170564Y4759812D01*
X69180250Y4779927D01*
X69229680Y4858594D01*
X69259063Y4942479D01*
X69249197Y5030811D01*
X69202031Y5106146D01*
X69126880Y5153605D01*
X69060335Y5165000D01*
X66681544Y5165000D01*
X66665045Y5166081D01*
X66652341Y5167180D01*
X66639192Y5167728D01*
X66596707Y5175132D01*
X66588477Y5176391D01*
X66545646Y5182030D01*
X66532913Y5185442D01*
X66527620Y5186610D01*
X66526064Y5187097D01*
X66518070Y5189419D01*
X66516446Y5189854D01*
X66511323Y5191713D01*
X66498762Y5195646D01*
X66459620Y5213803D01*
X66451996Y5217149D01*
X66412108Y5233671D01*
X66400697Y5240259D01*
X66395885Y5242758D01*
X66394498Y5243638D01*
X66387367Y5247956D01*
X66385922Y5248790D01*
X66381467Y5251903D01*
X66370352Y5258953D01*
X66337235Y5286629D01*
X66330734Y5291836D01*
X66296486Y5318115D01*
X66287180Y5327421D01*
X66277809Y5335992D01*
X66265797Y5347445D01*
X52056585Y20792241D01*
X51983377Y20842645D01*
X51931793Y20855572D01*
X51914270Y20857546D01*
X51892510Y20862513D01*
X51755188Y20910564D01*
X51735078Y20920248D01*
X51611892Y20997651D01*
X51594439Y21011570D01*
X51491570Y21114439D01*
X51477651Y21131892D01*
X51400248Y21255078D01*
X51390564Y21275188D01*
X51342512Y21412511D01*
X51337547Y21434269D01*
X51321258Y21578835D01*
X51321258Y21601165D01*
X51337547Y21745731D01*
X51342512Y21767489D01*
X51390564Y21904812D01*
X51400248Y21924922D01*
X51477651Y22048108D01*
X51491570Y22065561D01*
X51594439Y22168430D01*
X51611892Y22182349D01*
X51735078Y22259752D01*
X51755188Y22269436D01*
X51892511Y22317488D01*
X51914269Y22322453D01*
X52058835Y22338742D01*
X52081165Y22338742D01*
X52225731Y22322453D01*
X52247489Y22317488D01*
X52384812Y22269436D01*
X52404922Y22259752D01*
X52528108Y22182349D01*
X52545561Y22168430D01*
X52648430Y22065561D01*
X52662349Y22048108D01*
X52739752Y21924922D01*
X52749436Y21904812D01*
X52797488Y21767489D01*
X52802452Y21745739D01*
X52813052Y21651653D01*
X52864609Y21538634D01*
X56752458Y17312712D01*
X56825666Y17262308D01*
X56913485Y17248603D01*
X56998570Y17274302D01*
X57064118Y17334332D01*
X57097182Y17416835D01*
X57088421Y17514179D01*
X57057512Y17602511D01*
X57052547Y17624269D01*
X57036258Y17768835D01*
X57036258Y17791165D01*
X57052547Y17935731D01*
X57057512Y17957489D01*
X57105564Y18094812D01*
X57115248Y18114922D01*
X57192651Y18238108D01*
X57206570Y18255561D01*
X57309439Y18358430D01*
X57326892Y18372349D01*
X57450078Y18449752D01*
X57470188Y18459436D01*
X57607511Y18507488D01*
X57629269Y18512453D01*
X57773835Y18528742D01*
X57796165Y18528742D01*
X57940731Y18512453D01*
X57962489Y18507488D01*
X58099812Y18459436D01*
X58119922Y18449752D01*
X58243108Y18372349D01*
X58260561Y18358430D01*
X58363430Y18255561D01*
X58377349Y18238108D01*
X58454752Y18114922D01*
X58464436Y18094812D01*
X58512488Y17957489D01*
X58517452Y17935739D01*
X58523631Y17880893D01*
X58552960Y17796989D01*
X58580953Y17761864D01*
X62399238Y13943579D01*
X62474481Y13896266D01*
X62540659Y13885000D01*
X72306990Y13885000D01*
X72393650Y13904750D01*
X72477032Y13979711D01*
X72480992Y13986107D01*
X72492104Y14000822D01*
X72615576Y14136263D01*
X72629202Y14148685D01*
X72775468Y14259140D01*
X72791119Y14268831D01*
X72955211Y14350540D01*
X72972371Y14357187D01*
X73148681Y14407352D01*
X73154320Y14408406D01*
X73235875Y14443744D01*
X73294065Y14510930D01*
X73317396Y14596695D01*
X73301262Y14684100D01*
X73248848Y14755883D01*
X73157546Y14800034D01*
X73157570Y14800119D01*
X73157085Y14800257D01*
X73154320Y14801594D01*
X73148681Y14802648D01*
X72972371Y14852813D01*
X72955211Y14859460D01*
X72791119Y14941169D01*
X72775468Y14950860D01*
X72629202Y15061315D01*
X72615576Y15073737D01*
X72492104Y15209178D01*
X72480996Y15223888D01*
X72477032Y15230289D01*
X72414619Y15293570D01*
X72306990Y15325000D01*
X68526195Y15325000D01*
X68439535Y15305250D01*
X68412742Y15288427D01*
X68412617Y15288626D01*
X68279922Y15205248D01*
X68259812Y15195564D01*
X68122489Y15147512D01*
X68100731Y15142547D01*
X67956165Y15126258D01*
X67933835Y15126258D01*
X67789269Y15142547D01*
X67767511Y15147512D01*
X67630188Y15195564D01*
X67610078Y15205248D01*
X67486892Y15282651D01*
X67469439Y15296570D01*
X67366570Y15399439D01*
X67352651Y15416892D01*
X67275248Y15540078D01*
X67265564Y15560188D01*
X67217512Y15697511D01*
X67212547Y15719269D01*
X67196258Y15863835D01*
X67196258Y15886165D01*
X67212547Y16030731D01*
X67217512Y16052489D01*
X67265564Y16189812D01*
X67275248Y16209922D01*
X67352651Y16333108D01*
X67366570Y16350561D01*
X67469439Y16453430D01*
X67486892Y16467349D01*
X67610078Y16544752D01*
X67630188Y16554436D01*
X67767511Y16602488D01*
X67789269Y16607453D01*
X67933835Y16623742D01*
X67956165Y16623742D01*
X68100731Y16607453D01*
X68122489Y16602488D01*
X68259812Y16554436D01*
X68279922Y16544752D01*
X68412617Y16461374D01*
X68413534Y16462833D01*
X68481559Y16430045D01*
X68526195Y16425000D01*
X72306990Y16425000D01*
X72393650Y16444750D01*
X72477032Y16519711D01*
X72480992Y16526107D01*
X72492104Y16540822D01*
X72615576Y16676263D01*
X72629202Y16688685D01*
X72775468Y16799140D01*
X72791119Y16808831D01*
X72955211Y16890540D01*
X72972371Y16897187D01*
X73148681Y16947352D01*
X73154320Y16948406D01*
X73235875Y16983744D01*
X73294065Y17050930D01*
X73317396Y17136695D01*
X73301262Y17224100D01*
X73248848Y17295883D01*
X73157546Y17340034D01*
X73157570Y17340119D01*
X73157085Y17340257D01*
X73154320Y17341594D01*
X73148681Y17342648D01*
X72972371Y17392813D01*
X72955211Y17399460D01*
X72791119Y17481169D01*
X72775468Y17490860D01*
X72629202Y17601315D01*
X72615576Y17613737D01*
X72492104Y17749178D01*
X72480996Y17763888D01*
X72477032Y17770289D01*
X72414619Y17833570D01*
X72306990Y17865000D01*
X65080660Y17865000D01*
X64994000Y17845250D01*
X64939239Y17806421D01*
X63025953Y15893135D01*
X62978640Y15817892D01*
X62968631Y15774106D01*
X62962452Y15719261D01*
X62957488Y15697511D01*
X62909436Y15560188D01*
X62899752Y15540078D01*
X62822349Y15416892D01*
X62808430Y15399439D01*
X62705561Y15296570D01*
X62688108Y15282651D01*
X62564922Y15205248D01*
X62544812Y15195564D01*
X62407489Y15147512D01*
X62385731Y15142547D01*
X62241165Y15126258D01*
X62218835Y15126258D01*
X62074269Y15142547D01*
X62052511Y15147512D01*
X61915188Y15195564D01*
X61895078Y15205248D01*
X61771892Y15282651D01*
X61754439Y15296570D01*
X61651570Y15399439D01*
X61637651Y15416892D01*
X61560248Y15540078D01*
X61550564Y15560188D01*
X61502512Y15697511D01*
X61497547Y15719269D01*
X61481258Y15863835D01*
X61481258Y15886165D01*
X61497547Y16030731D01*
X61502512Y16052489D01*
X61550564Y16189812D01*
X61560248Y16209922D01*
X61637651Y16333108D01*
X61651570Y16350561D01*
X61754439Y16453430D01*
X61771892Y16467349D01*
X61895078Y16544752D01*
X61915188Y16554436D01*
X62052511Y16602488D01*
X62074261Y16607452D01*
X62129106Y16613631D01*
X62213010Y16642960D01*
X62248135Y16670953D01*
X64370761Y18793579D01*
X64418074Y18868822D01*
X64428111Y18957135D01*
X64398891Y19041077D01*
X64336185Y19104068D01*
X64229340Y19135000D01*
X57096195Y19135000D01*
X57009535Y19115250D01*
X56982742Y19098427D01*
X56982617Y19098626D01*
X56849922Y19015248D01*
X56829812Y19005564D01*
X56692489Y18957512D01*
X56670731Y18952547D01*
X56526165Y18936258D01*
X56503835Y18936258D01*
X56359269Y18952547D01*
X56337511Y18957512D01*
X56200188Y19005564D01*
X56180078Y19015248D01*
X56056892Y19092651D01*
X56039439Y19106570D01*
X55936570Y19209439D01*
X55922651Y19226892D01*
X55845248Y19350078D01*
X55835564Y19370188D01*
X55787512Y19507511D01*
X55782547Y19529269D01*
X55766258Y19673835D01*
X55766258Y19696165D01*
X55782547Y19840731D01*
X55787512Y19862489D01*
X55835564Y19999812D01*
X55845248Y20019922D01*
X55922651Y20143108D01*
X55936570Y20160561D01*
X56039439Y20263430D01*
X56056892Y20277349D01*
X56180078Y20354752D01*
X56200188Y20364436D01*
X56337511Y20412488D01*
X56359269Y20417453D01*
X56503835Y20433742D01*
X56526165Y20433742D01*
X56670731Y20417453D01*
X56692489Y20412488D01*
X56829812Y20364436D01*
X56849922Y20354752D01*
X56982617Y20271374D01*
X56983534Y20272833D01*
X57051559Y20240045D01*
X57096195Y20235000D01*
X70174341Y20235000D01*
X70261001Y20254750D01*
X70315762Y20293579D01*
X71355061Y21332878D01*
X71368178Y21343377D01*
X71376929Y21352225D01*
X71469598Y21423333D01*
X71492114Y21436332D01*
X71573127Y21469888D01*
X71573129Y21469889D01*
X71600538Y21481243D01*
X71625643Y21487970D01*
X71748506Y21504145D01*
X71761549Y21505000D01*
X72306990Y21505000D01*
X72393650Y21524750D01*
X72477032Y21599711D01*
X72480996Y21606112D01*
X72492104Y21620822D01*
X72615576Y21756263D01*
X72629202Y21768685D01*
X72775468Y21879140D01*
X72791119Y21888831D01*
X72955211Y21970540D01*
X72972371Y21977187D01*
X73084656Y22009135D01*
X73162602Y22051847D01*
X73214345Y22124115D01*
X73229664Y22211667D01*
X73205535Y22297211D01*
X73146722Y22363852D01*
X73029923Y22401500D01*
X72287502Y22401500D01*
X72268455Y22405841D01*
X72265000Y22412985D01*
X72265000Y24029341D01*
X72245250Y24116001D01*
X72206421Y24170762D01*
X71585762Y24791421D01*
X71510519Y24838734D01*
X71444341Y24850000D01*
X57096195Y24850000D01*
X57009535Y24830250D01*
X56982742Y24813427D01*
X56982617Y24813626D01*
X56849922Y24730248D01*
X56829812Y24720564D01*
X56692489Y24672512D01*
X56670731Y24667547D01*
X56526165Y24651258D01*
X56503835Y24651258D01*
X56359269Y24667547D01*
X56337511Y24672512D01*
X56200188Y24720564D01*
X56180078Y24730248D01*
X56056892Y24807651D01*
X56039439Y24821570D01*
X55936570Y24924439D01*
X55922651Y24941892D01*
X55845248Y25065078D01*
X55835564Y25085188D01*
X55787512Y25222511D01*
X55782547Y25244269D01*
X55766258Y25388835D01*
X55766258Y25411165D01*
X55782547Y25555731D01*
X55787512Y25577489D01*
X55835564Y25714812D01*
X55845248Y25734922D01*
X55922651Y25858108D01*
X55936570Y25875561D01*
X56039439Y25978430D01*
X56056892Y25992349D01*
X56180078Y26069752D01*
X56200188Y26079436D01*
X56337511Y26127488D01*
X56359269Y26132453D01*
X56503835Y26148742D01*
X56526165Y26148742D01*
X56670731Y26132453D01*
X56692489Y26127488D01*
X56829812Y26079436D01*
X56849922Y26069752D01*
X56982617Y25986374D01*
X56983534Y25987833D01*
X57051559Y25955045D01*
X57096195Y25950000D01*
X57630335Y25950000D01*
X57716995Y25969750D01*
X57786539Y26025099D01*
X57825234Y26105117D01*
X57825435Y26193998D01*
X57799680Y26256406D01*
X57750250Y26335073D01*
X57740564Y26355188D01*
X57692512Y26492511D01*
X57687547Y26514269D01*
X57671258Y26658835D01*
X57671258Y26681165D01*
X57687547Y26825731D01*
X57692512Y26847489D01*
X57740564Y26984812D01*
X57750248Y27004922D01*
X57775222Y27044667D01*
X57775222Y28930963D01*
X57609442Y28947291D01*
X57590262Y28951106D01*
X57430852Y28999462D01*
X57412788Y29006945D01*
X57265872Y29085473D01*
X57249614Y29096336D01*
X57120839Y29202020D01*
X57107020Y29215839D01*
X57001336Y29344614D01*
X56990473Y29360872D01*
X56911945Y29507788D01*
X56904462Y29525852D01*
X56856106Y29685262D01*
X56852291Y29704442D01*
X56835481Y29875117D01*
X56835000Y29884907D01*
X56835000Y31075093D01*
X56835481Y31084883D01*
X56852291Y31255558D01*
X56856106Y31274738D01*
X56904462Y31434148D01*
X56911945Y31452212D01*
X56990473Y31599128D01*
X57001336Y31615386D01*
X57107020Y31744161D01*
X57120839Y31757980D01*
X57249614Y31863664D01*
X57265872Y31874527D01*
X57412788Y31953055D01*
X57430852Y31960538D01*
X57590262Y32008894D01*
X57609442Y32012709D01*
X57775222Y32029037D01*
X57794778Y32029037D01*
X57960558Y32012709D01*
X57979738Y32008894D01*
X58139148Y31960538D01*
X58157212Y31953055D01*
X58304128Y31874527D01*
X58320386Y31863664D01*
X58449161Y31757980D01*
X58462980Y31744161D01*
X58568664Y31615386D01*
X58579527Y31599128D01*
X58658055Y31452212D01*
X58665538Y31434148D01*
X58713894Y31274738D01*
X58717709Y31255558D01*
X58734519Y31084883D01*
X58735000Y31075093D01*
X58735000Y29884907D01*
X58734519Y29875117D01*
X58717709Y29704442D01*
X58713894Y29685262D01*
X58665538Y29525852D01*
X58658055Y29507788D01*
X58579527Y29360872D01*
X58568664Y29344614D01*
X58462980Y29215839D01*
X58449161Y29202020D01*
X58320386Y29096336D01*
X58304128Y29085473D01*
X58157212Y29006945D01*
X58139148Y28999462D01*
X57979738Y28951106D01*
X57960558Y28947291D01*
X57794778Y28930963D01*
X57775222Y28930963D01*
X57775222Y27044667D01*
X57827651Y27128108D01*
X57841570Y27145561D01*
X57944439Y27248430D01*
X57961892Y27262349D01*
X58085078Y27339752D01*
X58105188Y27349436D01*
X58242511Y27397488D01*
X58264269Y27402453D01*
X58408835Y27418742D01*
X58431165Y27418742D01*
X58575731Y27402453D01*
X58597489Y27397488D01*
X58734812Y27349436D01*
X58754922Y27339752D01*
X58887617Y27256374D01*
X58888534Y27257833D01*
X58956559Y27225045D01*
X59001195Y27220000D01*
X73018449Y27220000D01*
X73031496Y27219145D01*
X73154351Y27202971D01*
X73179466Y27196242D01*
X73287886Y27151332D01*
X73310401Y27138333D01*
X73408718Y27062892D01*
X73418539Y27054279D01*
X75825739Y24647079D01*
X75900982Y24599766D01*
X75967160Y24588500D01*
X76496873Y24588500D01*
X76506105Y24588073D01*
X76693229Y24570734D01*
X76711319Y24567352D01*
X76887629Y24517187D01*
X76904789Y24510540D01*
X77068881Y24428831D01*
X77084532Y24419140D01*
X77230798Y24308685D01*
X77244424Y24296263D01*
X77367896Y24160822D01*
X77379003Y24146115D01*
X77475493Y23990278D01*
X77483702Y23973792D01*
X77549918Y23802865D01*
X77554954Y23785168D01*
X77588637Y23604981D01*
X77590335Y23586649D01*
X77590335Y23403351D01*
X77588637Y23385019D01*
X77554954Y23204832D01*
X77549918Y23187135D01*
X77483702Y23016208D01*
X77475493Y22999722D01*
X77379003Y22843885D01*
X77367896Y22829178D01*
X77244424Y22693737D01*
X77230798Y22681315D01*
X77084532Y22570860D01*
X77068881Y22561169D01*
X76904789Y22479460D01*
X76887629Y22472813D01*
X76711319Y22422648D01*
X76693229Y22419266D01*
X76506105Y22401927D01*
X76496873Y22401500D01*
X75903127Y22401500D01*
X75893895Y22401927D01*
X75706771Y22419266D01*
X75688681Y22422648D01*
X75512371Y22472813D01*
X75495202Y22479464D01*
X75338857Y22557315D01*
X75252479Y22578264D01*
X75165554Y22559716D01*
X75095249Y22505335D01*
X75054709Y22422725D01*
X75050659Y22404955D01*
X75043515Y22401500D01*
X74290077Y22401500D01*
X74203417Y22381750D01*
X74133873Y22326401D01*
X74095178Y22246383D01*
X74094977Y22157502D01*
X74133307Y22077310D01*
X74235344Y22009135D01*
X74347629Y21977187D01*
X74364789Y21970540D01*
X74528881Y21888831D01*
X74544532Y21879140D01*
X74690798Y21768685D01*
X74704424Y21756263D01*
X74827896Y21620822D01*
X74839003Y21606115D01*
X74935493Y21450278D01*
X74943702Y21433792D01*
X75009918Y21262865D01*
X75014954Y21245168D01*
X75048637Y21064981D01*
X75050335Y21046649D01*
X75050335Y20863351D01*
X75048637Y20845019D01*
X75014954Y20664832D01*
X75009918Y20647135D01*
X74943702Y20476208D01*
X74935493Y20459722D01*
X74839003Y20303885D01*
X74827896Y20289178D01*
X74704424Y20153737D01*
X74690798Y20141315D01*
X74544532Y20030860D01*
X74528881Y20021169D01*
X74364789Y19939460D01*
X74347629Y19932813D01*
X74171319Y19882648D01*
X74165680Y19881594D01*
X74084125Y19846256D01*
X74025935Y19779070D01*
X74002604Y19693305D01*
X74018738Y19605900D01*
X74071152Y19534117D01*
X74162454Y19489966D01*
X74162430Y19489881D01*
X74162915Y19489743D01*
X74165680Y19488406D01*
X74171319Y19487352D01*
X74347629Y19437187D01*
X74364789Y19430540D01*
X74528881Y19348831D01*
X74544532Y19339140D01*
X74690798Y19228685D01*
X74704419Y19216268D01*
X74782199Y19130948D01*
X74855177Y19080212D01*
X74942933Y19066107D01*
X75028134Y19091419D01*
X75077801Y19130948D01*
X75155581Y19216268D01*
X75169202Y19228685D01*
X75315468Y19339140D01*
X75331119Y19348831D01*
X75495211Y19430540D01*
X75512371Y19437187D01*
X75688681Y19487352D01*
X75706771Y19490734D01*
X75893895Y19508073D01*
X75903127Y19508500D01*
X76496873Y19508500D01*
X76506105Y19508073D01*
X76693229Y19490734D01*
X76711319Y19487352D01*
X76887629Y19437187D01*
X76904789Y19430540D01*
X77068881Y19348831D01*
X77084532Y19339140D01*
X77230798Y19228685D01*
X77244424Y19216263D01*
X77367896Y19080822D01*
X77379008Y19066107D01*
X77382968Y19059711D01*
X77445381Y18996430D01*
X77553010Y18965000D01*
X78158805Y18965000D01*
X78245465Y18984750D01*
X78272258Y19001573D01*
X78272383Y19001374D01*
X78405078Y19084752D01*
X78425188Y19094436D01*
X78562511Y19142488D01*
X78584269Y19147453D01*
X78728835Y19163742D01*
X78751165Y19163742D01*
X78895731Y19147453D01*
X78917489Y19142488D01*
X79054812Y19094436D01*
X79074922Y19084752D01*
X79198108Y19007349D01*
X79215561Y18993430D01*
X79318430Y18890561D01*
X79332349Y18873108D01*
X79409752Y18749922D01*
X79419436Y18729812D01*
X79467488Y18592489D01*
X79472453Y18570731D01*
X79488742Y18426165D01*
X79488742Y18403835D01*
X79472453Y18259269D01*
X79467488Y18237511D01*
X79419436Y18100188D01*
X79409752Y18080078D01*
X79332349Y17956892D01*
X79318430Y17939439D01*
X79215561Y17836570D01*
X79198108Y17822651D01*
X79074922Y17745248D01*
X79054812Y17735564D01*
X78917489Y17687512D01*
X78895731Y17682547D01*
X78751165Y17666258D01*
X78728835Y17666258D01*
X78584269Y17682547D01*
X78562511Y17687512D01*
X78425188Y17735564D01*
X78405078Y17745248D01*
X78272383Y17828626D01*
X78271466Y17827167D01*
X78203441Y17859955D01*
X78158805Y17865000D01*
X77553010Y17865000D01*
X77466350Y17845250D01*
X77382968Y17770289D01*
X77379004Y17763888D01*
X77367896Y17749178D01*
X77244424Y17613737D01*
X77230798Y17601315D01*
X77084532Y17490860D01*
X77068881Y17481169D01*
X76904789Y17399460D01*
X76887629Y17392813D01*
X76711319Y17342648D01*
X76705680Y17341594D01*
X76624125Y17306256D01*
X76565935Y17239070D01*
X76542604Y17153305D01*
X76558738Y17065900D01*
X76611152Y16994117D01*
X76702454Y16949966D01*
X76702430Y16949881D01*
X76702915Y16949743D01*
X76705680Y16948406D01*
X76711319Y16947352D01*
X76887629Y16897187D01*
X76904789Y16890540D01*
X77068881Y16808831D01*
X77084532Y16799140D01*
X77230798Y16688685D01*
X77244424Y16676263D01*
X77367896Y16540822D01*
X77379008Y16526107D01*
X77382968Y16519711D01*
X77445381Y16456430D01*
X77553010Y16425000D01*
X78158805Y16425000D01*
X78245465Y16444750D01*
X78272258Y16461573D01*
X78272383Y16461374D01*
X78405078Y16544752D01*
X78425188Y16554436D01*
X78562511Y16602488D01*
X78584269Y16607453D01*
X78728835Y16623742D01*
X78751165Y16623742D01*
X78895731Y16607453D01*
X78917489Y16602488D01*
X79054812Y16554436D01*
X79074922Y16544752D01*
X79198108Y16467349D01*
X79215561Y16453430D01*
X79318430Y16350561D01*
X79332349Y16333108D01*
X79409752Y16209922D01*
X79419436Y16189812D01*
X79467488Y16052489D01*
X79472453Y16030731D01*
X79488742Y15886165D01*
X79488742Y15863835D01*
X79472453Y15719269D01*
X79467488Y15697511D01*
X79419436Y15560188D01*
X79409752Y15540078D01*
X79332349Y15416892D01*
X79318430Y15399439D01*
X79215561Y15296570D01*
X79198108Y15282651D01*
X79074922Y15205248D01*
X79054812Y15195564D01*
X78917489Y15147512D01*
X78895731Y15142547D01*
X78751165Y15126258D01*
X78728835Y15126258D01*
X78584269Y15142547D01*
X78562511Y15147512D01*
X78425188Y15195564D01*
X78405078Y15205248D01*
X78272383Y15288626D01*
X78271466Y15287167D01*
X78203441Y15319955D01*
X78158805Y15325000D01*
X77553010Y15325000D01*
X77466350Y15305250D01*
X77382968Y15230289D01*
X77379004Y15223888D01*
X77367896Y15209178D01*
X77244424Y15073737D01*
X77230798Y15061315D01*
X77084532Y14950860D01*
X77068881Y14941169D01*
X76904789Y14859460D01*
X76887629Y14852813D01*
X76711319Y14802648D01*
X76705680Y14801594D01*
X76624125Y14766256D01*
X76565935Y14699070D01*
X76542604Y14613305D01*
X76558738Y14525900D01*
X76611152Y14454117D01*
X76702454Y14409966D01*
X76702430Y14409881D01*
X76702915Y14409743D01*
X76705680Y14408406D01*
X76711319Y14407352D01*
X76887629Y14357187D01*
X76904789Y14350540D01*
X77068881Y14268831D01*
X77084532Y14259140D01*
X77230798Y14148685D01*
X77244424Y14136263D01*
X77367896Y14000822D01*
X77379008Y13986107D01*
X77382968Y13979711D01*
X77445381Y13916430D01*
X77553010Y13885000D01*
X78158805Y13885000D01*
X78245465Y13904750D01*
X78272258Y13921573D01*
X78272383Y13921374D01*
X78405078Y14004752D01*
X78425188Y14014436D01*
X78562511Y14062488D01*
X78584269Y14067453D01*
X78728835Y14083742D01*
X78751165Y14083742D01*
X78895731Y14067453D01*
X78917489Y14062488D01*
X79054812Y14014436D01*
X79074922Y14004752D01*
X79198108Y13927349D01*
X79215561Y13913430D01*
X79318430Y13810561D01*
X79332349Y13793108D01*
X79409752Y13669922D01*
X79419436Y13649812D01*
X79467488Y13512489D01*
X79472453Y13490731D01*
X79488742Y13346165D01*
X79488742Y13323835D01*
X79472453Y13179269D01*
X79467488Y13157511D01*
X79419436Y13020188D01*
X79409752Y13000078D01*
X79332349Y12876892D01*
X79318430Y12859439D01*
X79215561Y12756570D01*
X79198108Y12742651D01*
X79074922Y12665248D01*
X79054812Y12655564D01*
X78917489Y12607512D01*
X78895731Y12602547D01*
X78751165Y12586258D01*
X78728835Y12586258D01*
X78584269Y12602547D01*
X78562511Y12607512D01*
X78425188Y12655564D01*
X78405078Y12665248D01*
X78272383Y12748626D01*
X78271466Y12747167D01*
X78203441Y12779955D01*
X78158805Y12785000D01*
X77553010Y12785000D01*
X77466350Y12765250D01*
X77382968Y12690289D01*
X77379004Y12683888D01*
X77367896Y12669178D01*
X77244424Y12533737D01*
X77230798Y12521315D01*
X77084532Y12410860D01*
X77068881Y12401169D01*
X76904789Y12319460D01*
X76887629Y12312813D01*
X76711319Y12262648D01*
X76705680Y12261594D01*
X76624125Y12226256D01*
X76565935Y12159070D01*
X76542604Y12073305D01*
X76558738Y11985900D01*
X76611152Y11914117D01*
X76702454Y11869966D01*
X76702430Y11869881D01*
X76702915Y11869743D01*
X76705680Y11868406D01*
X76711319Y11867352D01*
X76887629Y11817187D01*
X76904789Y11810540D01*
X77068881Y11728831D01*
X77084532Y11719140D01*
X77230798Y11608685D01*
X77244424Y11596263D01*
X77367896Y11460822D01*
X77379008Y11446107D01*
X77382968Y11439711D01*
X77445381Y11376430D01*
X77553010Y11345000D01*
X78158805Y11345000D01*
X78245465Y11364750D01*
X78272258Y11381573D01*
X78272383Y11381374D01*
X78405078Y11464752D01*
X78425188Y11474436D01*
X78562511Y11522488D01*
X78584269Y11527453D01*
X78728835Y11543742D01*
X78751165Y11543742D01*
X78895731Y11527453D01*
X78917489Y11522488D01*
X79054812Y11474436D01*
X79074922Y11464752D01*
X79198108Y11387349D01*
X79215561Y11373430D01*
X79318430Y11270561D01*
X79332349Y11253108D01*
X79409752Y11129922D01*
X79419436Y11109812D01*
X79467488Y10972489D01*
X79472453Y10950731D01*
X79488742Y10806165D01*
X79488742Y10783835D01*
X79472453Y10639269D01*
X79467488Y10617511D01*
X79419436Y10480188D01*
X79409752Y10460078D01*
X79332349Y10336892D01*
X79318430Y10319439D01*
X79215561Y10216570D01*
X79198108Y10202651D01*
X79074922Y10125248D01*
X79054812Y10115564D01*
X78917489Y10067512D01*
X78895731Y10062547D01*
X78751165Y10046258D01*
X78728835Y10046258D01*
X78584269Y10062547D01*
X78562511Y10067512D01*
X78425188Y10115564D01*
X78405078Y10125248D01*
X78272383Y10208626D01*
X78271466Y10207167D01*
X78203441Y10239955D01*
X78158805Y10245000D01*
X77553010Y10245000D01*
X77466350Y10225250D01*
X77382968Y10150289D01*
X77379004Y10143888D01*
X77367896Y10129178D01*
X77244424Y9993737D01*
X77230798Y9981315D01*
X77084532Y9870860D01*
X77068881Y9861169D01*
X76904789Y9779460D01*
X76887629Y9772813D01*
X76711319Y9722648D01*
X76705680Y9721594D01*
X76624125Y9686256D01*
X76565935Y9619070D01*
X76542604Y9533305D01*
X76558738Y9445900D01*
X76611152Y9374117D01*
X76702454Y9329966D01*
X76702430Y9329881D01*
X76702915Y9329743D01*
X76705680Y9328406D01*
X76711319Y9327352D01*
X76887629Y9277187D01*
X76904789Y9270540D01*
X77068881Y9188831D01*
X77084532Y9179140D01*
X77230798Y9068685D01*
X77244424Y9056263D01*
X77367896Y8920822D01*
X77379008Y8906107D01*
X77382968Y8899711D01*
X77445381Y8836430D01*
X77553010Y8805000D01*
X79064341Y8805000D01*
X79151001Y8824750D01*
X79205762Y8863579D01*
X80036421Y9694238D01*
X80083734Y9769481D01*
X80095000Y9835659D01*
X80095000Y25724341D01*
X80075250Y25811001D01*
X80036421Y25865762D01*
X76030762Y29871421D01*
X75955519Y29918734D01*
X75889341Y29930000D01*
X62871551Y29930000D01*
X62858504Y29930855D01*
X62735649Y29947029D01*
X62710534Y29953758D01*
X62602114Y29998668D01*
X62579599Y30011667D01*
X62481282Y30087108D01*
X62471461Y30095721D01*
X59520761Y33046421D01*
X59445518Y33093734D01*
X59379340Y33105000D01*
X46665659Y33105000D01*
X46578999Y33085250D01*
X46524238Y33046421D01*
X45693579Y32215762D01*
X45646266Y32140519D01*
X45635000Y32074341D01*
X45635000Y31946263D01*
X45654750Y31859603D01*
X45708121Y31791662D01*
X45749155Y31757986D01*
X45762980Y31744161D01*
X45868664Y31615386D01*
X45879527Y31599128D01*
X45958055Y31452212D01*
X45965538Y31434148D01*
X46013894Y31274738D01*
X46017709Y31255558D01*
X46034519Y31084883D01*
X46035000Y31075093D01*
X46035000Y29884907D01*
X46034519Y29875117D01*
X46017709Y29704442D01*
X46013894Y29685262D01*
X45965538Y29525852D01*
X45958055Y29507788D01*
X45879527Y29360872D01*
X45868664Y29344614D01*
X45762980Y29215839D01*
X45749161Y29202020D01*
X45620386Y29096336D01*
X45604128Y29085473D01*
X45457212Y29006945D01*
X45439148Y28999462D01*
X45279738Y28951106D01*
X45260558Y28947291D01*
X45094778Y28930963D01*
X45075222Y28930963D01*
X44909442Y28947291D01*
X44890262Y28951106D01*
X44730852Y28999462D01*
X44712788Y29006945D01*
X44565872Y29085473D01*
X44549614Y29096336D01*
X44420839Y29202020D01*
X44407020Y29215839D01*
X44301336Y29344614D01*
X44290473Y29360872D01*
X44211945Y29507788D01*
X44204462Y29525852D01*
X44156106Y29685262D01*
X44152291Y29704442D01*
X44135481Y29875117D01*
X44135000Y29884907D01*
X44135000Y31075093D01*
X44135481Y31084883D01*
X44152291Y31255558D01*
X44156106Y31274738D01*
X44204462Y31434148D01*
X44211945Y31452212D01*
X44290473Y31599128D01*
X44301336Y31615386D01*
X44407020Y31744161D01*
X44420845Y31757986D01*
X44461879Y31791662D01*
X44516339Y31861905D01*
X44535000Y31946263D01*
X44535000Y32378450D01*
X44535855Y32391493D01*
X44552030Y32514353D01*
X44558758Y32539462D01*
X44603668Y32647886D01*
X44616667Y32670402D01*
X44687775Y32763071D01*
X44696623Y32771822D01*
X44701208Y32779025D01*
X45955762Y34033579D01*
X46003075Y34108822D01*
X46013112Y34197135D01*
X45983892Y34281077D01*
X45921186Y34344068D01*
X45814341Y34375000D01*
X18090660Y34375000D01*
X18004000Y34355250D01*
X17949239Y34316421D01*
X15446040Y31813222D01*
X15398727Y31737979D01*
X15388690Y31649666D01*
X15411076Y31577522D01*
X15478057Y31452209D01*
X15485538Y31434148D01*
X15533894Y31274738D01*
X15537709Y31255558D01*
X15554519Y31084883D01*
X15555000Y31075093D01*
X15555000Y29884907D01*
X15554519Y29875117D01*
X15537709Y29704442D01*
X15533894Y29685262D01*
X15485538Y29525852D01*
X15478055Y29507788D01*
X15399527Y29360872D01*
X15388664Y29344614D01*
X15282980Y29215839D01*
X15269161Y29202020D01*
X15140386Y29096336D01*
X15124128Y29085473D01*
X14977212Y29006945D01*
X14959148Y28999462D01*
X14799738Y28951106D01*
X14780558Y28947291D01*
X14614778Y28930963D01*
X14595222Y28930963D01*
X14429442Y28947291D01*
X14410262Y28951106D01*
X14250852Y28999462D01*
X14232788Y29006945D01*
X14085872Y29085473D01*
X14069614Y29096336D01*
X13940839Y29202020D01*
X13927020Y29215839D01*
X13821336Y29344614D01*
X13810473Y29360872D01*
X13731945Y29507788D01*
X13724462Y29525852D01*
X13676106Y29685262D01*
X13672291Y29704442D01*
X13655481Y29875117D01*
X13655000Y29884907D01*
X13655000Y31075093D01*
X13655481Y31084883D01*
X13672291Y31255558D01*
X13676106Y31274738D01*
X13724462Y31434148D01*
X13731945Y31452212D01*
X13810473Y31599128D01*
X13821336Y31615386D01*
X13927020Y31744161D01*
X13940843Y31757984D01*
X14019137Y31822238D01*
X14077035Y31900303D01*
X14123670Y32012890D01*
X14136667Y32035401D01*
X14212108Y32133718D01*
X14220721Y32143539D01*
X17386461Y35309279D01*
X17396279Y35317890D01*
X17426825Y35341328D01*
X17483554Y35409752D01*
X17505034Y35495999D01*
X17487021Y35583037D01*
X17433074Y35653675D01*
X17353847Y35693962D01*
X17305074Y35700000D01*
X500000Y35700000D01*
X413340Y35680250D01*
X343796Y35624901D01*
X305101Y35544883D01*
X300000Y35500000D01*
X300000Y500000D01*
X319750Y413340D01*
X375099Y343796D01*
X455117Y305101D01*
X500000Y300000D01*
X14595222Y300000D01*
X14595222Y3530963D01*
X14429442Y3547291D01*
X14410262Y3551106D01*
X14250852Y3599462D01*
X14232788Y3606945D01*
X14085872Y3685473D01*
X14069614Y3696336D01*
X13940839Y3802020D01*
X13927020Y3815839D01*
X13821336Y3944614D01*
X13810473Y3960872D01*
X13731945Y4107788D01*
X13724462Y4125852D01*
X13676106Y4285262D01*
X13672291Y4304442D01*
X13655481Y4475117D01*
X13655000Y4484907D01*
X13655000Y5675093D01*
X13655481Y5684883D01*
X13672291Y5855558D01*
X13676106Y5874738D01*
X13724462Y6034148D01*
X13731945Y6052212D01*
X13810473Y6199128D01*
X13821336Y6215386D01*
X13927020Y6344161D01*
X13940839Y6357980D01*
X14069614Y6463664D01*
X14085872Y6474527D01*
X14232788Y6553055D01*
X14250852Y6560538D01*
X14410262Y6608894D01*
X14429442Y6612709D01*
X14595222Y6629037D01*
X14611551Y6629037D01*
X14611551Y15960000D01*
X14598504Y15960855D01*
X14475649Y15977029D01*
X14450534Y15983758D01*
X14342114Y16028668D01*
X14319599Y16041667D01*
X14221282Y16117108D01*
X14211461Y16125721D01*
X6305469Y24031713D01*
X6230226Y24079026D01*
X6141913Y24089063D01*
X6091800Y24076786D01*
X6022875Y24050084D01*
X6005168Y24045046D01*
X5824981Y24011363D01*
X5806649Y24009665D01*
X5623351Y24009665D01*
X5605019Y24011363D01*
X5424832Y24045046D01*
X5407135Y24050082D01*
X5236208Y24116298D01*
X5219722Y24124507D01*
X5063885Y24220997D01*
X5049178Y24232104D01*
X4913737Y24355576D01*
X4901315Y24369202D01*
X4790860Y24515468D01*
X4781169Y24531119D01*
X4699460Y24695211D01*
X4692813Y24712371D01*
X4642648Y24888681D01*
X4639266Y24906771D01*
X4621927Y25093895D01*
X4621500Y25103127D01*
X4621500Y25696873D01*
X4621927Y25706105D01*
X4639266Y25893229D01*
X4642648Y25911319D01*
X4692813Y26087629D01*
X4699460Y26104789D01*
X4781169Y26268881D01*
X4790860Y26284532D01*
X4901315Y26430798D01*
X4913737Y26444424D01*
X5049178Y26567896D01*
X5063885Y26579003D01*
X5219722Y26675493D01*
X5236208Y26683702D01*
X5407135Y26749918D01*
X5424832Y26754954D01*
X5605019Y26788637D01*
X5623351Y26790335D01*
X5806649Y26790335D01*
X5824981Y26788637D01*
X6005168Y26754954D01*
X6022865Y26749918D01*
X6193792Y26683702D01*
X6210278Y26675493D01*
X6366115Y26579003D01*
X6380822Y26567896D01*
X6516263Y26444424D01*
X6528685Y26430798D01*
X6639140Y26284532D01*
X6648831Y26268881D01*
X6730540Y26104789D01*
X6737187Y26087629D01*
X6787352Y25911319D01*
X6790734Y25893229D01*
X6808073Y25706105D01*
X6808500Y25696873D01*
X6808500Y25167160D01*
X6828250Y25080500D01*
X6867079Y25025739D01*
X14774239Y17118579D01*
X14849482Y17071266D01*
X14915660Y17060000D01*
X16604341Y17060000D01*
X16691001Y17079750D01*
X16760545Y17135099D01*
X16799240Y17215117D01*
X16799441Y17303998D01*
X16745762Y17401421D01*
X6305470Y27841713D01*
X6230227Y27889026D01*
X6141914Y27899063D01*
X6091802Y27886787D01*
X6022869Y27860083D01*
X6005168Y27855046D01*
X5824981Y27821363D01*
X5806649Y27819665D01*
X5623351Y27819665D01*
X5605019Y27821363D01*
X5424832Y27855046D01*
X5407135Y27860082D01*
X5236208Y27926298D01*
X5219722Y27934507D01*
X5063885Y28030997D01*
X5049178Y28042104D01*
X4913737Y28165576D01*
X4901315Y28179202D01*
X4790860Y28325468D01*
X4781169Y28341119D01*
X4699460Y28505211D01*
X4692813Y28522371D01*
X4642648Y28698681D01*
X4639266Y28716771D01*
X4621927Y28903895D01*
X4621500Y28913127D01*
X4621500Y29506873D01*
X4621927Y29516105D01*
X4639266Y29703229D01*
X4642648Y29721319D01*
X4692813Y29897629D01*
X4699460Y29914789D01*
X4781169Y30078881D01*
X4790860Y30094532D01*
X4901315Y30240798D01*
X4913737Y30254424D01*
X5049178Y30377896D01*
X5063885Y30389003D01*
X5219722Y30485493D01*
X5236208Y30493702D01*
X5407135Y30559918D01*
X5424832Y30564954D01*
X5605019Y30598637D01*
X5623351Y30600335D01*
X5806649Y30600335D01*
X5824981Y30598637D01*
X6005168Y30564954D01*
X6022865Y30559918D01*
X6193792Y30493702D01*
X6210278Y30485493D01*
X6366115Y30389003D01*
X6380822Y30377896D01*
X6516263Y30254424D01*
X6528685Y30240798D01*
X6639140Y30094532D01*
X6648831Y30078881D01*
X6730540Y29914789D01*
X6737187Y29897629D01*
X6787352Y29721319D01*
X6790734Y29703229D01*
X6808073Y29516105D01*
X6808500Y29506873D01*
X6808500Y28977159D01*
X6828250Y28890499D01*
X6867079Y28835738D01*
X17314238Y18388579D01*
X17389481Y18341266D01*
X17455659Y18330000D01*
X19144341Y18330000D01*
X19231001Y18349750D01*
X19300545Y18405099D01*
X19339240Y18485117D01*
X19339441Y18573998D01*
X19285762Y18671421D01*
X6305470Y31651713D01*
X6230227Y31699026D01*
X6141914Y31709063D01*
X6091802Y31696787D01*
X6022869Y31670083D01*
X6005168Y31665046D01*
X5824981Y31631363D01*
X5806649Y31629665D01*
X5623351Y31629665D01*
X5605019Y31631363D01*
X5424832Y31665046D01*
X5407135Y31670082D01*
X5236208Y31736298D01*
X5219722Y31744507D01*
X5063885Y31840997D01*
X5049178Y31852104D01*
X4913737Y31975576D01*
X4901315Y31989202D01*
X4790860Y32135468D01*
X4781169Y32151119D01*
X4699460Y32315211D01*
X4692813Y32332371D01*
X4642648Y32508681D01*
X4639266Y32526771D01*
X4621927Y32713895D01*
X4621500Y32723127D01*
X4621500Y33316873D01*
X4621927Y33326105D01*
X4639266Y33513229D01*
X4642648Y33531319D01*
X4692813Y33707629D01*
X4699460Y33724789D01*
X4781169Y33888881D01*
X4790860Y33904532D01*
X4901315Y34050798D01*
X4913737Y34064424D01*
X5049178Y34187896D01*
X5063885Y34199003D01*
X5219722Y34295493D01*
X5236208Y34303702D01*
X5407135Y34369918D01*
X5424832Y34374954D01*
X5605019Y34408637D01*
X5623351Y34410335D01*
X5806649Y34410335D01*
X5824981Y34408637D01*
X6005168Y34374954D01*
X6022865Y34369918D01*
X6193792Y34303702D01*
X6210278Y34295493D01*
X6366115Y34199003D01*
X6380822Y34187896D01*
X6516263Y34064424D01*
X6528685Y34050798D01*
X6639140Y33904532D01*
X6648831Y33888881D01*
X6730540Y33724789D01*
X6737187Y33707629D01*
X6787352Y33531319D01*
X6790734Y33513229D01*
X6808073Y33326105D01*
X6808500Y33316873D01*
X6808500Y32787159D01*
X6828250Y32700499D01*
X6867079Y32645738D01*
X19675222Y19837595D01*
X19675222Y28930963D01*
X19509442Y28947291D01*
X19490262Y28951106D01*
X19330852Y28999462D01*
X19312788Y29006945D01*
X19165872Y29085473D01*
X19149614Y29096336D01*
X19020839Y29202020D01*
X19007020Y29215839D01*
X18901336Y29344614D01*
X18890473Y29360872D01*
X18811945Y29507788D01*
X18804462Y29525852D01*
X18756106Y29685262D01*
X18752291Y29704442D01*
X18735481Y29875117D01*
X18735000Y29884907D01*
X18735000Y31075093D01*
X18735481Y31084883D01*
X18752291Y31255558D01*
X18756106Y31274738D01*
X18804462Y31434148D01*
X18811945Y31452212D01*
X18890473Y31599128D01*
X18901336Y31615386D01*
X19007020Y31744161D01*
X19020839Y31757980D01*
X19149614Y31863664D01*
X19165872Y31874527D01*
X19312788Y31953055D01*
X19330852Y31960538D01*
X19490262Y32008894D01*
X19509442Y32012709D01*
X19675222Y32029037D01*
X19694778Y32029037D01*
X19860558Y32012709D01*
X19879738Y32008894D01*
X20039148Y31960538D01*
X20057212Y31953055D01*
X20204128Y31874527D01*
X20220386Y31863664D01*
X20349161Y31757980D01*
X20362980Y31744161D01*
X20468664Y31615386D01*
X20479527Y31599128D01*
X20558055Y31452212D01*
X20565538Y31434148D01*
X20613894Y31274738D01*
X20617709Y31255558D01*
X20634519Y31084883D01*
X20635000Y31075093D01*
X20635000Y29884907D01*
X20634519Y29875117D01*
X20617709Y29704442D01*
X20613894Y29685262D01*
X20565538Y29525852D01*
X20558055Y29507788D01*
X20479527Y29360872D01*
X20468664Y29344614D01*
X20362980Y29215839D01*
X20349161Y29202020D01*
X20220386Y29096336D01*
X20204128Y29085473D01*
X20057212Y29006945D01*
X20039148Y28999462D01*
X19879738Y28951106D01*
X19860558Y28947291D01*
X19694778Y28930963D01*
X19675222Y28930963D01*
X19675222Y19837595D01*
X19854238Y19658579D01*
X19929481Y19611266D01*
X19995659Y19600000D01*
X22215222Y19600000D01*
X22215222Y28930963D01*
X22049442Y28947291D01*
X22030262Y28951106D01*
X21870852Y28999462D01*
X21852788Y29006945D01*
X21705872Y29085473D01*
X21689614Y29096336D01*
X21560839Y29202020D01*
X21547020Y29215839D01*
X21441336Y29344614D01*
X21430473Y29360872D01*
X21351945Y29507788D01*
X21344462Y29525852D01*
X21296106Y29685262D01*
X21292291Y29704442D01*
X21275481Y29875117D01*
X21275000Y29884907D01*
X21275000Y31075093D01*
X21275481Y31084883D01*
X21292291Y31255558D01*
X21296106Y31274738D01*
X21344462Y31434148D01*
X21351945Y31452212D01*
X21430473Y31599128D01*
X21441336Y31615386D01*
X21547020Y31744161D01*
X21560839Y31757980D01*
X21689614Y31863664D01*
X21705872Y31874527D01*
X21852788Y31953055D01*
X21870852Y31960538D01*
X22030262Y32008894D01*
X22049442Y32012709D01*
X22215222Y32029037D01*
X22234778Y32029037D01*
X22400558Y32012709D01*
X22419738Y32008894D01*
X22579148Y31960538D01*
X22597212Y31953055D01*
X22744128Y31874527D01*
X22760386Y31863664D01*
X22889161Y31757980D01*
X22902980Y31744161D01*
X23008664Y31615386D01*
X23019527Y31599128D01*
X23098055Y31452212D01*
X23105538Y31434148D01*
X23153894Y31274738D01*
X23157709Y31255558D01*
X23174519Y31084883D01*
X23175000Y31075093D01*
X23175000Y29884907D01*
X23174519Y29875117D01*
X23157709Y29704442D01*
X23153894Y29685262D01*
X23105538Y29525852D01*
X23098055Y29507788D01*
X23019527Y29360872D01*
X23008664Y29344614D01*
X22902980Y29215839D01*
X22889161Y29202020D01*
X22760386Y29096336D01*
X22744128Y29085473D01*
X22597212Y29006945D01*
X22579148Y28999462D01*
X22419738Y28951106D01*
X22400558Y28947291D01*
X22234778Y28930963D01*
X22215222Y28930963D01*
X22215222Y19600000D01*
X24755222Y19600000D01*
X24755222Y28930963D01*
X24589442Y28947291D01*
X24570262Y28951106D01*
X24410852Y28999462D01*
X24392788Y29006945D01*
X24245872Y29085473D01*
X24229614Y29096336D01*
X24100839Y29202020D01*
X24087020Y29215839D01*
X23981336Y29344614D01*
X23970473Y29360872D01*
X23891945Y29507788D01*
X23884462Y29525852D01*
X23836106Y29685262D01*
X23832291Y29704442D01*
X23815481Y29875117D01*
X23815000Y29884907D01*
X23815000Y31075093D01*
X23815481Y31084883D01*
X23832291Y31255558D01*
X23836106Y31274738D01*
X23884462Y31434148D01*
X23891945Y31452212D01*
X23970473Y31599128D01*
X23981336Y31615386D01*
X24087020Y31744161D01*
X24100839Y31757980D01*
X24229614Y31863664D01*
X24245872Y31874527D01*
X24392788Y31953055D01*
X24410852Y31960538D01*
X24570262Y32008894D01*
X24589442Y32012709D01*
X24755222Y32029037D01*
X24774778Y32029037D01*
X24940558Y32012709D01*
X24959738Y32008894D01*
X25119148Y31960538D01*
X25137212Y31953055D01*
X25284128Y31874527D01*
X25300386Y31863664D01*
X25429161Y31757980D01*
X25442980Y31744161D01*
X25548664Y31615386D01*
X25559527Y31599128D01*
X25638055Y31452212D01*
X25645538Y31434148D01*
X25693894Y31274738D01*
X25697709Y31255558D01*
X25714519Y31084883D01*
X25715000Y31075093D01*
X25715000Y29884907D01*
X25714519Y29875117D01*
X25697709Y29704442D01*
X25693894Y29685262D01*
X25645538Y29525852D01*
X25638055Y29507788D01*
X25559527Y29360872D01*
X25548664Y29344614D01*
X25442980Y29215839D01*
X25429161Y29202020D01*
X25300386Y29096336D01*
X25284128Y29085473D01*
X25137212Y29006945D01*
X25119148Y28999462D01*
X24959738Y28951106D01*
X24940558Y28947291D01*
X24774778Y28930963D01*
X24755222Y28930963D01*
X24755222Y19600000D01*
X25089341Y19600000D01*
X25176001Y19619750D01*
X25230762Y19658579D01*
X26696421Y21124238D01*
X26743734Y21199481D01*
X26755000Y21265659D01*
X26755000Y29013737D01*
X26735250Y29100397D01*
X26681879Y29168338D01*
X26640845Y29202014D01*
X26627020Y29215839D01*
X26521336Y29344614D01*
X26510473Y29360872D01*
X26431945Y29507788D01*
X26424462Y29525852D01*
X26376106Y29685262D01*
X26372291Y29704442D01*
X26355481Y29875117D01*
X26355000Y29884907D01*
X26355000Y31075093D01*
X26355481Y31084883D01*
X26372291Y31255558D01*
X26376106Y31274738D01*
X26424462Y31434148D01*
X26431945Y31452212D01*
X26510473Y31599128D01*
X26521336Y31615386D01*
X26627020Y31744161D01*
X26640839Y31757980D01*
X26769614Y31863664D01*
X26785872Y31874527D01*
X26932788Y31953055D01*
X26950852Y31960538D01*
X27110262Y32008894D01*
X27129442Y32012709D01*
X27295222Y32029037D01*
X27314778Y32029037D01*
X27480558Y32012709D01*
X27499738Y32008894D01*
X27659148Y31960538D01*
X27677212Y31953055D01*
X27824128Y31874527D01*
X27840386Y31863664D01*
X27969161Y31757980D01*
X27982980Y31744161D01*
X28088664Y31615386D01*
X28099527Y31599128D01*
X28178055Y31452212D01*
X28185538Y31434148D01*
X28233894Y31274738D01*
X28237709Y31255558D01*
X28254519Y31084883D01*
X28255000Y31075093D01*
X28255000Y29884907D01*
X28254519Y29875117D01*
X28237709Y29704442D01*
X28233894Y29685262D01*
X28185538Y29525852D01*
X28178055Y29507788D01*
X28099527Y29360872D01*
X28088664Y29344614D01*
X27982980Y29215839D01*
X27969155Y29202014D01*
X27928121Y29168338D01*
X27873661Y29098095D01*
X27855000Y29013737D01*
X27855000Y20961550D01*
X27854145Y20948507D01*
X27837970Y20825647D01*
X27831242Y20800538D01*
X27786332Y20692114D01*
X27773333Y20669598D01*
X27702225Y20576929D01*
X27693377Y20568178D01*
X27688792Y20560975D01*
X25799238Y18671421D01*
X25751925Y18596178D01*
X25741888Y18507865D01*
X25771108Y18423923D01*
X25833814Y18360932D01*
X25940659Y18330000D01*
X40628835Y18330000D01*
X40628835Y18936258D01*
X40484269Y18952547D01*
X40462511Y18957512D01*
X40325188Y19005564D01*
X40305078Y19015248D01*
X40181892Y19092651D01*
X40164439Y19106570D01*
X40061570Y19209439D01*
X40047651Y19226892D01*
X39970248Y19350078D01*
X39960564Y19370188D01*
X39912512Y19507511D01*
X39907548Y19529261D01*
X39901369Y19584107D01*
X39872040Y19668011D01*
X39844047Y19703136D01*
X30532605Y29014578D01*
X30457362Y29061891D01*
X30369049Y29071928D01*
X30296904Y29049541D01*
X30217212Y29006945D01*
X30199148Y28999462D01*
X30039738Y28951106D01*
X30020558Y28947291D01*
X29854778Y28930963D01*
X29835222Y28930963D01*
X29669442Y28947291D01*
X29650262Y28951106D01*
X29490852Y28999462D01*
X29472788Y29006945D01*
X29325872Y29085473D01*
X29309614Y29096336D01*
X29180839Y29202020D01*
X29167020Y29215839D01*
X29061336Y29344614D01*
X29050473Y29360872D01*
X28971945Y29507788D01*
X28964462Y29525852D01*
X28916106Y29685262D01*
X28912291Y29704442D01*
X28895481Y29875117D01*
X28895000Y29884907D01*
X28895000Y31075093D01*
X28895481Y31084883D01*
X28912291Y31255558D01*
X28916106Y31274738D01*
X28964462Y31434148D01*
X28971945Y31452212D01*
X29050473Y31599128D01*
X29061336Y31615386D01*
X29167020Y31744161D01*
X29180839Y31757980D01*
X29309614Y31863664D01*
X29325872Y31874527D01*
X29472788Y31953055D01*
X29490852Y31960538D01*
X29650262Y32008894D01*
X29669442Y32012709D01*
X29835222Y32029037D01*
X29854778Y32029037D01*
X30020558Y32012709D01*
X30039738Y32008894D01*
X30199148Y31960538D01*
X30217212Y31953055D01*
X30364128Y31874527D01*
X30380386Y31863664D01*
X30509161Y31757980D01*
X30522980Y31744161D01*
X30628664Y31615386D01*
X30639527Y31599128D01*
X30718055Y31452212D01*
X30725538Y31434148D01*
X30773894Y31274738D01*
X30777709Y31255558D01*
X30794519Y31084883D01*
X30795000Y31075093D01*
X30795000Y30390659D01*
X30814750Y30303999D01*
X30853579Y30249238D01*
X31093579Y30009238D01*
X31168822Y29961925D01*
X31257135Y29951888D01*
X31341077Y29981108D01*
X31404068Y30043814D01*
X31435000Y30150659D01*
X31435000Y31075093D01*
X31435481Y31084883D01*
X31452291Y31255558D01*
X31456106Y31274738D01*
X31504462Y31434148D01*
X31511945Y31452212D01*
X31590473Y31599128D01*
X31601336Y31615386D01*
X31707020Y31744161D01*
X31720839Y31757980D01*
X31849614Y31863664D01*
X31865872Y31874527D01*
X32012788Y31953055D01*
X32030852Y31960538D01*
X32190262Y32008894D01*
X32209442Y32012709D01*
X32375222Y32029037D01*
X32394778Y32029037D01*
X32560558Y32012709D01*
X32579738Y32008894D01*
X32739148Y31960538D01*
X32757212Y31953055D01*
X32904128Y31874527D01*
X32920386Y31863664D01*
X33049161Y31757980D01*
X33062980Y31744161D01*
X33168664Y31615386D01*
X33179527Y31599128D01*
X33258055Y31452212D01*
X33265538Y31434148D01*
X33313894Y31274738D01*
X33317709Y31255558D01*
X33334519Y31084883D01*
X33335000Y31075093D01*
X33335000Y29884907D01*
X33334519Y29875117D01*
X33317709Y29704442D01*
X33313894Y29685262D01*
X33265538Y29525852D01*
X33258055Y29507788D01*
X33179527Y29360872D01*
X33168664Y29344614D01*
X33062980Y29215839D01*
X33049161Y29202020D01*
X32920386Y29096336D01*
X32904128Y29085473D01*
X32757212Y29006945D01*
X32739148Y28999462D01*
X32570643Y28948347D01*
X32493448Y28904292D01*
X32442965Y28831138D01*
X32429165Y28743334D01*
X32454773Y28658221D01*
X32487279Y28615538D01*
X37453835Y23648982D01*
X37453835Y24651258D01*
X37309269Y24667547D01*
X37287511Y24672512D01*
X37150188Y24720564D01*
X37130078Y24730248D01*
X37006892Y24807651D01*
X36989439Y24821570D01*
X36886570Y24924439D01*
X36872651Y24941892D01*
X36795248Y25065078D01*
X36785564Y25085188D01*
X36737512Y25222511D01*
X36732548Y25244261D01*
X36726369Y25299106D01*
X36697040Y25383010D01*
X36669047Y25418135D01*
X34540721Y27546461D01*
X34532108Y27556282D01*
X34456667Y27654599D01*
X34443668Y27677114D01*
X34398758Y27785534D01*
X34392029Y27810649D01*
X34376364Y27929639D01*
X34375855Y27933504D01*
X34375000Y27946551D01*
X34375000Y29013737D01*
X34355250Y29100397D01*
X34301879Y29168338D01*
X34260845Y29202014D01*
X34247020Y29215839D01*
X34141336Y29344614D01*
X34130473Y29360872D01*
X34051945Y29507788D01*
X34044462Y29525852D01*
X33996106Y29685262D01*
X33992291Y29704442D01*
X33975481Y29875117D01*
X33975000Y29884907D01*
X33975000Y31075093D01*
X33975481Y31084883D01*
X33992291Y31255558D01*
X33996106Y31274738D01*
X34044462Y31434148D01*
X34051945Y31452212D01*
X34130473Y31599128D01*
X34141336Y31615386D01*
X34247020Y31744161D01*
X34260839Y31757980D01*
X34389614Y31863664D01*
X34405872Y31874527D01*
X34552788Y31953055D01*
X34570852Y31960538D01*
X34730262Y32008894D01*
X34749442Y32012709D01*
X34915222Y32029037D01*
X34934778Y32029037D01*
X35100558Y32012709D01*
X35119738Y32008894D01*
X35279148Y31960538D01*
X35297212Y31953055D01*
X35444128Y31874527D01*
X35460386Y31863664D01*
X35589161Y31757980D01*
X35602980Y31744161D01*
X35708664Y31615386D01*
X35719527Y31599128D01*
X35798055Y31452212D01*
X35805538Y31434148D01*
X35853894Y31274738D01*
X35857709Y31255558D01*
X35874519Y31084883D01*
X35875000Y31075093D01*
X35875000Y29884907D01*
X35874519Y29875117D01*
X35857709Y29704442D01*
X35853894Y29685262D01*
X35805538Y29525852D01*
X35798055Y29507788D01*
X35719527Y29360872D01*
X35708664Y29344614D01*
X35602980Y29215839D01*
X35589155Y29202014D01*
X35548121Y29168338D01*
X35493661Y29098095D01*
X35475000Y29013737D01*
X35475000Y28250660D01*
X35494750Y28164000D01*
X35533579Y28109239D01*
X37446865Y26195953D01*
X37522108Y26148640D01*
X37565894Y26138631D01*
X37620739Y26132452D01*
X37642489Y26127488D01*
X37779812Y26079436D01*
X37799922Y26069752D01*
X37923108Y25992349D01*
X37940561Y25978430D01*
X38043430Y25875561D01*
X38057349Y25858108D01*
X38134752Y25734922D01*
X38144436Y25714812D01*
X38192488Y25577489D01*
X38197453Y25555731D01*
X38213742Y25411165D01*
X38213742Y25388835D01*
X38197453Y25244269D01*
X38192488Y25222511D01*
X38144436Y25085188D01*
X38134752Y25065078D01*
X38057349Y24941892D01*
X38043430Y24924439D01*
X37940561Y24821570D01*
X37923108Y24807651D01*
X37799922Y24730248D01*
X37779812Y24720564D01*
X37642489Y24672512D01*
X37620731Y24667547D01*
X37476165Y24651258D01*
X37453835Y24651258D01*
X37453835Y23648982D01*
X40621864Y20480953D01*
X40697107Y20433640D01*
X40740893Y20423631D01*
X40795739Y20417452D01*
X40817489Y20412488D01*
X40954812Y20364436D01*
X40974922Y20354752D01*
X41098108Y20277349D01*
X41115561Y20263430D01*
X41218430Y20160561D01*
X41232349Y20143108D01*
X41309752Y20019922D01*
X41319436Y19999812D01*
X41367488Y19862489D01*
X41372453Y19840731D01*
X41388742Y19696165D01*
X41388742Y19673835D01*
X41372453Y19529269D01*
X41367488Y19507511D01*
X41319436Y19370188D01*
X41309752Y19350078D01*
X41232349Y19226892D01*
X41218430Y19209439D01*
X41115561Y19106570D01*
X41098108Y19092651D01*
X40974922Y19015248D01*
X40954812Y19005564D01*
X40817489Y18957512D01*
X40795731Y18952547D01*
X40651165Y18936258D01*
X40628835Y18936258D01*
X40628835Y18330000D01*
X43504340Y18330000D01*
X43591000Y18349750D01*
X43645761Y18388579D01*
X43803835Y18546653D01*
X43803835Y20841258D01*
X43659269Y20857547D01*
X43637511Y20862512D01*
X43500188Y20910564D01*
X43480078Y20920248D01*
X43356892Y20997651D01*
X43339439Y21011570D01*
X43236570Y21114439D01*
X43222651Y21131892D01*
X43145248Y21255078D01*
X43135564Y21275188D01*
X43087512Y21412511D01*
X43082548Y21434261D01*
X43076369Y21489106D01*
X43047040Y21573010D01*
X43019047Y21608135D01*
X37080721Y27546461D01*
X37072108Y27556282D01*
X36996667Y27654599D01*
X36983668Y27677114D01*
X36938758Y27785534D01*
X36932029Y27810649D01*
X36916364Y27929639D01*
X36915855Y27933504D01*
X36915000Y27946551D01*
X36915000Y29013737D01*
X36895250Y29100397D01*
X36841879Y29168338D01*
X36800845Y29202014D01*
X36787020Y29215839D01*
X36681336Y29344614D01*
X36670473Y29360872D01*
X36591945Y29507788D01*
X36584462Y29525852D01*
X36536106Y29685262D01*
X36532291Y29704442D01*
X36515481Y29875117D01*
X36515000Y29884907D01*
X36515000Y31075093D01*
X36515481Y31084883D01*
X36532291Y31255558D01*
X36536106Y31274738D01*
X36584462Y31434148D01*
X36591945Y31452212D01*
X36670473Y31599128D01*
X36681336Y31615386D01*
X36787020Y31744161D01*
X36800839Y31757980D01*
X36929614Y31863664D01*
X36945872Y31874527D01*
X37092788Y31953055D01*
X37110852Y31960538D01*
X37270262Y32008894D01*
X37289442Y32012709D01*
X37455222Y32029037D01*
X37474778Y32029037D01*
X37640558Y32012709D01*
X37659738Y32008894D01*
X37819148Y31960538D01*
X37837212Y31953055D01*
X37984128Y31874527D01*
X38000386Y31863664D01*
X38129161Y31757980D01*
X38142980Y31744161D01*
X38248664Y31615386D01*
X38259527Y31599128D01*
X38338055Y31452212D01*
X38345538Y31434148D01*
X38393894Y31274738D01*
X38397709Y31255558D01*
X38414519Y31084883D01*
X38415000Y31075093D01*
X38415000Y29884907D01*
X38414519Y29875117D01*
X38397709Y29704442D01*
X38393894Y29685262D01*
X38345538Y29525852D01*
X38338055Y29507788D01*
X38259527Y29360872D01*
X38248664Y29344614D01*
X38142980Y29215839D01*
X38129155Y29202014D01*
X38088121Y29168338D01*
X38033661Y29098095D01*
X38015000Y29013737D01*
X38015000Y28250660D01*
X38034750Y28164000D01*
X38073579Y28109239D01*
X41898835Y24283983D01*
X41898835Y25921258D01*
X41754269Y25937547D01*
X41732511Y25942512D01*
X41595188Y25990564D01*
X41575078Y26000248D01*
X41451892Y26077651D01*
X41434439Y26091570D01*
X41331570Y26194439D01*
X41317651Y26211892D01*
X41240248Y26335078D01*
X41230564Y26355188D01*
X41182512Y26492511D01*
X41177548Y26514261D01*
X41171369Y26569107D01*
X41142040Y26653011D01*
X41114047Y26688136D01*
X39627122Y28175061D01*
X39616623Y28188178D01*
X39607775Y28196929D01*
X39536665Y28289601D01*
X39523669Y28312112D01*
X39516713Y28328906D01*
X39516712Y28328909D01*
X39480510Y28416309D01*
X39480508Y28416314D01*
X39478757Y28420540D01*
X39472030Y28445645D01*
X39455855Y28568507D01*
X39455000Y28581550D01*
X39455000Y29013737D01*
X39435250Y29100397D01*
X39381879Y29168338D01*
X39340845Y29202014D01*
X39327020Y29215839D01*
X39221336Y29344614D01*
X39210473Y29360872D01*
X39131945Y29507788D01*
X39124462Y29525852D01*
X39076106Y29685262D01*
X39072291Y29704442D01*
X39055481Y29875117D01*
X39055000Y29884907D01*
X39055000Y31075093D01*
X39055481Y31084883D01*
X39072291Y31255558D01*
X39076106Y31274738D01*
X39124462Y31434148D01*
X39131945Y31452212D01*
X39210473Y31599128D01*
X39221336Y31615386D01*
X39327020Y31744161D01*
X39340839Y31757980D01*
X39469614Y31863664D01*
X39485872Y31874527D01*
X39632788Y31953055D01*
X39650852Y31960538D01*
X39810262Y32008894D01*
X39829442Y32012709D01*
X39995222Y32029037D01*
X40014778Y32029037D01*
X40180558Y32012709D01*
X40199738Y32008894D01*
X40359148Y31960538D01*
X40377212Y31953055D01*
X40524128Y31874527D01*
X40540386Y31863664D01*
X40669161Y31757980D01*
X40682980Y31744161D01*
X40788664Y31615386D01*
X40799527Y31599128D01*
X40878055Y31452212D01*
X40885538Y31434148D01*
X40933894Y31274738D01*
X40937709Y31255558D01*
X40954519Y31084883D01*
X40955000Y31075093D01*
X40955000Y29884907D01*
X40954519Y29875117D01*
X40937709Y29704442D01*
X40933894Y29685262D01*
X40885538Y29525852D01*
X40878055Y29507788D01*
X40799527Y29360872D01*
X40788664Y29344614D01*
X40682980Y29215839D01*
X40669155Y29202014D01*
X40628121Y29168338D01*
X40573661Y29098095D01*
X40555000Y29013737D01*
X40555000Y28885659D01*
X40574750Y28798999D01*
X40613579Y28744238D01*
X41891864Y27465953D01*
X41967107Y27418640D01*
X42010893Y27408631D01*
X42065739Y27402452D01*
X42087489Y27397488D01*
X42224812Y27349436D01*
X42244922Y27339752D01*
X42368108Y27262349D01*
X42385561Y27248430D01*
X42488430Y27145561D01*
X42502349Y27128108D01*
X42579752Y27004922D01*
X42589436Y26984812D01*
X42637488Y26847489D01*
X42642453Y26825731D01*
X42658742Y26681165D01*
X42658742Y26658835D01*
X42642453Y26514269D01*
X42637488Y26492511D01*
X42589436Y26355188D01*
X42579752Y26335078D01*
X42502349Y26211892D01*
X42488430Y26194439D01*
X42385561Y26091570D01*
X42368108Y26077651D01*
X42244922Y26000248D01*
X42224812Y25990564D01*
X42087489Y25942512D01*
X42065731Y25937547D01*
X41921165Y25921258D01*
X41898835Y25921258D01*
X41898835Y24283983D01*
X43796865Y22385953D01*
X43872108Y22338640D01*
X43915894Y22328631D01*
X43970739Y22322452D01*
X43992489Y22317488D01*
X44129812Y22269436D01*
X44149922Y22259752D01*
X44273108Y22182349D01*
X44290561Y22168430D01*
X44393430Y22065561D01*
X44407349Y22048108D01*
X44484752Y21924922D01*
X44494436Y21904812D01*
X44542488Y21767489D01*
X44547453Y21745731D01*
X44563742Y21601165D01*
X44563742Y21578835D01*
X44547453Y21434269D01*
X44542488Y21412511D01*
X44494436Y21275188D01*
X44484752Y21255078D01*
X44407349Y21131892D01*
X44393430Y21114439D01*
X44290561Y21011570D01*
X44273108Y20997651D01*
X44149922Y20920248D01*
X44129812Y20910564D01*
X43992489Y20862512D01*
X43970731Y20857547D01*
X43826165Y20841258D01*
X43803835Y20841258D01*
X43803835Y18546653D01*
X46978835Y21721653D01*
X46978835Y22746258D01*
X46834269Y22762547D01*
X46812511Y22767512D01*
X46675188Y22815564D01*
X46655078Y22825248D01*
X46531892Y22902651D01*
X46514439Y22916570D01*
X46411570Y23019439D01*
X46397651Y23036892D01*
X46320248Y23160078D01*
X46310564Y23180188D01*
X46262512Y23317511D01*
X46257547Y23339269D01*
X46241258Y23483835D01*
X46241258Y23506165D01*
X46257547Y23650731D01*
X46262512Y23672489D01*
X46310564Y23809814D01*
X46321087Y23831663D01*
X46340896Y23918309D01*
X46321205Y24004983D01*
X46282317Y24059866D01*
X42167122Y28175061D01*
X42156623Y28188178D01*
X42147775Y28196929D01*
X42076665Y28289601D01*
X42063669Y28312112D01*
X42056713Y28328906D01*
X42056712Y28328909D01*
X42020510Y28416309D01*
X42020508Y28416314D01*
X42018757Y28420540D01*
X42012030Y28445645D01*
X41995855Y28568507D01*
X41995000Y28581550D01*
X41995000Y29013737D01*
X41975250Y29100397D01*
X41921879Y29168338D01*
X41880845Y29202014D01*
X41867020Y29215839D01*
X41761336Y29344614D01*
X41750473Y29360872D01*
X41671945Y29507788D01*
X41664462Y29525852D01*
X41616106Y29685262D01*
X41612291Y29704442D01*
X41595481Y29875117D01*
X41595000Y29884907D01*
X41595000Y31075093D01*
X41595481Y31084883D01*
X41612291Y31255558D01*
X41616106Y31274738D01*
X41664462Y31434148D01*
X41671945Y31452212D01*
X41750473Y31599128D01*
X41761336Y31615386D01*
X41867020Y31744161D01*
X41880839Y31757980D01*
X42009614Y31863664D01*
X42025872Y31874527D01*
X42172788Y31953055D01*
X42190852Y31960538D01*
X42350262Y32008894D01*
X42369442Y32012709D01*
X42535222Y32029037D01*
X42554778Y32029037D01*
X42720558Y32012709D01*
X42739738Y32008894D01*
X42899148Y31960538D01*
X42917212Y31953055D01*
X43064128Y31874527D01*
X43080386Y31863664D01*
X43209161Y31757980D01*
X43222980Y31744161D01*
X43328664Y31615386D01*
X43339527Y31599128D01*
X43418055Y31452212D01*
X43425538Y31434148D01*
X43473894Y31274738D01*
X43477709Y31255558D01*
X43494519Y31084883D01*
X43495000Y31075093D01*
X43495000Y29884907D01*
X43494519Y29875117D01*
X43477709Y29704442D01*
X43473894Y29685262D01*
X43425538Y29525852D01*
X43418055Y29507788D01*
X43339527Y29360872D01*
X43328664Y29344614D01*
X43222980Y29215839D01*
X43209155Y29202014D01*
X43168121Y29168338D01*
X43113661Y29098095D01*
X43095000Y29013737D01*
X43095000Y28885659D01*
X43114750Y28798999D01*
X43153579Y28744238D01*
X47367878Y24529939D01*
X47378377Y24516822D01*
X47387225Y24508071D01*
X47458333Y24415402D01*
X47471332Y24392886D01*
X47516242Y24284462D01*
X47522970Y24259353D01*
X47539145Y24136493D01*
X47540000Y24123450D01*
X47540000Y24076195D01*
X47559750Y23989535D01*
X47576573Y23962742D01*
X47576374Y23962617D01*
X47615222Y23900790D01*
X47615222Y28930963D01*
X47449442Y28947291D01*
X47430262Y28951106D01*
X47270852Y28999462D01*
X47252788Y29006945D01*
X47105872Y29085473D01*
X47089614Y29096336D01*
X46960839Y29202020D01*
X46947020Y29215839D01*
X46841336Y29344614D01*
X46830473Y29360872D01*
X46751945Y29507788D01*
X46744462Y29525852D01*
X46696106Y29685262D01*
X46692291Y29704442D01*
X46675481Y29875117D01*
X46675000Y29884907D01*
X46675000Y31075093D01*
X46675481Y31084883D01*
X46692291Y31255558D01*
X46696106Y31274738D01*
X46744462Y31434148D01*
X46751945Y31452212D01*
X46830473Y31599128D01*
X46841336Y31615386D01*
X46947020Y31744161D01*
X46960839Y31757980D01*
X47089614Y31863664D01*
X47105872Y31874527D01*
X47252788Y31953055D01*
X47270852Y31960538D01*
X47430262Y32008894D01*
X47449442Y32012709D01*
X47615222Y32029037D01*
X47634778Y32029037D01*
X47800558Y32012709D01*
X47819738Y32008894D01*
X47979148Y31960538D01*
X47997212Y31953055D01*
X48144128Y31874527D01*
X48160386Y31863664D01*
X48289161Y31757980D01*
X48302980Y31744161D01*
X48408664Y31615386D01*
X48419527Y31599128D01*
X48498055Y31452212D01*
X48505538Y31434148D01*
X48553894Y31274738D01*
X48557709Y31255558D01*
X48574519Y31084883D01*
X48575000Y31075093D01*
X48575000Y29884907D01*
X48574519Y29875117D01*
X48557709Y29704442D01*
X48553894Y29685262D01*
X48505538Y29525852D01*
X48498055Y29507788D01*
X48419527Y29360872D01*
X48408664Y29344614D01*
X48302980Y29215839D01*
X48289161Y29202020D01*
X48160386Y29096336D01*
X48144128Y29085473D01*
X47997212Y29006945D01*
X47979148Y28999462D01*
X47819738Y28951106D01*
X47800558Y28947291D01*
X47634778Y28930963D01*
X47615222Y28930963D01*
X47615222Y23900790D01*
X47659752Y23829922D01*
X47669436Y23809812D01*
X47717488Y23672489D01*
X47722453Y23650731D01*
X47738742Y23506165D01*
X47738742Y23483835D01*
X47722453Y23339269D01*
X47717488Y23317511D01*
X47669436Y23180188D01*
X47659752Y23160078D01*
X47582349Y23036892D01*
X47568430Y23019439D01*
X47465561Y22916570D01*
X47448108Y22902651D01*
X47324922Y22825248D01*
X47304812Y22815564D01*
X47167489Y22767512D01*
X47145731Y22762547D01*
X47001165Y22746258D01*
X46978835Y22746258D01*
X46978835Y21721653D01*
X50155222Y24898040D01*
X50155222Y28930963D01*
X49989442Y28947291D01*
X49970262Y28951106D01*
X49810852Y28999462D01*
X49792788Y29006945D01*
X49645872Y29085473D01*
X49629614Y29096336D01*
X49500839Y29202020D01*
X49487020Y29215839D01*
X49381336Y29344614D01*
X49370473Y29360872D01*
X49291945Y29507788D01*
X49284462Y29525852D01*
X49236106Y29685262D01*
X49232291Y29704442D01*
X49215481Y29875117D01*
X49215000Y29884907D01*
X49215000Y31075093D01*
X49215481Y31084883D01*
X49232291Y31255558D01*
X49236106Y31274738D01*
X49284462Y31434148D01*
X49291945Y31452212D01*
X49370473Y31599128D01*
X49381336Y31615386D01*
X49487020Y31744161D01*
X49500839Y31757980D01*
X49629614Y31863664D01*
X49645872Y31874527D01*
X49792788Y31953055D01*
X49810852Y31960538D01*
X49970262Y32008894D01*
X49989442Y32012709D01*
X50155222Y32029037D01*
X50174778Y32029037D01*
X50340558Y32012709D01*
X50359738Y32008894D01*
X50519148Y31960538D01*
X50537212Y31953055D01*
X50684128Y31874527D01*
X50700386Y31863664D01*
X50829161Y31757980D01*
X50842980Y31744161D01*
X50948664Y31615386D01*
X50959527Y31599128D01*
X51038055Y31452212D01*
X51045538Y31434148D01*
X51093894Y31274738D01*
X51097709Y31255558D01*
X51114519Y31084883D01*
X51115000Y31075093D01*
X51115000Y29884907D01*
X51114519Y29875117D01*
X51097709Y29704442D01*
X51093894Y29685262D01*
X51045538Y29525852D01*
X51038055Y29507788D01*
X50959527Y29360872D01*
X50948664Y29344614D01*
X50842980Y29215839D01*
X50829161Y29202020D01*
X50700386Y29096336D01*
X50684128Y29085473D01*
X50537212Y29006945D01*
X50519148Y28999462D01*
X50359738Y28951106D01*
X50340558Y28947291D01*
X50174778Y28930963D01*
X50155222Y28930963D01*
X50155222Y24898040D01*
X52096421Y26839239D01*
X52143734Y26914482D01*
X52155000Y26980660D01*
X52155000Y29013737D01*
X52135250Y29100397D01*
X52081879Y29168338D01*
X52040845Y29202014D01*
X52027020Y29215839D01*
X51921336Y29344614D01*
X51910473Y29360872D01*
X51831945Y29507788D01*
X51824462Y29525852D01*
X51776106Y29685262D01*
X51772291Y29704442D01*
X51755481Y29875117D01*
X51755000Y29884907D01*
X51755000Y31075093D01*
X51755481Y31084883D01*
X51772291Y31255558D01*
X51776106Y31274738D01*
X51824462Y31434148D01*
X51831945Y31452212D01*
X51910473Y31599128D01*
X51921336Y31615386D01*
X52027020Y31744161D01*
X52040839Y31757980D01*
X52169614Y31863664D01*
X52185872Y31874527D01*
X52332788Y31953055D01*
X52350852Y31960538D01*
X52510262Y32008894D01*
X52529442Y32012709D01*
X52695222Y32029037D01*
X52714778Y32029037D01*
X52880558Y32012709D01*
X52899738Y32008894D01*
X53059148Y31960538D01*
X53077212Y31953055D01*
X53224128Y31874527D01*
X53240386Y31863664D01*
X53369161Y31757980D01*
X53382980Y31744161D01*
X53488664Y31615386D01*
X53499527Y31599128D01*
X53578055Y31452212D01*
X53585538Y31434148D01*
X53633894Y31274738D01*
X53637709Y31255558D01*
X53654519Y31084883D01*
X53655000Y31075093D01*
X53655000Y29884907D01*
X53654519Y29875117D01*
X53637709Y29704442D01*
X53633894Y29685262D01*
X53585538Y29525852D01*
X53578055Y29507788D01*
X53499527Y29360872D01*
X53488664Y29344614D01*
X53382980Y29215839D01*
X53369155Y29202014D01*
X53328121Y29168338D01*
X53273661Y29098095D01*
X53255000Y29013737D01*
X53255000Y26676551D01*
X53254145Y26663501D01*
X53244396Y26589447D01*
X53252666Y26500951D01*
X53298466Y26424777D01*
X53372748Y26375970D01*
X53460843Y26364170D01*
X53545352Y26391706D01*
X53584106Y26421923D01*
X54636421Y27474238D01*
X54683734Y27549481D01*
X54695000Y27615659D01*
X54695000Y29013737D01*
X54675250Y29100397D01*
X54621879Y29168338D01*
X54580845Y29202014D01*
X54567020Y29215839D01*
X54461336Y29344614D01*
X54450473Y29360872D01*
X54371945Y29507788D01*
X54364462Y29525852D01*
X54316106Y29685262D01*
X54312291Y29704442D01*
X54295481Y29875117D01*
X54295000Y29884907D01*
X54295000Y31075093D01*
X54295481Y31084883D01*
X54312291Y31255558D01*
X54316106Y31274738D01*
X54364462Y31434148D01*
X54371945Y31452212D01*
X54450473Y31599128D01*
X54461336Y31615386D01*
X54567020Y31744161D01*
X54580839Y31757980D01*
X54709614Y31863664D01*
X54725872Y31874527D01*
X54872788Y31953055D01*
X54890852Y31960538D01*
X55050262Y32008894D01*
X55069442Y32012709D01*
X55235222Y32029037D01*
X55254778Y32029037D01*
X55420558Y32012709D01*
X55439738Y32008894D01*
X55599148Y31960538D01*
X55617212Y31953055D01*
X55764128Y31874527D01*
X55780386Y31863664D01*
X55909161Y31757980D01*
X55922980Y31744161D01*
X56028664Y31615386D01*
X56039527Y31599128D01*
X56118055Y31452212D01*
X56125538Y31434148D01*
X56173894Y31274738D01*
X56177709Y31255558D01*
X56194519Y31084883D01*
X56195000Y31075093D01*
X56195000Y29884907D01*
X56194519Y29875117D01*
X56177709Y29704442D01*
X56173894Y29685262D01*
X56125538Y29525852D01*
X56118055Y29507788D01*
X56039527Y29360872D01*
X56028664Y29344614D01*
X55922980Y29215839D01*
X55909155Y29202014D01*
X55868121Y29168338D01*
X55813661Y29098095D01*
X55795000Y29013737D01*
X55795000Y27311550D01*
X55794145Y27298507D01*
X55777970Y27175647D01*
X55771242Y27150538D01*
X55726332Y27042114D01*
X55713333Y27019598D01*
X55642225Y26926929D01*
X55633377Y26918178D01*
X55628792Y26910975D01*
X44849939Y16132122D01*
X44836822Y16121623D01*
X44828071Y16112775D01*
X44735402Y16041667D01*
X44712886Y16028668D01*
X44604462Y15983758D01*
X44579353Y15977030D01*
X44456493Y15960855D01*
X44443450Y15960000D01*
X14611551Y15960000D01*
X14611551Y6629037D01*
X14614778Y6629037D01*
X14780558Y6612709D01*
X14799738Y6608894D01*
X14959148Y6560538D01*
X14977212Y6553055D01*
X15124128Y6474527D01*
X15140386Y6463664D01*
X15269161Y6357980D01*
X15282980Y6344161D01*
X15388664Y6215386D01*
X15399527Y6199128D01*
X15478055Y6052212D01*
X15485538Y6034148D01*
X15533894Y5874738D01*
X15537709Y5855558D01*
X15554519Y5684883D01*
X15555000Y5675093D01*
X15555000Y4484907D01*
X15554519Y4475117D01*
X15537709Y4304442D01*
X15533894Y4285262D01*
X15485538Y4125852D01*
X15478055Y4107788D01*
X15399527Y3960872D01*
X15388664Y3944614D01*
X15282980Y3815839D01*
X15269161Y3802020D01*
X15140386Y3696336D01*
X15124128Y3685473D01*
X14977212Y3606945D01*
X14959148Y3599462D01*
X14799738Y3551106D01*
X14780558Y3547291D01*
X14614778Y3530963D01*
X14595222Y3530963D01*
X14595222Y300000D01*
X17135222Y300000D01*
X17135222Y3530963D01*
X16969442Y3547291D01*
X16950262Y3551106D01*
X16790852Y3599462D01*
X16772788Y3606945D01*
X16625872Y3685473D01*
X16609614Y3696336D01*
X16480839Y3802020D01*
X16467020Y3815839D01*
X16361336Y3944614D01*
X16350473Y3960872D01*
X16271945Y4107788D01*
X16264462Y4125852D01*
X16216106Y4285262D01*
X16212291Y4304442D01*
X16195481Y4475117D01*
X16195000Y4484907D01*
X16195000Y5675093D01*
X16195481Y5684883D01*
X16212291Y5855558D01*
X16216106Y5874738D01*
X16264462Y6034148D01*
X16271945Y6052212D01*
X16350473Y6199128D01*
X16361336Y6215386D01*
X16467020Y6344161D01*
X16480839Y6357980D01*
X16609614Y6463664D01*
X16625872Y6474527D01*
X16772788Y6553055D01*
X16790852Y6560538D01*
X16950262Y6608894D01*
X16969442Y6612709D01*
X17135222Y6629037D01*
X17154778Y6629037D01*
X17320558Y6612709D01*
X17339738Y6608894D01*
X17499148Y6560538D01*
X17517212Y6553055D01*
X17664128Y6474527D01*
X17680386Y6463664D01*
X17809161Y6357980D01*
X17822980Y6344161D01*
X17928664Y6215386D01*
X17939527Y6199128D01*
X18018055Y6052212D01*
X18025538Y6034148D01*
X18073894Y5874738D01*
X18077709Y5855558D01*
X18094519Y5684883D01*
X18095000Y5675093D01*
X18095000Y4484907D01*
X18094519Y4475117D01*
X18077709Y4304442D01*
X18073894Y4285262D01*
X18025538Y4125852D01*
X18018055Y4107788D01*
X17939527Y3960872D01*
X17928664Y3944614D01*
X17822980Y3815839D01*
X17809161Y3802020D01*
X17680386Y3696336D01*
X17664128Y3685473D01*
X17517212Y3606945D01*
X17499148Y3599462D01*
X17339738Y3551106D01*
X17320558Y3547291D01*
X17154778Y3530963D01*
X17135222Y3530963D01*
X17135222Y300000D01*
X19675222Y300000D01*
X19675222Y3530963D01*
X19509442Y3547291D01*
X19490262Y3551106D01*
X19330852Y3599462D01*
X19312788Y3606945D01*
X19165872Y3685473D01*
X19149614Y3696336D01*
X19020839Y3802020D01*
X19007020Y3815839D01*
X18901336Y3944614D01*
X18890473Y3960872D01*
X18811945Y4107788D01*
X18804462Y4125852D01*
X18756106Y4285262D01*
X18752291Y4304442D01*
X18735481Y4475117D01*
X18735000Y4484907D01*
X18735000Y5675093D01*
X18735481Y5684883D01*
X18752291Y5855558D01*
X18756106Y5874738D01*
X18804462Y6034148D01*
X18811945Y6052212D01*
X18890473Y6199128D01*
X18901336Y6215386D01*
X19007020Y6344161D01*
X19020839Y6357980D01*
X19149614Y6463664D01*
X19165872Y6474527D01*
X19312788Y6553055D01*
X19330852Y6560538D01*
X19490262Y6608894D01*
X19509442Y6612709D01*
X19675222Y6629037D01*
X19694778Y6629037D01*
X19860558Y6612709D01*
X19879738Y6608894D01*
X20039148Y6560538D01*
X20057212Y6553055D01*
X20204128Y6474527D01*
X20220386Y6463664D01*
X20349161Y6357980D01*
X20362980Y6344161D01*
X20468664Y6215386D01*
X20479527Y6199128D01*
X20558055Y6052212D01*
X20565538Y6034148D01*
X20613894Y5874738D01*
X20617709Y5855558D01*
X20634519Y5684883D01*
X20635000Y5675093D01*
X20635000Y4484907D01*
X20634519Y4475117D01*
X20617709Y4304442D01*
X20613894Y4285262D01*
X20565538Y4125852D01*
X20558055Y4107788D01*
X20479527Y3960872D01*
X20468664Y3944614D01*
X20362980Y3815839D01*
X20349161Y3802020D01*
X20220386Y3696336D01*
X20204128Y3685473D01*
X20057212Y3606945D01*
X20039148Y3599462D01*
X19879738Y3551106D01*
X19860558Y3547291D01*
X19694778Y3530963D01*
X19675222Y3530963D01*
X19675222Y300000D01*
X22215222Y300000D01*
X22215222Y3530963D01*
X22049442Y3547291D01*
X22030262Y3551106D01*
X21870852Y3599462D01*
X21852788Y3606945D01*
X21705872Y3685473D01*
X21689614Y3696336D01*
X21560839Y3802020D01*
X21547020Y3815839D01*
X21441336Y3944614D01*
X21430473Y3960872D01*
X21351945Y4107788D01*
X21344462Y4125852D01*
X21296106Y4285262D01*
X21292291Y4304442D01*
X21275481Y4475117D01*
X21275000Y4484907D01*
X21275000Y5675093D01*
X21275481Y5684883D01*
X21292291Y5855558D01*
X21296106Y5874738D01*
X21344462Y6034148D01*
X21351945Y6052212D01*
X21430473Y6199128D01*
X21441336Y6215386D01*
X21547020Y6344161D01*
X21560839Y6357980D01*
X21689614Y6463664D01*
X21705872Y6474527D01*
X21852788Y6553055D01*
X21870852Y6560538D01*
X22030262Y6608894D01*
X22049442Y6612709D01*
X22215222Y6629037D01*
X22234778Y6629037D01*
X22400558Y6612709D01*
X22419738Y6608894D01*
X22579148Y6560538D01*
X22597212Y6553055D01*
X22744128Y6474527D01*
X22760386Y6463664D01*
X22889161Y6357980D01*
X22902980Y6344161D01*
X23008664Y6215386D01*
X23019527Y6199128D01*
X23098055Y6052212D01*
X23105538Y6034148D01*
X23153894Y5874738D01*
X23157709Y5855558D01*
X23174519Y5684883D01*
X23175000Y5675093D01*
X23175000Y4484907D01*
X23174519Y4475117D01*
X23157709Y4304442D01*
X23153894Y4285262D01*
X23105538Y4125852D01*
X23098055Y4107788D01*
X23019527Y3960872D01*
X23008664Y3944614D01*
X22902980Y3815839D01*
X22889161Y3802020D01*
X22760386Y3696336D01*
X22744128Y3685473D01*
X22597212Y3606945D01*
X22579148Y3599462D01*
X22419738Y3551106D01*
X22400558Y3547291D01*
X22234778Y3530963D01*
X22215222Y3530963D01*
X22215222Y300000D01*
X24755222Y300000D01*
X24755222Y3530963D01*
X24589442Y3547291D01*
X24570262Y3551106D01*
X24410852Y3599462D01*
X24392788Y3606945D01*
X24245872Y3685473D01*
X24229614Y3696336D01*
X24100839Y3802020D01*
X24087020Y3815839D01*
X23981336Y3944614D01*
X23970473Y3960872D01*
X23891945Y4107788D01*
X23884462Y4125852D01*
X23836106Y4285262D01*
X23832291Y4304442D01*
X23815481Y4475117D01*
X23815000Y4484907D01*
X23815000Y5675093D01*
X23815481Y5684883D01*
X23832291Y5855558D01*
X23836106Y5874738D01*
X23884462Y6034148D01*
X23891945Y6052212D01*
X23970473Y6199128D01*
X23981336Y6215386D01*
X24087020Y6344161D01*
X24100839Y6357980D01*
X24229614Y6463664D01*
X24245872Y6474527D01*
X24392788Y6553055D01*
X24410852Y6560538D01*
X24570262Y6608894D01*
X24589442Y6612709D01*
X24755222Y6629037D01*
X24774778Y6629037D01*
X24940558Y6612709D01*
X24959738Y6608894D01*
X25119148Y6560538D01*
X25137212Y6553055D01*
X25284128Y6474527D01*
X25300386Y6463664D01*
X25429161Y6357980D01*
X25442980Y6344161D01*
X25548664Y6215386D01*
X25559527Y6199128D01*
X25638055Y6052212D01*
X25645538Y6034148D01*
X25693894Y5874738D01*
X25697709Y5855558D01*
X25714519Y5684883D01*
X25715000Y5675093D01*
X25715000Y4484907D01*
X25714519Y4475117D01*
X25697709Y4304442D01*
X25693894Y4285262D01*
X25645538Y4125852D01*
X25638055Y4107788D01*
X25559527Y3960872D01*
X25548664Y3944614D01*
X25442980Y3815839D01*
X25429161Y3802020D01*
X25300386Y3696336D01*
X25284128Y3685473D01*
X25137212Y3606945D01*
X25119148Y3599462D01*
X24959738Y3551106D01*
X24940558Y3547291D01*
X24774778Y3530963D01*
X24755222Y3530963D01*
X24755222Y300000D01*
X81500000Y300000D01*
X81586660Y319750D01*
G37*
G04 --- BOARD END --- *
G04 #@! TF.MD5,a451a996e90c8ee7b55a9d9d571d4f47*
M02*
